<?xml version="1.0" standalone="no"?>
<!DOCTYPE svg PUBLIC "-//W3C//DTD SVG 1.1//EN" "http://www.w3.org/Graphics/SVG/1.1/DTD/svg11.dtd" >
<svg>
<metadata>
Created by FontForge 20090622 at Wed Oct  3 11:17:41 2018
 By deploy user
Fattana &#194;&#169; 7NTypes . 2018. All Rights Reserved
</metadata>
<defs>
<font id="Fattana" horiz-adv-x="317" >
  <font-face 
    font-family="Fattana"
    font-weight="400"
    font-stretch="normal"
    units-per-em="2048"
    panose-1="2 0 5 0 0 0 0 0 0 0"
    ascent="1638"
    descent="-410"
    x-height="497"
    cap-height="1403"
    bbox="-941 -1159 5105 1915"
    underline-thickness="150"
    underline-position="-142"
    unicode-range="U+001D-U+FB06"
  />
<missing-glyph horiz-adv-x="1024" 
 />
    <glyph glyph-name="uniF001" unicode="fi" horiz-adv-x="1361" 
d="M60 263q79 97 131.5 196.5t78 190.5t25.5 164q0 38 -10 60q-4 10 -7 10q-67 0 -122 -166q-56 -170 -96 -455zM-39 -934q-13 0 -21 9.5t-8 23.5l-1 106q0 390 44 852l-35 5q-12 1 -19 11.5t-7 20.5q0 18 11 28q34 30 64 62q9 68 19 133q40 276 107 452q69 181 166 181
q37 0 58 -46q16 -35 16 -90q0 -177 -112 -389q-75 -141 -198 -275l-4 -32q108 -6 152 -6q179 0 330 93q156 95 280 279q9 13 25 13q15 0 22 -10.5t7 -21.5q-17 -139 -17 -205q0 -217 158 -217q174 0 363 218q9 10 21 10q11 0 20.5 -10.5t9.5 -23.5t-9 -24
q-206 -238 -405 -238q-88 0 -135 40t-64.5 105.5t-17.5 139.5q0 39 6 97q-253 -313 -594 -313q-89 0 -159 7q-44 -468 -44 -863v-88q0 -15 -8 -24.5t-21 -9.5zM899 636q-24 0 -33 23q-3 8 -3 17q0 45 54 58q71 132 74 136q9 10 21 11q12 0 21 -9.5t10 -22.5
q0 -14 -8.5 -26.5t-23.5 -41.5q-74 -145 -112 -145z" />
    <glyph glyph-name="uniF002" unicode="fl" horiz-adv-x="1264" 
d="M-63 -1089q28 0 59 286q21 200 21 377q0 57 -3 105q-2 41 -2 99q-18 2 -27 16q-69 -479 -69 -754q0 -129 21 -129zM886 1632q18 0 25 -15q5 -10 5 -19q0 -5 -36 -137q-206 -751 -206 -1102q0 -316 194 -316q88 0 190 57q111 61 206 161q9 9 21 9q12 -1 20 -11t8 -21
q0 -17 -9 -27q-102 -106 -221 -172q-114 -64 -215 -64q-253 0 -253 384q0 357 196 1072q-104 -172 -190 -379q-126 -301 -226 -589q-91 -262 -172 -447t-163 -230q16 -64 16 -211q0 -186 -22 -386q-23 -211 -65 -298q-23 -47 -52 -47q-81 0 -81 232q0 288 96 907
q30 192 85 471q64 327 207 924q6 25 28 25q18 0 25 -15q5 -10 5 -19q0 -5 -31 -138q-118 -508 -168 -750q-54 -259 -111 -636q6 6 19 7q11 0 19 -6q63 17 140 196.5t170 446.5q102 291 229.5 596t292.5 534q9 13 22 13h2z" />
    <glyph glyph-name="uniFB06" unicode="st" horiz-adv-x="1288" 
d="M-15 -178q45 0 78.5 76.5t34.5 139.5q0 33 -8 59q-108 -214 -112 -264q1 -11 7 -11zM-16 -246q-26 0 -44.5 18.5t-20.5 59.5q6 72 138 334l-14 23q-27 38 -47.5 83t-20.5 114q0 43 19.5 77t58.5 34q26 0 47 -24q8 -11 8 -24q-1 -14 -9.5 -23.5t-19.5 -9.5q-12 0 -26 14
q-7 0 -11 -7q-8 -14 -8 -37q0 -52 17 -88t39 -67l385 712q-249 -16 -470 -52q-12 0 -22 8t-10 26q0 27 25 33q237 40 516 56l346 600q7 23 27 23q4 0 9 -2q21 -7 21 -32l-1 -10q-81 -298 -134 -570q57 1 117 1q198 0 351 -14q28 -4 28 -37q-2 -14 -10.5 -22.5t-19.5 -8.5
q-158 14 -361 14q-60 0 -118 -1q-72 -385 -72 -596q0 -120 26 -189t70 -98t98 -29q89 0 190 57q111 61 207 161q9 9 21 9q12 -1 20 -11.5t8 -23.5q-1 -14 -10 -24q-101 -106 -220 -172q-114 -64 -216 -64q-253 0 -253 384q0 215 70 595q-81 -2 -160 -6q-260 -463 -422 -779
q31 -58 31 -131q-1 -79 -41 -173q-50 -111 -132 -111zM588 1017q65 3 133 5q35 182 83 375z" />
    <glyph glyph-name="uniE03B" unicode="th" horiz-adv-x="1345" 
d="M-5 -474q-13 0 -21.5 9.5t-8.5 23.5q0 408 53 883q43 388 98 699q-331 -25 -507 -25q-134 0 -241 11q-176 19 -217 93q-4 7 -4 15q0 20 16 30q7 5 14 5q17 0 26 -18q32 -55 153 -63t213 -8q188 0 559 28l36 178q8 25 29 25q29 0 29 -37l-32 -161q283 23 355 28
q89 391 122 391q31 0 31 -36l-1 -10q-49 -166 -90 -342q91 5 153 5q141 0 177 -32q14 -16 14 -33q0 -21 -20 -45q-9 -10 -21 -10q-11 0 -20.5 10.5t-9.5 22.5q0 7 3 14q-31 9 -105 9q-57 0 -186 -8q-101 -460 -146 -987q15 50 31 96q72 210 160 210q54 0 59 -95q3 -43 3 -96
q0 -85 20 -135q53 -129 246 -129q122 0 211 50.5t169 168.5q9 13 24 13q10 0 19 -9t9 -27q0 -10 -6 -20q-87 -129 -189 -186.5t-237 -57.5q-325 0 -325 325q0 130 -17 130q-9 0 -32 -27q-86 -104 -166 -599q-4 -31 -14 -37t-18 -6q-31 0 -31 43q0 60 19 312q43 568 149 1058
q-103 -7 -352 -27q-57 -316 -101 -713q-53 -472 -53 -873q0 -14 -8.5 -24t-20.5 -10z" />
    <glyph glyph-name="uniE03C" unicode="At" horiz-adv-x="1988" 
d="M541 412q99 11 255 11q92 0 163 -6q63 430 80 561q19 148 19 252q0 105 -39 105q-62 0 -151 -126.5t-192 -390.5q-70 -180 -135 -406zM863 -710q-13 0 -20.5 10t-7.5 23q42 493 115 1028q-68 5 -158 5q-138 0 -271 -15q-95 -349 -177 -802q-5 -27 -27 -27q-26 0 -26 24
q76 451 167 797q-73 -11 -146 -26q-181 -38 -322 -113q-7 -4 -13 -4q-18 0 -27 19q-3 7 -3 14q0 22 17 31q146 79 333 119q99 20 181 32q68 247 144 441q111 284 215 420t182 136q53 0 76 -47t23 -140q0 -95 -19.5 -244t-50.5 -353q-16 -105 -30 -208q61 -9 104 -24
q61 -22 61 -62q0 -44 -62 -71q-5 -2 -10 -2q-20 0 -28 22q-2 6 -2 12q0 22 17.5 29t22.5 10.5t5 7.5q-7 -7 -14 -7q-59 15 -103 20q-72 -526 -116 -1025q-3 -30 -30 -30zM1591 -25q-253 0 -253 384q0 238 78 595q-96 -2 -187 -8h-4q-31 0 -31 36q0 30 29 32q102 6 208 8
q85 390 119 390q30 -5 30 -33l-2 -10q-43 -155 -86 -346q57 1 116 1q198 0 351 -14q28 -4 28 -37q-2 -14 -10.5 -22.5t-19.5 -8.5q-158 14 -361 14q-60 0 -119 -1q-80 -386 -80 -596q0 -120 26 -189t70 -98t98 -29q89 0 190 57q111 61 207 161q9 9 21 9q12 -1 20 -11.5
t8 -23.5q-1 -14 -10 -24q-101 -106 -220 -172q-114 -64 -216 -64z" />
    <glyph glyph-name="uniE03D" unicode="Et" horiz-adv-x="2210" 
d="M388 -642q26 3 54 48q-49 -23 -54 -48zM385 -710q-56 0 -56 65q0 71 150 128q83 212 174 676q-97 -26 -160 -76q-8 -7 -18 -7q-13 0 -23 13q-6 10 -6 20q0 17 12 28q81 65 209 94q61 325 146 887l-54 -14q-590 -165 -590 -554q0 -54 38 -110q33 -47 100 -69q22 -7 22 -33
q0 -20 -13 -28q-9 -6 -17 -6l-7 1q-130 44 -169 167q-13 40 -13 78q0 436 621 608q45 13 91 24q21 149 29 192q4 28 29 28q16 0 22.5 -11.5t6.5 -21.5q0 -6 -24 -171q399 95 837 123q46 187 48 189q16 62 24 97q7 25 29 25q29 0 29 -33q0 -10 -68 -275q141 8 285 8
q180 0 180 -67q0 -32 -43 -58q-8 -4 -15 -4q-16 0 -25 18q-4 8 -4 16q0 26 27 35q2 0 2 1h-14q-43 -4 -108 -4q-153 0 -301 -8q-149 -611 -149 -902q0 -120 26 -189t70 -98t98 -29q89 0 190 57q111 61 207 161q9 9 21 9q12 -1 20 -11.5t8 -23.5q-1 -14 -10 -24
q-101 -106 -220 -172q-114 -64 -216 -64q-253 0 -253 384q0 174 44 424q40 214 102 475q-442 -28 -830 -124q-76 -510 -150 -891q70 12 129 12q159 0 159 -73q0 -23 -19 -45q-9 -11 -20 -11q-31 0 -31 36q0 8 4 15h-3q-32 11 -88 11q-67 0 -145 -15q-84 -421 -174 -670
q124 37 274 55q139 17 256 17q135 0 203.5 -21.5t68.5 -69.5q0 -21 -16 -43q-10 -12 -23 -12q-10 0 -19.5 10t-9.5 26q0 9 5 18q-36 24 -201 24q-117 0 -258 -17q-180 -21 -310 -60q-66 -140 -123 -140z" />
    <glyph glyph-name="uniE03E" unicode="It" horiz-adv-x="1383" 
d="M222 -485q-14 0 -21 11.5t-7 24.5q2 19 3 31t4 30q0 10 0.5 13t1 9.5t2 18.5t3.5 32q53 512 122 964.5t213 954.5q7 24 28 24q18 0 25 -17q5 -9 5 -17q0 -5 -2 -11q-143 -497 -211.5 -947t-120.5 -959l-15 -133q-1 -14 -10 -21.5t-20 -7.5zM986 -25q-253 0 -253 384
q0 238 78 595q-107 -3 -209 -9h-4q-37 0 -37 35q0 30 37 32q111 7 228 10q85 390 119 390q30 -5 30 -33l-2 -10q-43 -155 -86 -346q57 1 116 1q198 0 351 -14q28 -4 28 -37q-2 -14 -10.5 -22.5t-19.5 -8.5q-158 14 -361 14q-60 0 -119 -1q-80 -386 -80 -596q0 -120 26 -189
t70 -98t98 -29q89 0 190 57q111 61 207 161q9 9 21 9q12 -1 20 -11.5t8 -23.5q-1 -14 -10 -24q-101 -106 -220 -172q-114 -64 -216 -64z" />
    <glyph glyph-name="uniE03F" unicode="Ot" horiz-adv-x="1953" 
d="M902 1144q52 -184 52 -473q0 -472 -123 -946q-35 -129 -79 -226.5t-94.5 -153t-106.5 -55.5q-170 0 -265.5 223.5t-95.5 574.5q0 193 29 379q55 356 195 542q35 245 140 347q48 46 114 46q139 0 212 -192q255 45 504 45q34 0 69 -1q27 108 60 225q23 84 33 128
q7 25 29 25q18 0 25 -15q5 -10 5 -19q0 -5 -35 -137l-56 -209q207 -9 433 -46q28 -4 28 -37q-2 -14 -10.5 -22.5t-19.5 -8.5q-236 38 -448 47q-134 -543 -134 -826q0 -316 194 -316q88 0 190 57q111 61 206 161q9 9 21 9q12 -1 20 -11t8 -21q0 -17 -9 -27
q-102 -106 -221 -172q-114 -64 -215 -64q-71 0 -128.5 35.5t-91 119.5t-33.5 229q0 293 132 827q-27 1 -54 1q-228 0 -480 -43zM843 1133q-102 -19 -186 -42t-124 -52q-33 -24 -63 -61q-11 -85 -11 -164q0 -203 32.5 -343.5t78.5 -176.5q13 -12 13 -30q0 -9 -5 -17
q-9 -15 -24 -15q-8 0 -17 5q-64 51 -102 215q-36 151 -36 362q0 28 2 57q-84 -160 -124 -417q-28 -179 -28 -366q0 -336 89 -544q80 -187 213 -187q61 0 118.5 107.5t105.5 281.5q120 463 120 925q0 288 -52 462zM820 1199q-58 136 -152 136q-84 0 -142 -133
q-22 -52 -36 -114q53 43 143 67.5t187 43.5z" />
    <glyph glyph-name="uniE040" unicode="St" horiz-adv-x="1925" 
d="M1376 752q-41 -236 -41 -393q0 -316 194 -316q88 0 190 57q111 61 206 161q9 9 21 9q12 -1 20 -11t8 -21q0 -17 -9 -27q-102 -106 -221 -172q-114 -64 -215 -64q-253 0 -253 384q0 142 31 340q-291 -225 -515 -440q-40 -48 -62 -48q-20 0 -27 19q-3 7 -3 14q0 13 6 22
q2 6 65 67q62 90 132 292q47 137 77.5 276t31.5 245q0 74 -23 137q-20 49 -64 52q-82 0 -215 -123t-260 -312q-148 -223 -209 -441q-32 -114 -32 -220q0 -55 33 -109t84 -107t107 -105q88 -79 153 -159t68 -167q-2 -132 -138 -212q-81 -47 -174.5 -68.5t-159.5 -21.5
q-12 0 -21 9.5t-9 24.5q0 14 9 23.5t21 9.5q61 0 146.5 20t159.5 63q105 63 107 152q-3 64 -61.5 133t-137.5 141q-62 56 -118 115.5t-92 123t-36 134.5q0 216 124 475q57 119 129 227q135 201 281 331t241 130q113 -7 139 -168q7 -44 7 -88q-1 -113 -32 -258
q-52 -237 -139 -438q193 171 423 346q52 289 162 683q23 84 33 128q7 25 29 25q18 0 25 -15q5 -10 5 -19q0 -5 -35 -137q-96 -349 -148 -611l107 78q190 138 345 232q182 103 298 103q77 0 108 -43q15 -21 15 -48q0 -47 -50 -111q-10 -10 -23 -10q-15 1 -24.5 14t-9.5 23
t7 18q38 48 38 70q0 7 -3 11q-8 11 -52 11q-101 0 -269 -96q-149 -90 -332 -222z" />
    <glyph glyph-name="uniE041" unicode="Ut" horiz-adv-x="1567" 
d="M837 649q33 122 56 246q-27 -112 -56 -246zM324 -476q-33 0 -60 10q-142 53 -161 334q-3 54 -3 112q0 209 40 459q52 321 120.5 588t104.5 356q7 19 27 19q6 0 12 -3q18 -9 18 -30q0 -7 -3 -15q-35 -86 -102.5 -348.5t-117.5 -577.5q-40 -245 -40 -447q0 -390 165 -390
q70 2 138 84.5t130 218.5t115 300q11 129 35 268q51 278 123 496.5t96 218.5q31 0 31 -41q0 -74 -65 -366q-59 -272 -160 -582q-6 -41 -6 -111q0 -93 26 -177t88 -84q63 0 117 97t117 256l134 353l118 311q-62 -5 -147 -15q-41 0 -41 32q0 28 27 34q111 13 188 20l28 70
l245 631q9 27 39 27q18 0 25 -15q5 -10 5 -19q0 -5 -35 -137q-85 -310 -136 -552q266 -5 266 -71q0 -14 -16 -29q-12 -10 -34 -10q-23 0 -34 23l-5 1q-48 17 -190 19q-58 -298 -58 -483q0 -316 194 -316q88 0 190 57q111 61 206 161q9 9 21 9q12 -1 20 -11t8 -21
q0 -17 -9 -27q-102 -106 -221 -172q-114 -64 -215 -64q-253 0 -253 384q0 190 56 483l-57 -3l-130 -344l-109 -287t-101.5 -238t-97.5 -162.5t-115 -59.5q-143 0 -171 267q-185 -482 -380 -491zM1455 909l43 1q24 118 57 251z" />
    <glyph glyph-name="uniE1FD" unicode="er" horiz-adv-x="1435" 
d="M109 254q50 0 72 77q6 28 6 54q0 16 -2 29q-5 23 -12 23q-41 0 -76 -55q-25 -39 -35 -89q5 -17 14.5 -25t18.5 -11t14 -3zM700 -25q-29 0 -30 32v76q0 115 15 247q-86 -128 -191 -224q-147 -131 -278 -131q-102 0 -159.5 75.5t-57.5 198.5q0 95 50 173q53 82 124 82
q55 0 70 -75q4 -22 4 -47q0 -32 -10 -70q-13 -52 -45 -89t-83 -37q-17 0 -48 14q20 -157 155 -157q112 0 242 117q77 70 140.5 155.5t103.5 164.5q9 17 27 17q29 0 29 -31q0 -6 -13 -128q67 185 167 185q18 0 31 -11.5t18.5 -35t7.5 -69t13.5 -81t49.5 -63.5t121 -39
q35 -5 69 -5q45 0 90 7q82 13 123 40q6 4 15 4q17 0 25 -17q4 -8 4 -16q0 -19 -15 -29q-51 -34 -144 -49q-48 -7 -97 -7q-38 0 -77 5q-182 25 -218 138q-15 47 -17.5 105.5t-15.5 58.5q-45 0 -93 -130.5t-71 -318.5q-5 -35 -31 -35z" />
    <glyph glyph-name="uniE1FE" unicode="ow" horiz-adv-x="1803" 
d="M114 43q16 0 31.5 20.5t27.5 52.5t21 69q-56 70 -56 194q0 25 4 47q-38 -27 -58 -74q-28 -71 -28 -146q0 -73 23 -126q16 -37 35 -37zM1195 482q25 98 25 165q-25 -69 -25 -165zM210 284q3 32 3 62q0 45 -8 73q0 5 2 10l-1 1q-9 -24 -9 -51q0 -56 13 -95zM1023 -25
q-84 0 -97 166q-5 -9 -10 -16q-54 -80 -104 -80q-7 0 -14 2q-70 21 -70 185q0 46 3 90q-46 -66 -99 -119q-105 -99 -257 -99q-74 0 -131 35q-23 -87 -64 -132q-29 -32 -66 -32q-56 0 -88 75q-29 68 -29 156q0 89 34 177q31 73 98 111q7 4 13 4q16 0 25 -18q16 17 39 17
q66 -3 66 -151q0 -66 -13 -138q46 -36 112 -36q139 0 224 84q89 89 158 225q10 16 26 16q30 0 30 -35l-1 -6q-21 -99 -21 -224q0 -53 9 -92q6 -25 16 -25q20 0 57 52t68 149q7 22 28 22q16 0 25 -15q3 -5 3 -16q-9 -73 -9 -127q0 -64 14 -105q10 -30 23 -30q60 0 140 301
q-22 61 -22 145q0 89 23 160q26 80 72 80q43 0 43 -78q0 -95 -53 -301q69 -156 299 -156q73 0 144 17q83 19 148 54q6 3 12 3q18 0 27 -20q3 -7 3 -14q0 -21 -17 -30q-146 -78 -325 -78q-213 1 -316 142q-25 -79 -54.5 -146t-60.5 -108t-61 -41z" />
    <glyph glyph-name="uniE1FF" unicode="ox" horiz-adv-x="1688" 
d="M114 43q16 0 31.5 20.5t27.5 52.5t21 69q-56 70 -56 194q0 25 4 47q-38 -27 -57 -74q-29 -71 -29 -146q0 -73 23 -126q16 -37 35 -37zM210 284q3 32 3 62q0 45 -7 73l1 10l-1 1q-9 -24 -9 -51q0 -56 13 -95zM696 -240q-7 0 -14 5q-15 10 -15 29q0 8 5 17q102 197 214 361
q-55 85 -111 220q-63 -110 -144 -188q-104 -100 -256 -100q-74 0 -131 35q-23 -87 -64 -132q-29 -32 -66 -32q-56 0 -88 75q-29 68 -29 156q0 89 35 176q30 74 97 112q7 4 13 4q16 0 25 -18q15 16 36 16q69 0 69 -150q0 -66 -13 -138q46 -36 112 -36q139 0 224 84
q89 89 159 225q3 7 7 9.5t6 4.5q6 3 12 3q19 0 27 -21q60 -156 119 -249q91 128 374 471q9 10 23 10q11 0 19.5 -9.5t8.5 -25.5q0 -12 -8 -21q-287 -348 -380 -479q102 -131 269 -131q123 0 246 59t211 158q9 10 21 10q11 0 20 -10.5t9 -23.5t-9 -23q-95 -109 -229 -173.5
t-269 -64.5q-186 0 -306 145q-105 -155 -203 -344q-8 -16 -26 -16z" />
    <glyph glyph-name="uniE200" unicode="a&#x7a;" horiz-adv-x="1698" 
d="M56 43q36 0 108 106q36 52 69 111q-1 88 -17 135q-11 35 -25 35q-52 0 -103 -109q-56 -117 -56 -219q0 -59 24 -59zM1199 -26q-63 0 -107.5 30.5t-44.5 98.5q0 58 24 104q-13 -4 -27 -10q-5 -2 -10 -2q-6 0 -15 5q-14 8 -14 30q0 24 21 31l99 34q58 80 58 122
q0 29 -81 29q-65 0 -104 -12q-18 -40 -73 -122q-126 -189 -256 -285q-70 -52 -129 -52q-88 0 -135 40t-64.5 105.5t-17.5 139.5l1 38q-167 -323 -268 -323q-83 0 -83 130q0 59 21 135q40 145 117 220q38 37 80 37q75 0 95 -139q41 81 58 121q9 19 26 19q7 0 14 -4
q16 -10 16 -30v-10q-17 -122 -17 -194q0 -57 12.5 -106.5t46.5 -80t98 -30.5q88 0 233 173q123 146 178 263q16 35 151 35q114 0 138 -65q4 -12 4 -25q0 -56 -37 -116q64 0 122 -26q19 -8 19 -29q0 -7 -2 -14q-8 -21 -28 -21q-5 0 -10 2q-46 19 -92 19q-27 0 -59 -6
q-16 -25 -30 -51q-21 -38 -21 -79q0 -61 93 -61q120 0 235 45q122 48 264 175q8 7 17 7q16 0 23.5 -11t7.5 -23q0 -16 -11 -26q-150 -134 -281 -186q-125 -49 -255 -49z" />
    <glyph glyph-name="uniE201" unicode="ix" horiz-adv-x="1565" 
d="M573 -240q-7 0 -14 4q-15 11 -15 30q0 8 4 17q103 197 215 361q-56 86 -111 221q-81 -144 -205 -275q-136 -143 -230 -143q-88 0 -135 40t-64.5 105.5t-17.5 139.5q0 83 17 204q5 33 29 33q30 0 30 -43q-17 -122 -17 -194q0 -57 12.5 -106.5t47 -80t98.5 -30.5
q70 0 190 125q71 75 130 159.5t91 151.5q10 19 28 19q19 0 27 -21q60 -156 119 -249q191 269 221 269q11 0 19.5 -9.5t9.5 -22.5q0 -14 -8 -25q-112 -135 -205 -266q102 -131 269 -131q123 0 246 59t211 158q9 10 21 10q11 0 21 -10q8 -11 8 -24t-8 -24
q-96 -108 -230 -172.5t-269 -64.5q-186 0 -306 145q-105 -155 -203 -344q-8 -16 -26 -16zM118 636q-24 0 -33 23q-3 8 -3 17q0 45 54 58l42.5 80.5t31.5 55.5q9 10 21 11q11 0 20.5 -9.5t9.5 -26.5q0 -11 -12 -28q-35 -68 -54 -100q-47 -81 -77 -81z" />
    <glyph glyph-name="uniE202" unicode="ax" horiz-adv-x="1887" 
d="M56 43q36 0 108 106q36 52 69 111q-1 88 -17 135q-11 35 -25 35q-52 0 -103 -109q-56 -117 -56 -219q0 -59 24 -59zM895 -240q-7 0 -14 4q-15 11 -15 30q0 8 4 17q103 197 215 361q-55 85 -110 218l-50 -78q-126 -189 -256 -285q-70 -52 -129 -52q-88 0 -135 40
t-64.5 105.5t-17.5 139.5l1 38q-167 -323 -268 -323q-83 0 -83 130q0 59 21 135q40 145 117 220q38 37 80 37q75 0 95 -139q41 81 58 121q9 19 26 19q7 0 14 -4q16 -10 16 -30v-10q-17 -122 -17 -194q0 -57 12.5 -106.5t46.5 -80t98 -30.5q88 0 233 173q123 146 178 263
q9 19 27 19q19 0 27 -21q60 -156 119 -249q191 269 221 269q11 0 19.5 -9.5t9.5 -22.5q0 -14 -8 -25q-112 -135 -205 -266q102 -131 269 -131q123 0 246 59t211 158q9 10 21 10q11 0 21 -10q8 -11 8 -24t-8 -24q-96 -108 -230 -172.5t-269 -64.5q-186 0 -306 145
q-105 -155 -203 -344q-8 -16 -26 -16z" />
    <glyph glyph-name="uniE203" unicode="ux" horiz-adv-x="1840" 
d="M878 312q-82 -121 -177 -213q-131 -124 -254 -124q-83 0 -128 30q-74 47 -81 165q-81 -195 -153 -195q-92 0 -92 171q0 121 40 303l4 22q6 26 30 26q29 -2 29 -34q0 -6 -5 -29q-1 0 -1 -1q-38 -179 -38 -287q0 -103 33 -103q36 0 106 171q58 144 91 261q9 22 29 22
q29 -2 29 -32q0 -7 -12 -61q-31 -134 -31 -210q0 -42 12.5 -76.5t45.5 -54.5t92 -20q101 0 217 109q73 70 138 160q66 90 102 167q9 19 27 19q19 0 27 -21q60 -156 119 -249q267 360 297 360q11 0 19.5 -9.5t9.5 -22.5q0 -14 -8 -25q-188 -226 -281 -357q102 -131 269 -131
q123 0 246 59t211 158q9 10 21 10q11 0 21 -10q8 -11 8 -24t-8 -24q-96 -108 -230 -172.5t-269 -64.5q-186 0 -306 145q-105 -155 -266 -466q-8 -16 -26 -16q-7 0 -14 4q-15 11 -15 30q0 8 4 17q166 319 278 483q-55 85 -110 218z" />
    <glyph glyph-name="uniE204" unicode="rt" horiz-adv-x="1344" 
d="M948 -25q-253 0 -253 384q0 225 78 592l-61 -2q-114 -304 -185 -468q-20 -44 -66 -123.5t-103 -79.5q-63 0 -96.5 75.5t-51.5 75.5q-34 0 -77 -100q-34 -84 -54 -178t-26 -147q-4 -29 -30 -29q-29 0 -30 31l-2 61q0 183 34 402q6 27 29 27q30 0 30 -37q-11 -68 -18 -132
q65 170 153 170q49 0 79.5 -79t59.5 -79q44 0 113 160q55 124 176 448q-444 -18 -578 -55q-30 0 -30 33q0 9 5 18q15 29 262 51q167 15 367 22l127 322q74 180 140 281q10 13 25 13q19 0 26 -15q5 -10 5 -19q0 -5 -35 -137q-66 -240 -111 -440q131 3 274 3q23 0 147 -1
t206 -14q12 -2 18.5 -12.5t6.5 -22.5l-1 -3q-5 -26 -31 -26q-89 11 -386 11q-119 0 -249 -3q-81 -375 -81 -594q0 -316 194 -316q88 0 190 57q111 61 206 161q9 9 21 9q12 -1 20 -11t8 -21q0 -17 -9 -27q-102 -106 -221 -172q-114 -64 -215 -64zM738 1018l50 2
q33 149 78 319z" />
    <glyph glyph-name="uniE205" unicode="ss" horiz-adv-x="1156" 
d="M542 -178q56 0 94 113q-100 -40 -100 -101q0 -12 6 -12zM15 -178q24 0 44 21q41 45 60 129q-110 -67 -111 -139q0 -11 7 -11zM574 356q63 90 63 182q0 44 -39 44q-59 0 -59 -104q0 -48 35 -122zM541 -246q-26 0 -45 19t-19 62q0 73 48.5 112.5t127.5 65.5q2 13 2 25
q0 50 -17 85t-37.5 65t-36.5 58q-100 -106 -283 -189l-96 -47q-6 -71 -39 -145q-50 -111 -132 -111q-26 0 -45 18.5t-20 59.5q2 125 178 221q-3 43 -19 75t-35 61q-27 38 -48 83t-21 114q0 43 20 77t59 34q26 0 47 -24q8 -11 8 -24q-1 -14 -9.5 -23.5t-19.5 -9.5
q-12 0 -26 14q-7 0 -11 -7q-8 -14 -8 -37q0 -52 17 -88.5t38.5 -68t39 -66t25.5 -80.5l74 36q179 82 273 185q-51 101 -51 174q0 83 34.5 127t83.5 44t73.5 -34t24.5 -77q0 -125 -90 -243q18 -31 42.5 -67t45 -80t21.5 -115q167 54 289 126q94 54 152 105q7 6 17 6
q15 0 22.5 -11t7.5 -22q0 -39 -173 -139q-90 -52 -194 -93q-30 -11 -131 -45q-11 -49 -32 -95q-50 -111 -132 -111z" />
    <glyph glyph-name="uniE206" unicode="ee" horiz-adv-x="1413" 
d="M62 255q57 4 98 31q48 32 48 87q0 64 -35 64q-40 0 -74 -52t-37 -130zM815 254q52 0 72 77q7 27 7 52q0 37 -6 65.5t-18 28.5q-31 0 -61.5 -67t-39.5 -117q5 -17 14 -25t18 -11t14 -3zM709 183q-78 -88 -194 -167q-149 -101 -275 -101q-116 0 -178.5 85t-62.5 249
q0 95 51 173q53 82 123 82q35 0 64.5 -33.5t29.5 -98.5q0 -66 -56 -121q-51 -49 -147 -54q8 -94 47 -147q49 -67 129 -67q115 0 252 96q136 95 214 200q7 81 51 165q52 100 122 100q35 0 54.5 -38.5t19.5 -123.5q0 -36 -9 -70q-34 -126 -129 -126q-17 0 -47 14
q20 -157 178 -157q115 0 248 64q141 67 219 154q9 10 21 10t21 -10.5t9 -23.5t-9 -24q-86 -96 -239 -169q-144 -69 -270 -69q-116 0 -178 71q-47 51 -59 137z" />
    <glyph glyph-name="uniE207" unicode="tt" horiz-adv-x="1052" 
d="M866 -715q-18 0 -35 6q-86 33 -119 192q-30 148 -30 363q0 423 93 1058l-130 -11l-52 -141q-136 -371 -219 -544q-115 -241 -208 -241q-69 0 -107 54.5t-49.5 133.5t-11.5 157q0 203 63 546h-49q-133 0 -241 11q-176 19 -217 93q-3 8 -3 16q0 19 15 30q7 4 14 4
q17 0 26 -18q32 -55 153.5 -63t212.5 -8q46 0 102 2q17 86 36 168q49 214 70 288q7 24 27 24q31 0 31 -35l-1 -9q-21 -73 -70 -285q-17 -73 -32 -149q189 7 470 30l116 292q93 225 189 363q10 13 23 13q10 0 19.5 -9t9.5 -26q0 -8 -3 -16q-43 -147 -113 -597q206 15 318 15
q141 0 176 -32q15 -16 15 -34q0 -21 -20 -44q-9 -10 -21 -10t-21 11t-9 24q0 6 2 12q-31 9 -105 9q-86 0 -345 -20q-95 -638 -95 -1062q0 -207 28 -347q32 -146 97 -146q13 0 21.5 -10t8.5 -24t-8.5 -24t-21.5 -10zM166 35q66 0 170 228q67 147 243 625q-279 -22 -457 -28
q-66 -351 -66 -553q0 -272 110 -272zM671 963l114 9q35 231 77 438q-77 -149 -191 -447z" />
    <glyph glyph-name="uniE208" unicode="at" horiz-adv-x="1627" 
d="M56 42q35 0 109 106q35 52 69 112q-1 88 -17 135q-12 34 -26 34q-52 0 -104 -109q-55 -118 -55 -218q0 -60 24 -60zM471 -70q-142 0 -142 345v34q-173 -335 -273 -335q-83 0 -83 131q0 59 21 135q40 145 116 220q39 37 81 37q75 0 95 -140q41 82 58 121q9 19 26 19
t24.5 -11.5t7.5 -24.5q-14 -102 -14 -191q0 -278 83 -278q85 0 225 327q90 198 243 632q-342 -13 -623 -61q-30 0 -33 35q0 11 6.5 20.5t18.5 11.5q300 50 655 63q59 164 117 309q76 191 147 292q9 11 22 11q17 0 25 -15q5 -10 5 -19q0 -5 -36 -137q-66 -239 -110 -437h70
q202 0 358 -15q13 -1 20 -11t7 -22q0 -34 -31 -34q-153 14 -349 14q-46 0 -90 -1q-81 -376 -81 -596q0 -316 194 -316q88 0 190 57q111 61 206 161q9 9 21 9t20 -10.5t8 -21.5q0 -17 -9 -27q-102 -106 -221 -172q-114 -64 -215 -64q-253 0 -253 384q0 226 79 595l-54 -1
q-177 -500 -268 -689q-151 -334 -264 -334zM1028 1022l43 1q33 147 78 315q-31 -68 -121 -316z" />
    <glyph glyph-name="uniE209" unicode="et" horiz-adv-x="1069" 
d="M110 247q53 0 72 77q7 27 7 53q0 52 -15 52q-41 0 -76 -54q-28 -44 -28 -93q0 -14 8.5 -21.5t17.5 -10.5t14 -3zM935 -710q-19 0 -35 6q-150 58 -150 555q0 443 98 1096l-96 -3q-137 -363 -216 -537q-200 -440 -366 -440q-81 0 -129 78q-41 68 -41 196q0 96 51 174
q53 82 123 82q54 0 69 -75q5 -22 5 -48q-1 -95 -55 -158q-32 -37 -83 -37q-17 0 -48 14q6 -71 29 -109q31 -49 79 -49q117 0 268 306q94 192 248 601l-22 -1q-28 0 -30 32q0 14 7 23t70 13l133 339q68 166 132 263q9 14 23 14q30 0 30 -32q0 -15 -6 -38q-48 -190 -104 -539
h101q51 0 99 -2q28 -1 28 -33q0 -31 -28 -32q-48 -1 -99 -1q-58 0 -111 -1q-99 -653 -99 -1096q0 -207 29 -347q30 -146 96 -146q12 0 20.5 -10t8.5 -24t-8.5 -24t-20.5 -10zM777 1013l82 2q29 188 64 363q-56 -126 -146 -365z" />
    <glyph glyph-name="uniE20A" unicode="nt" horiz-adv-x="1539" 
d="M-7 -33q-26 0 -26 37q14 211 76 461q6 25 29 25q16 0 24 -15q4 -9 4 -18l-2 -10q-35 -146 -55 -280l45 99q101 251 180 251q37 0 50 -32t13 -113q0 -23 -7 -98q-5 -57 -5 -114q0 -51 12 -87.5t49 -36.5q74 0 196 266q74 160 231 580l22 57q-332 -13 -607 -58q-11 0 -17 5
q-12 10 -12 28q0 28 25 32q291 49 637 62l121 302q91 221 159 309q10 13 26 13q17 0 25 -15q5 -10 5 -19q0 -5 -36 -137q-67 -246 -113 -448h66q205 0 362 -15q27 -2 27 -33q0 -32 -29 -32q-155 12 -351 12l-90 -1q-78 -368 -78 -585q0 -316 194 -316q88 0 190 57
q111 61 206 161q9 9 21 9t20 -10.5t8 -21.5q0 -17 -9 -27q-102 -106 -221 -172q-114 -64 -215 -64q-253 0 -253 384q0 222 76 585l-71 -2q-193 -516 -280 -695q-135 -279 -235 -279q-49 0 -75 26t-35.5 69.5t-9.5 96.5q0 56 5.5 118t5.5 101q0 73 -6 73q-54 -4 -197 -381
q-24 -59 -37 -86q-9 -18 -38 -18zM921 1011l60 1q37 168 90 365q-60 -130 -150 -366z" />
    <glyph glyph-name="uniE20B" unicode="Th" horiz-adv-x="1924" 
d="M543 -710q-15 0 -22 11t-7 24q0 26 20 188q58 531 116 912q46 304 127 631q-268 -74 -433 -194q-185 -134 -185 -312q0 -54 38 -110q33 -47 100 -69q22 -7 22 -33q0 -20 -13 -28q-9 -6 -17 -6l-8 1q-131 45 -168 167q-13 40 -13 78q0 108 53 196q100 168 348 281
q124 56 295 104q31 122 67 248q7 24 28 24q18 0 25 -16q5 -9 5 -17q0 -6 -2 -12q-30 -106 -57 -211q115 28 253 48q20 95 42 188q7 25 29 25q29 0 29 -34l-1 -9l-37 -162q142 17 254 17q116 0 174 -22q52 -20 52 -54q0 -31 -41 -56q-7 -3 -14 -3q-17 0 -26 17q-4 8 -4 16
q0 20 16 30q-16 4 -164 4q-115 0 -261 -19q-95 -459 -137 -942q14 50 30 96q72 210 160 210q54 0 60 -95q2 -43 2 -96q0 -85 21 -135q52 -129 244 -129q123 0 212 50.5t169 168.5q8 13 24 13q10 0 19 -9t9 -27q0 -10 -6 -20q-87 -129 -189 -186.5t-238 -57.5
q-324 0 -324 332q0 123 -3 123q-111 0 -212 -626q-8 -43 -32 -43q-31 0 -31 33q0 62 15 269q41 551 144 1062q-135 -20 -257 -50q-86 -344 -134 -663q-66 -432 -117 -918l-19 -174q-4 -29 -30 -29z" />
    <glyph glyph-name="uniE20C" unicode="yl" horiz-adv-x="1521" 
d="M17 -1088q60 19 153 638q-109 -263 -140 -364q-25 -95 -25 -188q0 -69 12 -86zM16 -1156q-71 0 -71 154q0 103 29 209q48 153 230 581q33 233 56 437q-98 -250 -175 -250q-93 0 -93 171q0 111 45 325q4 26 29 26q29 0 29 -38q-43 -212 -43 -313q0 -103 33 -103
q38 0 105 171q45 108 92 261q7 22 27 22q32 0 34 -33q0 -57 -53 -475q317 731 577 1257q190 386 228 386t38 -34q0 -5 -35 -137q-207 -751 -207 -1102q0 -496 194 -496q88 0 214.5 119t221.5 279q5 9 17 9t22 -10.5t10 -21.5q0 -13 -9 -27q-102 -166 -238.5 -291
t-237.5 -125q-253 0 -253 564q0 355 194 1065q-140 -257 -415 -863l-352 -798q-55 -379 -108.5 -649t-134.5 -270z" />
    <glyph glyph-name="uniE20D" unicode="att" horiz-adv-x="1999" 
d="M56 43q36 0 108 106q36 52 69 111q-1 88 -17 135q-11 35 -25 35q-52 0 -103 -109q-56 -117 -56 -219q0 -59 24 -59zM1618 963l114 9q35 231 77 438q-77 -149 -191 -447zM1113 -25q86 0 213 357l200 556q-279 -22 -457 -28q-66 -351 -66 -553q0 -332 110 -332zM1813 -715
q-18 0 -35 6q-86 33 -119 192q-30 148 -30 363q0 423 93 1058l-130 -11l-232 -626.5t-247 -359.5q-69 0 -107 54.5t-49.5 138.5t-11.5 212q0 141 30 349l-62 -171q-199 -495 -413 -495q-179 0 -179 296q-165 -316 -265 -316q-83 0 -83 130q0 59 21 135q40 145 117 220
q38 37 80 37q75 0 95 -139q41 81 58 121q9 19 26 19q7 0 14 -4q16 -10 16 -30v-10q-17 -122 -17 -194q0 -101 31.5 -149t95.5 -48q212 0 477 795h-28q-133 0 -241 11q-176 19 -217 93q-3 8 -3 16q0 19 15 30q7 4 14 4q17 0 26 -18q32 -55 153.5 -63t212.5 -8q41 0 89 2
q36 114 74 278q30 125 45 178q7 24 27 24q31 0 31 -35l-1 -9q-21 -73 -70 -285q-17 -73 -32 -149q189 7 470 30l116 292q93 225 189 363q10 13 23 13q10 0 19.5 -9t9.5 -26q0 -8 -3 -16q-43 -147 -113 -597q206 15 318 15q141 0 176 -32q15 -16 15 -34q0 -21 -20 -44
q-9 -10 -21 -10t-21 11t-9 24q0 6 2 12q-31 9 -105 9q-86 0 -345 -20q-95 -638 -95 -1062q0 -207 28 -347q32 -146 97 -146q13 0 21.5 -10t8.5 -24t-8.5 -24t-21.5 -10z" />
    <glyph glyph-name="uniE20E" unicode="an" horiz-adv-x="1765" 
d="M56 43q36 0 108 106q36 52 69 111q-1 88 -17 135q-11 35 -25 35q-52 0 -103 -109q-56 -117 -56 -219q0 -59 24 -59zM893 -87q-30 0 -30 33q0 5 10 100.5t39 245.5q-120 -174 -243 -265q-70 -52 -129 -52q-88 0 -135 40t-64.5 105.5t-17.5 139.5l1 38q-167 -323 -268 -323
q-83 0 -83 130q0 59 21 135q40 145 117 220q38 37 80 37q75 0 95 -139q41 81 58 121q9 19 26 19q7 0 14 -4q16 -10 16 -30v-10q-17 -122 -17 -194q0 -57 12.5 -106.5t46.5 -80t98 -30.5q88 0 233 173q123 146 178 263q9 18 27 18q30 0 30 -33q0 -5 -1 -9q-34 -140 -53 -262
q61 131 108 184q51 58 106 58q40 -1 55 -37.5t15 -108.5q0 -100 14 -152q34 -124 141 -124q87 0 186.5 74.5t185.5 173.5q9 10 21 10q11 0 20 -10.5t9 -23.5q0 -15 -8 -24q-93 -106 -203 -186.5t-211 -80.5q-199 0 -213 253q-4 54 -4 99q0 69 -19 69q-26 0 -59 -36.5
t-63 -102.5q-97 -215 -116 -291q-6 -24 -26 -24z" />
    <glyph glyph-name=".notdef" horiz-adv-x="1024" 
 />
    <glyph glyph-name=".null" horiz-adv-x="0" 
 />
    <glyph glyph-name=".null" horiz-adv-x="0" 
 />
    <glyph glyph-name="nonmarkingreturn" horiz-adv-x="508" 
 />
    <glyph glyph-name="space" unicode=" " horiz-adv-x="508" 
 />
    <glyph glyph-name="space" unicode="&#xa0;" horiz-adv-x="508" 
 />
    <glyph glyph-name="exclam" unicode="!" horiz-adv-x="387" 
d="M175 252q-28 3 -28 36q12 351 40 634.5t103 628.5q6 26 29 26q30 -3 30 -35l-1 -7q-74 -340 -102 -621.5t-40 -628.5q-2 -33 -31 -33zM189 -80q-32 0 -39 36q-2 9 -2 18q0 26 15 50q-6 10 -6 22q0 15 9 24t21 9q64 -5 64 -70q0 -43 -29 -73q-16 -16 -33 -16z" />
    <glyph glyph-name="quotedbl" unicode="&#x22;" horiz-adv-x="378" 
d="M79 906h-5q-24 7 -24 33v6q14 101 26.5 202t26.5 202q6 29 30 29q16 0 24 -14q6 -8 6 -22q-15 -104 -28 -205.5l-27 -202.5q-4 -28 -29 -28zM244 906h-5q-24 7 -24 33v6q14 101 26.5 202t26.5 202q6 29 30 29q16 0 24 -14q6 -8 6 -22q-15 -104 -28 -205.5l-27 -202.5
q-4 -28 -29 -28z" />
    <glyph glyph-name="numbersign" unicode="#" horiz-adv-x="886" 
d="M241 369q5 118 13 227v5q-124 -16 -210 -32q-9 0 -19 7.5t-10 26.5q0 10 5 20q10 17 240 47q18 222 56 478q5 29 28 29q28 0 28 -31v-6q-34 -247 -52 -462l54 6q104 13 191 20q20 182 46 363q4 28 26 28q32 0 32 -32v-7q-26 -182 -44 -347q82 5 145 5q57 0 90 -6
q60 -9 60 -44q0 -34 -39 -58q-7 -3 -14 -3q-17 0 -26 18q-4 8 -4 16l1 6q-25 3 -62 3q-68 0 -158 -6q-10 -110 -17 -212q59 7 123 12q13 0 21.5 -9t8.5 -25q0 -12 -7.5 -22t-19.5 -11q-68 -6 -130 -13q-7 -134 -7 -255q0 -15 -8 -24t-19 -9q-32 0 -32 34q0 128 5 247
q-54 -7 -103 -15q-63 -10 -135 -26q-5 -132 -6 -275q0 -31 -31 -32q-12 0 -20 9t-8 24q1 135 6 260q-47 -11 -96 -24l-7 -1q-8 0 -18.5 7t-10.5 25q0 31 134 64zM314 609q0 -10 -1 -20q-7 -99 -12 -206q54 11 123 22q55 9 116 16q5 86 13 167q2 24 5 47q-81 -7 -177 -18z
" />
    <glyph glyph-name="dollar" unicode="$" horiz-adv-x="801" 
d="M430 11q15 -110 59 -216q4 -8 4 -16q0 -18 -16 -30q-7 -3 -13 -3q-17 0 -27 17q-44 100 -61 258q-16 4 -32 10q-135 58 -229 183q-6 10 -6 20q0 16 8.5 25t18.5 9q12 0 21 -12q84 -112 204 -164q4 -2 8 -3q-8 121 -8 254q0 148 10 324q-47 50 -89 103q-117 146 -117 271
q0 103 72 148l4 1q58 29 116 29q30 0 60 -8q19 176 28 184q7 8 17 8q15 0 25 -14q6 -8 6 -21l-2 -28l-17 -150q110 -53 187 -158q7 -9 7 -20q0 -14 -8.5 -23.5t-18.5 -9.5q-13 0 -22 11q-64 86 -151 133q-24 -234 -36 -433l3 -3q71 -70 135 -150q60 -74 98 -169
q23 -62 23 -128q0 -142 -105 -199q-65 -31 -131 -31q-13 0 -25 1zM376 750q7 100 17 209l18 188q-28 8 -55 8q-48 0 -95 -24q-40 -25 -40 -91q0 -41 17 -85q36 -83 88 -146zM427 609q-8 -161 -8 -296q0 -41 3 -203q0 -17 1 -34q16 -2 31 -2q56 0 110 26q71 38 71 141
q0 52 -19 101q-34 87 -90 156q-47 58 -99 111z" />
    <glyph glyph-name="percent" unicode="%" horiz-adv-x="708" 
d="M200 849q-34 0 -58 38q-19 33 -19 95q0 124 70 176q8 5 15 5q17 0 25 -16l2 -3q13 7 28 7q61 0 61 -113q-2 -75 -34 -125q-42 -64 -90 -64zM200 917q19 0 42 37t23 85q0 33 -6 44q-23 -13 -35 -58q-3 -14 -14 -21q-6 -4 -14 -4q-6 0 -13 3l-1 -22q2 -64 18 -64zM155 -16
q-5 0 -9 1q-21 7 -21 33l1 9q95 366 196.5 594t293.5 541q10 15 24 15q9 0 18 -7q12 -10 12 -27q0 -10 -5 -20q-190 -309 -289 -532t-193 -583q-7 -24 -28 -24zM468 64q-34 0 -58 38q-19 33 -19 95q0 124 70 176q8 5 15 5q17 0 25 -16l2 -3q13 7 28 7q61 0 61 -113
q-2 -75 -34 -125q-42 -64 -90 -64zM468 132q19 0 42 37t23 85q0 33 -6 44q-23 -13 -35 -58q-3 -14 -14 -21q-6 -4 -14 -4q-6 0 -13 3l-1 -22q2 -64 18 -64z" />
    <glyph glyph-name="ampersand" unicode="&#x26;" horiz-adv-x="865" 
d="M626 -254q-4 0 -9 1q-101 44 -162 217l-10 -8q-109 -92 -222 -151.5t-199 -59.5q-67 3 -67 70q0 89 196 373l208 293q-3 60 -3 103q0 101 26.5 216t80.5 210q101 172 253 172q79 0 79 -80q0 -57 -54 -157.5t-139 -225.5l-182 -259q11 -184 60 -384q164 157 213 304
q9 23 29 23q4 0 9 -2q20 -9 20 -30q0 -6 -2 -12q-49 -163 -248 -352q55 -161 134 -196q20 -8 20 -31q0 -6 -2 -12q-8 -22 -29 -22zM24 -186q77 0 180 55q116 62 229 162q-49 177 -64 355l-172 -242.5t-130.5 -202t-50.5 -125.5q0 -2 8 -2zM418 560q204 286 275 417
q44 84 44 127q0 10 -19 10q-65 0 -116 -39t-88 -103q-48 -86 -72.5 -190.5t-24.5 -197.5z" />
    <glyph glyph-name="quotesingle" unicode="'" horiz-adv-x="212" 
d="M79 906h-5q-24 7 -24 33v6q14 101 26.5 202t26.5 202q6 29 29 29q16 0 25 -14q5 -8 5 -22l-27 -205.5l-27 -202.5q-4 -28 -29 -28z" />
    <glyph glyph-name="parenleft" unicode="(" horiz-adv-x="490" 
d="M466 -254q-15 0 -70 42q-258 208 -258 608q0 219 69 456q84 294 226 535q9 16 24 16q9 0 17 -7q13 -10 13 -26q0 -10 -5 -20q-139 -237 -219 -517q-66 -230 -66 -436q0 -410 283 -588q16 -9 16 -30q0 -8 -4 -16q-9 -17 -26 -17z" />
    <glyph glyph-name="parenright" unicode=")" horiz-adv-x="477" 
d="M32 -254q-17 0 -26 17q-4 8 -4 16q0 21 16 30q282 178 282 588q0 206 -65 436q-80 280 -219 517q-6 10 -6 20q0 16 14 26q8 7 17 7q15 0 24 -16q142 -241 226 -535q69 -237 69 -456q0 -400 -258 -608q-55 -42 -70 -42z" />
    <glyph glyph-name="asterisk" unicode="*" horiz-adv-x="549" 
d="M322 1154q71 -71 160 -180q8 -9 8 -21q0 -15 -9 -25.5t-21 -10.5t-21 10q-80 98 -143 163q-2 -27 -2 -52q0 -70 9 -149q0 -32 -26 -36h-5q-9 0 -17.5 7.5t-10.5 21.5q-10 82 -10 154v23q-64 -76 -123 -170q-8 -11 -19 -14h-5q-9 0 -17 6q-12 12 -12 29q0 10 5 18
q80 128 168 222q-67 56 -166 118q-15 10 -15 29q0 9 4 17q9 18 26 18q7 0 14 -5q90 -56 155 -108q8 53 20 113q6 27 28 27q31 -3 31 -32l-1 -9q-9 -44 -15 -84l115 110l23 22q8 8 18 8q15 0 23 -11t8 -23q0 -14 -11 -25.5t-23 -22.5q-76 -69 -143 -138z" />
    <glyph glyph-name="plus" unicode="+" horiz-adv-x="734" 
d="M380 640q-4 -41 -7 -76q-15 -177 -15 -302q0 -15 -8.5 -24.5t-20.5 -10.5q-30 3 -30 36q0 147 22 372q-119 -10 -274 -30l-12 -1q-35 0 -35 35q0 28 41 33q161 22 288 32q18 163 46 363q4 29 28 29q30 -3 30 -33v-7q-29 -202 -45 -347q81 5 146 5q57 0 90 -6
q60 -9 60 -44q0 -34 -39 -58q-7 -3 -14 -3q-17 0 -26 18q-4 8 -4 16l1 6q-25 3 -62 3q-68 0 -160 -6z" />
    <glyph glyph-name="comma" unicode="," horiz-adv-x="374" 
d="M110 -259q-18 0 -26 17q-4 8 -4 17q0 20 15 29q49 34 84 100l4 7q-15 12 -15 37q0 34 18 79q20 52 51 52q19 0 30 -19q7 -13 7 -28q0 -80 -43.5 -162t-106.5 -125q-7 -4 -14 -4z" />
    <glyph glyph-name="hyphen" unicode="-" horiz-adv-x="542" 
d="M83 342h-8q-15 0 -27 7q-18 9 -18 27q0 26 37 32q160 24 269 24q134 0 151 -17q11 -8 11 -21q0 -16 -13.5 -25.5t-31.5 -9.5q-64 5 -116 5q-108 0 -254 -22z" />
    <glyph glyph-name="hyphen" unicode="&#xad;" horiz-adv-x="542" 
d="M83 342h-8q-15 0 -27 7q-18 9 -18 27q0 26 37 32q160 24 269 24q134 0 151 -17q11 -8 11 -21q0 -16 -13.5 -25.5t-31.5 -9.5q-64 5 -116 5q-108 0 -254 -22z" />
    <glyph glyph-name="period" unicode="." horiz-adv-x="304" 
d="M142 -80q-42 0 -42 59q3 27 16 45q-7 10 -7 22q2 33 31 33q64 -5 64 -70q0 -43 -29 -73q-16 -16 -33 -16z" />
    <glyph glyph-name="slash" unicode="/" horiz-adv-x="484" 
d="M102 -16l-9 1q-21 7 -21 32q0 5 2 10q94 366 195.5 594t294.5 541q9 15 23 15q9 0 18 -7q12 -10 12 -27q0 -10 -5 -20q-190 -309 -289 -532t-193 -583q-7 -24 -28 -24z" />
    <glyph glyph-name="zero" unicode="0" horiz-adv-x="976" 
d="M458 -255q-125 0 -220 181q-50 96 -77 209t-27 202q0 146 30 287t79.5 266.5t110.5 225.5q80 134 163 205q73 63 135 63q53 0 88 -47q7 -10 7 -22q0 -15 -10 -24t-21 -9q-12 0 -22 12q-16 23 -43 23q-19 0 -42 -11q4 -2 7 -5q213 -228 213 -760q0 -297 -109 -549
q-50 -113 -117 -180t-145 -67zM458 -187q59 0 113 57t96 152q102 237 102 519q0 503 -193 710q-10 11 -10 25v2q-74 -53 -163 -200q-58 -95 -105 -214q-105 -263 -105 -527q0 -81 25 -184.5t71 -191.5q77 -148 169 -148z" />
    <glyph glyph-name="one" unicode="1" horiz-adv-x="480" 
d="M232 -254q-12 0 -20.5 8t-9.5 23q-13 193 -13 386q0 500 88 1070q-35 -50 -102 -112q-9 -8 -20 -8q-12 0 -20.5 11.5t-8.5 22.5q0 16 11 26q56 53 88 95q9 12 81 120q8 14 24 14q9 0 17 -6q13 -12 13 -27l-1 -7q-111 -634 -111 -1199q0 -191 13 -381q0 -14 -7.5 -24.5
t-21.5 -11.5z" />
    <glyph glyph-name="two" unicode="2" horiz-adv-x="958" 
d="M453 -255q-130 0 -218 33q-93 38 -93 117q3 35 37.5 93.5t89.5 140.5q79 117 172 273q224 376 241 688q0 94 -38 170q-35 67 -106 75q-135 0 -236 -105q-111 -116 -162 -306q-7 -24 -28 -24q-4 0 -9 2q-21 9 -21 32l1 10q59 210 179 336q118 122 270 122q56 0 99 -31
q110 -82 110 -284q-10 -190 -81 -374q-112 -288 -344 -624q-106 -155 -115 -194l1 -2q0 -31 53 -51q80 -29 198 -29q90 0 173.5 15t146 32t91.5 27q4 1 9 1q7 0 16 -5q13 -8 13 -28q0 -26 -22 -33q-228 -77 -427 -77z" />
    <glyph glyph-name="three" unicode="3" horiz-adv-x="923" 
d="M142 -255q-12 0 -21 10t-9 24t9 24t21 10q83 0 181.5 48t183.5 128q74 70 121 154.5t51 174.5q0 86 -44.5 129.5t-109.5 61t-126 24.5q-67 7 -109.5 23t-42.5 64q4 54 70 118t159 137q110 84 201.5 172.5t98.5 164.5q0 48 -53 81q-66 42 -176 42q-65 0 -132 -21
q-94 -31 -260 -119q-30 -16 -36 -16q-18 0 -27 20q-3 7 -3 14q0 20 17 31l24 12q64 35 134 69q160 77 283 77q126 0 205 -50q84 -52 84 -139q0 -66 -53 -137q-76 -103 -273 -257q-83 -65 -142 -118t-62 -83q1 -4 100 -18q73 -8 150 -30t129.5 -79.5t52.5 -174.5
q-4 -106 -57 -203t-136 -176q-93 -87 -201.5 -139.5t-201.5 -52.5z" />
    <glyph glyph-name="four" unicode="4" horiz-adv-x="988" 
d="M467 295q-65 -18 -129 -34q-135 -34 -218 -34q-112 0 -112 78q0 170 572 991l63 93q10 13 24 13q9 0 17 -7q12 -11 12 -25q0 -11 -6 -22l-64 -93q-203 -294 -344 -517q-214 -339 -214 -433q3 -10 52 -10q78 0 209 33q72 18 146 39l8 56q36 278 116 629q7 25 28 25
q30 -4 30 -33l-1 -9q-79 -345 -115 -622l-4 -29l62 18q125 36 229.5 62t161.5 26q12 -1 20.5 -10.5t8.5 -24.5q-1 -14 -9.5 -23.5t-21.5 -9.5q-51 0 -151.5 -25.5t-223.5 -60.5l-84 -24q-27 -240 -43 -535q-4 -31 -29 -31q-31 0 -31 36q16 282 41 513z" />
    <glyph glyph-name="five" unicode="5" horiz-adv-x="770" 
d="M354 1241l-45 -100q-90 -201 -90 -303q0 -42 33 -93.5t78 -109.5q41 -54 80.5 -113.5t65.5 -125.5t26 -139q0 -198 -161 -348q-82 -77 -181.5 -120.5t-190.5 -43.5q-12 0 -21 10t-9 24t9 24t21 10q81 0 170.5 39t163.5 109q140 131 140 296q0 61 -24 119t-60 111.5
t-74 103.5q-51 65 -88 125.5t-37 121.5q0 70 28 156q27 85 83 211l-42 -20q-6 -2 -11 -2q-19 0 -27 21q-2 7 -2 13q0 22 18 31l106 48l14 30l28.5 57t25.5 19q7 0 14 -4q16 -10 16 -30q0 -9 -14 -39q65 24 124 39q132 34 330 34q12 0 20.5 -9.5t8.5 -24.5q0 -14 -8.5 -23.5
t-20.5 -9.5q-191 0 -317 -34q-83 -21 -180 -60z" />
    <glyph glyph-name="six" unicode="6" horiz-adv-x="780" 
d="M380 -255q-54 0 -104 35q-58 41 -93 133q-35 87 -35 224q0 144 48 347q-53 -33 -101 -92q-9 -11 -21 -11q-13 0 -21.5 9.5t-8.5 26.5q0 11 7 21q78 95 169 133q92 332 358 816q9 16 24 16q9 0 17 -6q14 -11 14 -27q0 -10 -5 -20q-245 -446 -339 -756q41 9 81 9
q124 0 213 -118q82 -112 82 -280q0 -100 -21 -179.5t-56 -137.5q-42 -70 -97 -106.5t-111 -36.5zM380 -187q42 0 84 29t75 84q67 110 67 279q0 144 -69.5 237t-166.5 93q-50 0 -103 -17q-60 -227 -60 -381q0 -123 30 -198q49 -126 143 -126z" />
    <glyph glyph-name="seven" unicode="7" horiz-adv-x="800" 
d="M135 -255l-7 1q-22 8 -22 34v7q44 185 156 438.5t233 500.5l161.5 343t66.5 193q0 30 -21 49q-28 24 -107 24q-128 0 -277 -85q-83 -47 -164 -101q-7 -4 -14 -4q-30 0 -30 33q0 20 15 30q85 56 172 106q154 88 298 88q97 0 139 -35q49 -38 49 -105q0 -59 -69 -213
l-167 -356q-120 -244 -230.5 -494t-152.5 -428q-3 -14 -14 -21q-7 -5 -15 -5z" />
    <glyph glyph-name="eight" unicode="8" horiz-adv-x="901" 
d="M444 -255q-115 0 -191 113q-67 105 -67 272q0 107 29 216q31 118 77 199q-106 203 -106 401q0 85 26 170.5t76 153.5q97 132 242 132q75 0 125 -32q101 -66 119 -209q5 -45 5 -92q0 -95 -21 -200q-64 -285 -178 -445q-9 -11 -22 -11q-11 0 -20.5 9t-9.5 25q0 11 7 21
q105 147 165 416q20 97 20 183q0 43 -5 83q-14 112 -87 161q-38 24 -98 24q-62 0 -111.5 -29.5t-85.5 -78.5q-43 -59 -65.5 -133.5t-22.5 -147.5q0 -170 88 -346q33 39 73 39q20 0 40 -13q14 -11 14 -27q0 -10 -5 -20q-9 -16 -25 -16q-8 0 -16 5q-4 3 -8 3q-12 0 -42 -30
q55 -94 113 -179q47 -70 87.5 -137t65.5 -134t25 -137q0 -95 -60 -151q-65 -58 -151 -58zM444 -187q66 0 112 41q39 35 39 100q0 59 -23 118.5t-60.5 121.5t-81.5 127q-52 77 -102 161q-36 -70 -59 -164.5t-23 -187.5q0 -148 55.5 -232.5t142.5 -84.5z" />
    <glyph glyph-name="nine" unicode="9" horiz-adv-x="796" 
d="M268 -255q-13 0 -21.5 10t-8.5 24t8.5 24t21.5 10q62 0 104.5 63t70 167.5t43.5 232.5t24 260.5t13 250.5q-45 -119 -91 -189q-74 -110 -165 -110q-74 0 -117 77q-39 76 -39 187q0 112 30 235t90 223q50 85 120 137q74 55 167 55q63 0 121 -54q51 -48 88 -152q2 -7 2 -13
q0 -21 -19 -31q-5 -2 -11 -2q-19 0 -27 21q-60 164 -156 164q-141 -3 -237 -163q-54 -92 -81.5 -204.5t-27.5 -215.5q0 -93 30 -151q24 -45 67 -45q94 0 172 183q60 142 95 309q7 25 28 25q31 -5 31 -36q-5 -76 -9 -186q-8 -270 -27 -468q-62 -638 -289 -638z" />
    <glyph glyph-name="colon" unicode=":" horiz-adv-x="231" 
d="M78 -80q-42 0 -42 59q3 27 16 45q-7 10 -7 22q2 33 31 33q64 -5 64 -70q0 -43 -29 -73q-16 -16 -33 -16zM78 343q-42 0 -42 59q3 27 16 45q-7 10 -7 22q2 33 31 33q64 -5 64 -70q0 -43 -29 -73q-16 -16 -33 -16z" />
    <glyph glyph-name="semicolon" unicode=";" horiz-adv-x="263" 
d="M100 343q-42 0 -42 59q3 27 16 45q-7 10 -7 22q2 33 31 33q64 -5 64 -70q0 -43 -29 -73q-16 -16 -33 -16zM-2 -259q-18 0 -26 17q-4 8 -4 17q0 20 15 29q49 34 84 100l4 7q-15 12 -15 37q0 34 18 79q20 52 51 52q19 0 30 -19q7 -13 7 -28q0 -80 -43.5 -162t-106.5 -125
q-7 -4 -14 -4z" />
    <glyph glyph-name="semicolon" unicode="&#x37e;" horiz-adv-x="263" 
d="M100 343q-42 0 -42 59q3 27 16 45q-7 10 -7 22q2 33 31 33q64 -5 64 -70q0 -43 -29 -73q-16 -16 -33 -16zM-2 -259q-18 0 -26 17q-4 8 -4 17q0 20 15 29q49 34 84 100l4 7q-15 12 -15 37q0 34 18 79q20 52 51 52q19 0 30 -19q7 -13 7 -28q0 -80 -43.5 -162t-106.5 -125
q-7 -4 -14 -4z" />
    <glyph glyph-name="less" unicode="&#x3c;" horiz-adv-x="665" 
d="M446 333q-22 0 -29 23q-15 40 -75 49q-53 9 -124 9q-38 0 -62 2t-40 13t-16 36q0 76 304 179q120 41 132 41q29 0 29 -35q0 -24 -23 -32q-32 -8 -121 -38.5t-173 -67.5q-89 -41 -89 -47q0 -4 3 -4q4 0 13.5 5t21.5 10t42 5q41 0 89 -5t89 -27t57 -72l1 -10q0 -8 -4 -18
q-8 -16 -25 -16z" />
    <glyph glyph-name="equal" unicode="=" horiz-adv-x="767" 
d="M606 499q-28 0 -42 23l-6 1q-67 19 -187 19q-95 0 -215 -24h-12q-12 0 -25 5q-19 8 -19 27q0 28 33 34q134 26 242 26q125 0 208.5 -21t83.5 -51q0 -14 -20 -29q-15 -10 -41 -10zM162 342h-9q-14 0 -26 7q-18 9 -18 27q0 26 36 32q160 24 269 24q135 0 152 -17
q10 -8 10 -21q0 -16 -13.5 -25.5t-30.5 -9.5q-64 5 -117 5q-108 0 -253 -22z" />
    <glyph glyph-name="greater" unicode="&#x3e;" horiz-adv-x="665" 
d="M219 685q22 0 29 -23q15 -40 75 -49q53 -9 124 -9q38 0 62 -2t40 -13t16 -36q0 -76 -304 -179q-120 -41 -132 -41q-29 0 -29 35q0 24 23 32q32 8 121 38.5t173 67.5q89 41 89 47q0 4 -3 4q-4 0 -13.5 -5t-21.5 -10t-42 -5q-41 0 -89 5t-89 27t-57 72l-1 10q0 8 4 18
q8 16 25 16z" />
    <glyph glyph-name="question" unicode="?" horiz-adv-x="511" 
d="M221 -80q-42 0 -42 59q3 27 16 45q-7 10 -7 22q2 33 31 33q64 -5 64 -70q0 -43 -29 -73q-16 -16 -33 -16zM225 253q-29 0 -43 30q-10 21 -10 53q0 67 53 179l55 108q230 430 230 563q0 45 -21 69q-26 29 -70 29q-122 -9 -226 -179q-102 -176 -102 -313q0 -45 -28 -48
q-29 0 -31 33q0 93 30 187.5t82.5 180.5t122.5 144q77 63 160 63q60 0 105 -51q38 -42 38 -115q0 -17 -3 -35q-18 -112 -88 -264.5t-148 -298.5l-55 -107q-45 -95 -45 -146l1 -9q5 3 11 3q4 0 11 -2.5t12.5 -12t5.5 -19.5q0 -18 -12 -28q-19 -14 -35 -14z" />
    <glyph glyph-name="at" unicode="@" horiz-adv-x="1420" 
d="M571 -513q-160 0 -279 116q-172 179 -172 519q0 204 69 397q55 155 146 272.5t214.5 184.5t273.5 67q91 0 167 -59q89 -75 128 -198q44 -139 44 -293q0 -204 -71 -351q-66 -135 -170 -135q-28 0 -53 16q-78 57 -78 259v19q-16 -33 -35 -68q-9 -27 -74 -127
q-86 -132 -147 -132q-30 0 -48 21q-30 34 -30 106q0 125 64.5 259t141.5 134q70 0 90 -139q37 77 54 117q5 21 26 21q7 0 14 -4q14 -9 14 -28v-5q-13 -96 -13 -185q0 -43 6 -88.5t21.5 -78t46.5 -32.5q76 0 127 114q58 132 58 310q0 193 -69 334q-73 148 -214 148
q-233 0 -407 -184q-115 -129 -175 -300q-64 -181 -64 -373q0 -312 153 -470q102 -99 237 -100q183 0 362 126q221 153 385 439q9 14 23 14q8 0 16 -5q13 -10 13 -28q0 -9 -5 -17q-168 -294 -403 -459q-193 -134 -387 -134zM534 42q19 0 46 30q56 61 122 186q-1 87 -16 134
q-11 34 -24 34q-39 0 -75.5 -63.5t-57.5 -144.5q-17 -64 -17 -112q0 -64 22 -64z" />
    <glyph glyph-name="A" unicode="A" horiz-adv-x="1301" 
d="M541 412q99 11 255 11q92 0 163 -6q63 430 80 561q19 148 19 252q0 105 -39 105q-62 0 -151 -126.5t-192 -390.5q-70 -180 -135 -406zM863 -710q-13 0 -20.5 10t-7.5 23q42 493 115 1028q-68 5 -158 5q-138 0 -271 -15q-95 -349 -177 -802q-5 -27 -27 -27q-17 0 -25 14
q-1 3 -1 10q76 451 167 797q-73 -11 -146 -26q-181 -38 -322 -113q-7 -4 -13 -4q-18 0 -27 19q-3 7 -3 14q0 22 17 31q146 79 333 119q99 20 181 32q68 247 144 441q111 284 215 420t182 136q53 0 76 -47t23 -140q0 -95 -19.5 -244t-50.5 -353q-16 -105 -30 -208
q61 -9 104 -24q61 -22 61 -62q0 -44 -62 -71q-5 -2 -10 -2q-20 0 -28 22q-2 6 -2 12q0 22 17.5 29t22.5 10.5t5 7.5q-7 -7 -14 -7q-59 15 -103 20q-72 -526 -116 -1025q-3 -30 -30 -30z" />
    <glyph glyph-name="B" unicode="B" horiz-adv-x="1439" 
d="M549 23q-23 -170 -44 -349l-15 -117q-4 -29 -31 -29q-13 0 -20.5 11.5t-7.5 23.5l8 63q23 203 49 388q-25 -2 -48 -2q-79 0 -79 51q0 75 145 85q30 206 62 388q45 264 124 548q-181 -89 -313 -218q-186 -180 -186 -360q0 -56 37 -105q29 -40 88 -54q24 -6 24 -33
q0 -19 -10 -26.5t-19 -7.5h-5q-123 29 -161 151q-13 40 -13 75q0 205 198 401q161 160 384 261q30 105 65 212q6 22 27 22q19 0 26 -17q4 -10 4 -17q0 -5 -2 -11l-50 -159q182 69 331 69q183 0 265 -107q48 -63 48 -169q0 -119 -40.5 -233t-110 -217.5t-160.5 -191.5
q-145 -142 -314 -231q190 -63 190 -286q0 -229 -203 -378q-118 -84 -259 -124t-253 -40q-13 0 -21.5 9.5t-8.5 24.5q0 14 8.5 23.5t21.5 9.5q105 0 237 37.5t243 116.5q175 128 175 321q0 157 -123 212q-48 21 -103 29q-84 -35 -160 -50zM763 1116q-88 -308 -137 -595
q-32 -180 -59 -371q63 -1 136 -8q201 87 378 258q84 83 149 178.5t103 200t38 212.5q0 149 -135 193q-53 16 -118 16q-145 0 -332 -74z" />
    <glyph glyph-name="C" unicode="C" horiz-adv-x="1136" 
d="M546 -710q-179 0 -272 192q-90 186 -90 522q0 240 50.5 497.5t139.5 469.5q54 128 119 224.5t140 151.5t157 55q122 0 188 -117q66 -121 66 -307q0 -157 -41 -296q-46 -155 -113 -244q-9 -12 -22 -12q-11 0 -20.5 9.5t-9.5 24.5q0 12 7 22q60 79 102 221q38 128 38 275
q0 167 -57 270q-49 87 -138 87q-69 0 -133.5 -50.5t-122.5 -138.5t-107 -204q-86 -206 -135 -455.5t-49 -482.5q0 -317 83 -489q76 -158 220 -158q143 0 230 132q60 91 131 310q8 21 28 21q19 0 26 -17q4 -9 4 -16q0 -6 -8 -30q-32 -98 -64 -177t-77 -144.5t-110 -105.5
t-160 -40z" />
    <glyph glyph-name="D" unicode="D" horiz-adv-x="1543" 
d="M757 1099q-85 -299 -133 -578q-65 -381 -135 -964q-4 -29 -31 -29q-13 0 -20.5 11.5t-7.5 23.5l8 63q59 510 128 910q45 259 121 536l-10 -4q-129 -57 -239 -146.5t-178 -197.5t-68 -218q0 -55 36 -105q30 -40 89 -54q24 -6 24 -33q0 -19 -10 -26.5t-19 -7.5h-5
q-126 29 -162 151q-12 40 -12 75q0 124 73.5 245t191.5 219.5t258 161.5q27 12 54 22q32 111 69 226q8 22 28 22q19 0 26 -17q4 -10 4 -17q0 -5 -2 -11q-30 -91 -56 -180q102 29 198 29q195 0 309 -127q117 -131 117 -387q0 -226 -101.5 -488.5t-276.5 -483.5
q-101 -126 -219.5 -222.5t-252 -152t-275.5 -55.5q-12 0 -20.5 9.5t-8.5 24.5q0 14 8.5 23.5t20.5 9.5q133 0 258.5 53t237.5 144.5t207 210.5q168 213 265.5 463t97.5 464q0 329 -207 416q-74 31 -161 31q-104 0 -219 -40z" />
    <glyph glyph-name="E" unicode="E" horiz-adv-x="1325" 
d="M388 -642q26 3 54 48q-49 -23 -54 -48zM385 -710q-56 0 -56 65q0 71 150 128q83 212 174 676q-97 -26 -160 -76q-8 -7 -18 -7q-13 0 -23 13q-6 10 -6 20q0 17 12 28q81 65 209 94q64 339 142 863q-287 -83 -458 -218q-182 -143 -182 -326q0 -54 38 -110q33 -47 100 -69
q22 -7 22 -33q0 -20 -13 -28q-9 -6 -17 -6l-7 1q-130 44 -169 167q-13 40 -13 78q0 210 192 367q195 160 518 249q23 163 31 208q4 28 29 28q16 0 22.5 -11.5t6.5 -21.5q0 -6 -26 -186q274 68 480 69q180 0 180 -67q0 -32 -43 -58q-8 -4 -15 -4q-16 0 -25 18q-4 8 -4 16
q0 26 27 35q2 0 2 1h-14q-43 -7 -108 -9q-150 -1 -371 -45q-62 -13 -120 -28q-69 -469 -146 -868q70 12 129 12q159 0 159 -73q0 -23 -19 -45q-9 -11 -20 -11q-31 0 -31 36q0 8 4 15h-3q-32 11 -88 11q-67 0 -145 -15q-84 -421 -174 -670q124 37 274 55q139 17 256 17
q135 0 203.5 -21.5t68.5 -69.5q0 -21 -16 -43q-10 -12 -23 -12q-10 0 -19.5 10t-9.5 26q0 9 5 18q-36 24 -201 24q-117 0 -258 -17q-180 -21 -310 -60q-66 -140 -123 -140z" />
    <glyph glyph-name="F" unicode="F" horiz-adv-x="1244" 
d="M538 -710q-14 0 -21 11.5t-7 24.5q2 19 3 31t4 30q0 10 0.5 13t1 9.5t2 18.5t3.5 32q37 359 82 689q-75 -25 -127 -66q-9 -7 -18 -7q-14 0 -24 13q-6 11 -6 22q0 15 12 26q72 57 173 85l30 203q49 319 135 664q-285 -87 -445 -213q-181 -142 -181 -326q0 -54 38 -110
q33 -47 100 -69q22 -7 22 -33q0 -20 -14 -28q-9 -6 -17 -6l-7 1q-130 44 -169 167q-13 40 -13 78q0 111 52 203q152 268 653 411l59 215q7 24 28 24q18 0 25 -17q5 -9 5 -17q0 -5 -2 -11l-48 -176q50 13 100 23q226 46 381 47q180 0 180 -67q0 -33 -43 -58q-7 -4 -14 -4
q-17 0 -26 18q-3 8 -3 16q0 22 26 35q2 0 2 1h-14q-43 -7 -107 -9q-150 -1 -372 -45q-64 -14 -130 -31q-92 -362 -143 -697l-26 -174q90 18 162 18q159 0 159 -74q0 -23 -18 -44q-9 -11 -21 -11t-21 9.5t-9 23.5q0 10 4 18h-4q-30 11 -88 11q-79 0 -174 -22
q-42 -306 -99 -847q-4 -29 -31 -29z" />
    <glyph glyph-name="G" unicode="G" horiz-adv-x="1058" 
d="M418 -710q-32 0 -65.5 18.5t-51.5 48.5q-4 10 -4 20q0 16 14 27q7 5 15 5q16 0 24.5 -14.5t26.5 -25.5q22 -12 39 -12q59 5 102.5 90t76.5 216.5t58 275.5q-134 -198 -266 -198q-190 7 -235 273q-14 79 -14 172q1 201 56 426t152 417q120 232 269 325q77 48 161 48
q96 0 151.5 -101.5t55.5 -254.5q0 -138 -25 -256q-26 -124 -70 -189q-10 -13 -23 -13q-10 0 -20 8.5t-10 24.5q0 12 6 22q36 53 59 163t23 240q0 134 -44 217q-40 72 -103 72q-137 0 -267 -164q-61 -76 -111 -176q-94 -184 -147 -400.5t-54 -408.5q0 -169 48 -278
q45 -96 142 -99q100 0 209 154q48 67 86 145q43 248 75 320q21 49 51 49q41 0 41 -56q0 -66 -48 -193q-25 -68 -62 -142l-2 -10q-28 -174 -67 -352q-92 -420 -252 -434z" />
    <glyph glyph-name="H" unicode="H" horiz-adv-x="1311" 
d="M847 -710q-14 0 -21.5 11.5t-7.5 23.5l15 135q48 471 110 892q-61 4 -137 4q-207 0 -404 -34q-54 -370 -96 -773q-4 -29 -29 -29q-15 0 -22.5 11t-7.5 24q42 398 93 755q-190 -39 -336 -117q-7 -3 -13 -3q-18 0 -27 19q-3 7 -3 14q0 22 17 31q155 83 373 126
q55 373 157 770q6 24 28 24q17 0 25 -15q5 -10 5 -17q0 -5 -2 -11q-96 -380 -152 -739q176 31 398 31q79 0 143 -5q69 456 214 961q8 24 29 24q18 0 25 -16q4 -10 4 -17q0 -6 -2 -12q-142 -496 -210 -945q185 -23 185 -89q0 -43 -62 -71q-5 -2 -11 -2q-29 0 -29 35
q0 22 19 30q25 12 25 16q-10 -10 -21 -10q-44 16 -116 24q-63 -421 -111 -894l-15 -133q-2 -14 -11 -21.5t-19 -7.5z" />
    <glyph glyph-name="I" unicode="I" horiz-adv-x="619" 
d="M194 -710q-14 0 -21 11.5t-7 24.5l14 134q53 512 122 964.5t213 954.5q7 24 28 24q18 0 25 -17q5 -9 5 -17q0 -5 -2 -11q-143 -497 -211.5 -947t-120.5 -959l-15 -133q-1 -14 -10 -21.5t-20 -7.5z" />
    <glyph glyph-name="J" unicode="J" horiz-adv-x="1177" 
d="M434 -710q-71 0 -117 73q-40 62 -40 164q0 116 65 237.5t167 224.5q154 154 326 218q59 329 59 621q0 239 -42 380q-38 122 -114 127q-8 0 -10 -1q-109 -9 -204 -109t-168 -245.5t-114.5 -290.5t-41.5 -245q0 -14 -8 -24t-20 -11q-29 0 -31 33q0 109 43.5 264t121.5 309
q79 158 186 268q116 119 245 119q118 0 170 -170q46 -154 46 -437q-4 -272 -54 -570q36 8 70 8q62 0 79 -35q5 -10 5 -19q0 -31 -35 -46q-5 -2 -9 -2q-25 0 -31 34q-48 0 -92 -12q-76 -404 -201 -641q-117 -222 -251 -222zM434 -643q105 0 207 201q109 217 180 573
q-143 -63 -272 -193q-94 -94 -153.5 -202.5t-59.5 -208.5q0 -122 62 -159q18 -11 36 -11z" />
    <glyph glyph-name="K" unicode="K" horiz-adv-x="1047" 
d="M946 -710q-141 0 -279 140q-95 96 -228 292q-85 130 -159 211q-24 -176 -48 -376q-4 -29 -31 -29q-13 0 -20.5 11.5t-7.5 23.5l8 63q19 165 39 318q-23 -2 -47 -2q-34 0 -57 11q-39 20 -39 53q0 52 55 60l35 3q34 0 68 -17q35 259 74 484q69 400 213 844q8 22 28 22
q19 0 26 -17q4 -10 4 -17q0 -5 -2 -11q-142 -439 -210 -836q-37 -216 -76 -497q213 52 361 276q117 182 182.5 406.5t87.5 430.5q2 14 10.5 21.5t17.5 7.5q16 0 23.5 -11t7.5 -24q-23 -216 -91 -449.5t-192 -422.5q-149 -225 -363 -294q73 -85 150 -201q127 -187 211 -274
q127 -133 249 -133q12 0 21 -9.5t9 -23.5q0 -15 -9 -24.5t-21 -9.5z" />
    <glyph glyph-name="L" unicode="L" horiz-adv-x="967" 
d="M62 -642q25 3 50 42q-46 -20 -50 -42zM59 -710q-56 0 -56 65q0 66 146 118q130 327 274 1231q56 350 84 553q11 76 18 117q6 28 29 28q16 0 22.5 -11.5t6.5 -21.5q0 -6 -17 -123q-188 -1297 -355 -1753q159 44 359 65q168 17 310 17q321 0 321 -93q0 -20 -15 -41
q-10 -12 -22 -12q-11 0 -20.5 9.5t-9.5 25.5q0 8 4 16q-46 27 -259 27q-139 0 -304 -17q-232 -23 -389 -65q-69 -135 -127 -135z" />
    <glyph glyph-name="M" unicode="M" horiz-adv-x="1485" 
d="M235 -710q-50 0 -58 122q-2 35 -2 80q0 207 44 518q62 427 173 735q36 391 52 578l5 49q1 14 9.5 22t19.5 8q13 0 21 -10.5t8 -22.5t-40 -448q129 255 282 255q104 0 126 -235q7 -78 7 -172q0 -68 -4 -146q39 95 84 168t96 115.5t107 42.5q71 0 97 -58t26 -152
q0 -102 -29 -305q-32 -231 -32 -350q0 -80 13 -143q20 -96 90 -126q21 -9 21 -31t-14 -30q-9 -5 -16 -5q-4 0 -9 2q-94 39 -119.5 133t-25.5 195q0 137 34 364q28 211 28 296q0 64 -13.5 103t-50.5 39q-60 0 -114.5 -65t-101.5 -172t-85 -238q-4 -36 -7 -73
q-34 -319 -84.5 -565.5t-61.5 -246.5q-39 0 -43 68q-2 18 -2 41q0 135 43 370q34 203 96 412q18 216 18 356q0 205 -30 294q-17 47 -44 47q-164 0 -300 -373q-90 -1446 -214 -1446zM235 -643q25 0 129 1094q-95 -392 -124 -792q-6 -96 -6 -166q0 -43 2 -84q0 -29 -2 -46
q0 -6 1 -6z" />
    <glyph glyph-name="N" unicode="N" horiz-adv-x="1105" 
d="M235 -710q-50 0 -58 122q-2 35 -2 80q0 207 44 518q62 427 173 735q36 391 52 578l5 49q1 14 9.5 22t19.5 8q13 0 21 -10.5t8 -22.5t-40 -448q129 255 283 255q73 0 115.5 -37t60.5 -103t18 -153q0 -151 -58 -466q-55 -307 -55 -431q0 -35 3 -65q9 -90 62 -116
q19 -8 19 -30q0 -35 -29 -35q-6 0 -11 2q-75 35 -88.5 113t-13.5 142q0 130 55 433q56 311 56 453q0 67 -12 117.5t-41.5 79.5t-80.5 29q-113 0 -214 -179q-47 -84 -87 -194q-90 -1446 -214 -1446zM235 -643q25 0 129 1094q-96 -403 -124 -792q-6 -96 -6 -166q0 -43 2 -86
q0 -28 -2 -42q0 -8 1 -8z" />
    <glyph glyph-name="O" unicode="O" horiz-adv-x="1153" 
d="M551 -643q61 0 118.5 107.5t105.5 281.5q120 463 120 925q0 323 -65 503q-60 161 -162 161q-84 0 -142 -133q-22 -52 -36 -114q53 43 116 58h6q27 0 30 -34q0 -25 -24 -33q-83 -20 -148 -101q-11 -85 -11 -164q0 -203 32.5 -343.5t78.5 -176.5q13 -12 13 -30q0 -9 -5 -17
q-9 -15 -24 -15q-8 0 -17 5q-64 51 -102 215q-36 151 -36 362q0 28 2 57q-84 -160 -124 -417q-28 -179 -28 -366q0 -336 89 -544q80 -187 213 -187zM551 -710q-170 0 -265.5 223.5t-95.5 574.5q0 193 29 379q55 356 195 542q35 245 140 347q48 46 114 46q143 0 216 -202
q70 -194 70 -529q0 -472 -123 -946q-35 -129 -79 -226.5t-94.5 -153t-106.5 -55.5z" />
    <glyph glyph-name="P" unicode="P" horiz-adv-x="1394" 
d="M537 75q83 21 160 54q167 72 295 185q142 125 222 273t80 287q0 98 -48 158q-84 103 -274 103q-117 0 -247 -41q-90 -354 -140 -683q-25 -164 -48 -336zM419 -710q-14 0 -21 11t-7 24l7 67.5l7 67.5q28 275 61 533q-63 -10 -129 -14q-12 0 -20.5 9t-8.5 26q0 12 7.5 21.5
t20.5 10.5q71 4 139 16q24 186 52 363q47 311 131 646q-206 -77 -349 -222q-157 -159 -157 -343q0 -56 37 -105q29 -40 88 -54q25 -6 25 -32q0 -35 -35 -35q-123 29 -161 151q-13 40 -13 75q0 208 168 383.5t416 260.5l63 229q7 24 28 24q18 0 25 -17q4 -9 4 -18l-1 -10
l-52 -188q120 33 230 33q217 0 319 -128q60 -76 60 -201q0 -154 -86 -316.5t-239 -296.5q-135 -119 -310 -195q-92 -39 -190 -61q-30 -229 -56 -471l-16 -158l-7 -57q-4 -29 -30 -29z" />
    <glyph glyph-name="Q" unicode="Q" horiz-adv-x="1169" 
d="M447 -414q108 0 199 160q56 99 88 207q-70 222 -171 250q-85 -151 -135 -151q-44 0 -44 55q0 72 64 131q34 32 85 36q120 252 139 473q1 19 1 39q0 175 -82 183q-116 0 -203 -125q-10 -73 -10 -142q0 -135 40 -231q4 -8 4 -16q0 -20 -17 -30q-7 -4 -13 -4q-17 0 -27 18
q-46 112 -46 279q-55 -129 -83 -288t-28 -314q0 -245 70 -397q62 -133 169 -133zM1136 -710q-138 0 -226 160q-60 109 -128 347l-18 61q-37 -99 -84.5 -175t-105.5 -120.5t-127 -44.5q-141 0 -220 167t-79 431q0 169 33 341q48 258 151 415q35 235 137 388q96 142 222 142
t190 -158q62 -150 62 -411q0 -115 -34.5 -372.5t-110.5 -507.5q21 -65 41 -134q61 -216 112 -316q75 -146 185 -146q13 0 21.5 -9.5t8.5 -23.5q0 -15 -8.5 -24.5t-21.5 -9.5zM764 49q62 230 90.5 455t28.5 329q0 246 -55 382q-49 120 -137 120q-44 0 -82 -24
q-135 -89 -198 -346q77 72 175 72q81 0 118 -83q29 -69 29 -168q0 -114 -36 -246q-40 -149 -102 -276q101 -38 169 -215zM450 136q16 17 36 50q-24 -22 -36 -50z" />
    <glyph glyph-name="R" unicode="R" horiz-adv-x="1356" 
d="M509 17q24 -11 49 -32q90 54 202 145.5t216 207.5q67 74 119.5 153.5t83.5 160.5t31 159q0 221 -163 280q-61 21 -134 21q-95 0 -200 -33q-80 -289 -126 -558q-42 -242 -78 -504zM438 -71l4 29q-17 -3 -26 -10q-10 -8 -10 -16v-1q5 -4 17 -4q7 0 15 2zM491 -121
q-13 -101 -25 -205l-15 -117q-2 -14 -11 -21.5t-19 -7.5q-14 0 -21.5 11.5t-7.5 23.5l37 296h-6q-32 0 -51 17q-26 23 -26 55q0 42 39 74q24 20 67 22q41 299 77 509q43 251 116 519q-8 -4 -16 -7q-125 -52 -232.5 -136.5t-175 -189t-67.5 -216.5q0 -56 37 -105
q29 -40 88 -54q24 -6 24 -33q0 -34 -29 -34h-5q-123 29 -161 151q-13 40 -13 75q0 127 73 244.5t189.5 211t251.5 150.5l58 23q35 121 75 245q8 22 27 22q30 0 30 -32q0 -6 -2 -13q-33 -102 -62 -202q93 25 180 25q204 0 299 -143q56 -84 56 -226q0 -166 -124 -354
q-130 -197 -337 -367q-109 -90 -204 -149q72 -78 152 -189q131 -177 220 -265q131 -130 241 -130q12 0 20.5 -9.5t8.5 -23.5q0 -15 -8.5 -24.5t-20.5 -9.5q-130 0 -270 137q-103 99 -236 281q-90 125 -163 200q-33 -18 -58 -29z" />
    <glyph glyph-name="S" unicode="S" horiz-adv-x="1102" 
d="M182 -710q-12 0 -21 9.5t-9 24.5q0 14 9 23.5t21 9.5q61 0 146.5 20t159.5 63q105 63 107 152q-3 64 -61.5 133t-137.5 141q-62 56 -118 115.5t-92 123t-36 134.5q0 216 124 475q57 119 129 227q135 201 281 331t241 130q113 -7 139 -168q7 -44 7 -88
q-1 -113 -32.5 -258.5t-81 -288.5t-106.5 -249t-109 -136q-6 -3 -12 -3q-20 0 -27 19q-3 7 -3 14q0 22 17 31q41 24 90.5 120.5t95.5 229.5q47 137 77.5 276t31.5 245q0 74 -23 137q-20 49 -64 52q-82 0 -215 -123t-260 -312q-148 -223 -209 -441q-32 -114 -32 -220
q0 -55 33 -109t84 -107t107 -105q88 -79 153 -159t68 -167q-2 -132 -138 -212q-81 -47 -174.5 -68.5t-159.5 -21.5z" />
    <glyph glyph-name="T" unicode="T" horiz-adv-x="1090" 
d="M534 -710q-14 0 -21 11t-7 24l7 67.5l7 67.5q53 512 122 965q46 304 127 631q-271 -75 -434 -194q-184 -134 -184 -312q0 -54 37 -110q34 -47 100 -69q22 -7 22 -33q0 -21 -13 -28q-9 -6 -17 -6l-7 1q-130 44 -169 167q-13 40 -13 78q0 108 53 196q150 252 644 385
q31 122 67 248q7 24 28 24q18 0 25 -17q4 -9 4 -18l-1 -10q-31 -106 -58 -210q70 16 140 29q251 43 430 43q116 0 174 -22q52 -20 52 -54q0 -31 -42 -56q-7 -4 -13 -4q-17 0 -26 18q-4 8 -4 16q0 20 16 30q7 4 11 4h-176q-172 0 -412 -42q-84 -15 -169 -36
q-86 -344 -134 -663q-69 -450 -121 -959l-15 -133q-4 -29 -30 -29z" />
    <glyph glyph-name="U" unicode="U" horiz-adv-x="1157" 
d="M824 -710q-21 0 -28 24q-48 182 -48 443q0 44 2 89q-145 -324 -308 -324q-152 0 -212 206q-37 127 -37 331q0 215 37 459q49 319 123 569t134 309q8 6 17 6q15 0 24 -13q6 -10 6 -20q0 -17 -12 -28q-52 -51 -119.5 -289t-113.5 -545q-37 -241 -37 -453q0 -464 190 -464
q169 0 317 436q30 354 91 654q73 350 129 465q2 21 21 28q4 2 9 2q32 0 32 -51q0 -99 -47 -379q-67 -401 -176 -722q-10 -136 -10 -266q0 -250 44 -424q2 -5 2 -10q0 -23 -21 -32q-4 -1 -9 -1zM858 375q64 275 101 530q-62 -267 -101 -530z" />
    <glyph glyph-name="V" unicode="V" horiz-adv-x="1214" 
d="M498 -710q-65 0 -112 55q-159 190 -159 840q0 324 41 609.5t104 368.5q9 10 20 10q12 0 21 -10t9 -27q0 -11 -8 -21q-55 -74 -91.5 -345.5t-36.5 -584.5q0 -262 34 -489q34 -214 107 -303q31 -36 71 -36q7 0 13 2q64 15 125.5 115.5t119 260.5t106.5 354
q75 301 119.5 608t44.5 516q0 89 -9 150v6q0 31 29 33q10 0 17 -6q23 -18 23 -183q0 -212 -45.5 -524.5t-121.5 -618.5q-114 -448 -249 -652q-85 -128 -172 -128z" />
    <glyph glyph-name="W" unicode="W" horiz-adv-x="1547" 
d="M400 -710q-56 0 -96 33q-120 99 -120 449q0 218 37 473q48 325 120 585.5t127 326.5q10 9 22 9q11 -1 19.5 -11.5t8.5 -23.5q-1 -14 -10 -24q-49 -59 -115.5 -308.5t-113.5 -564.5q-36 -244 -36 -451q0 -426 157 -426q85 0 172 223q74 190 128 457l-1 34q0 248 36 372
q20 71 42 71q39 0 39 -75q0 -106 -38 -311q-8 -47 -19 -97q5 -176 41 -296q44 -148 131 -148q117 0 211 209q51 113 87 262q75 328 75 660q0 199 -29 367t-90 263q-5 9 -5 19q0 19 11 29q8 6 17 6q15 0 25 -13q66 -105 98 -283.5t32 -387.5q0 -340 -77 -678
q-84 -343 -223 -467q-61 -54 -132 -54q-63 0 -106 44t-70 117t-40 163q-59 -232 -136 -383q-87 -170 -179 -170z" />
    <glyph glyph-name="X" unicode="X" horiz-adv-x="1214" 
d="M1355 -710q-6 0 -13 3q-369 192 -769 957l-205 -427l-136 -283q-9 -16 -25 -16q-30 0 -30 34q0 8 4 17l134 280l223 463q-119 235 -209 464q-144 362 -177 555q0 36 30 40q24 0 28 -28q33 -187 174 -543q82 -207 188 -419l152 288q252 458 388 496q14 0 22 -6
q13 -9 13 -29q0 -26 -24 -32q-118 -34 -358 -480q-71 -130 -158 -306l129 -238q324 -564 630 -725q18 -11 18 -31q0 -7 -3 -14q-8 -20 -26 -20z" />
    <glyph glyph-name="Y" unicode="Y" horiz-adv-x="1138" 
d="M583 -710q-12 0 -21 9.5t-9 24.5q0 14 9 23.5t21 9.5q103 0 162 236q47 189 70 536q-123 -382 -293 -382q-261 0 -271 748v27q0 274 19 512q20 249 32 339q2 14 10.5 21.5t18.5 7.5q15 0 22.5 -11.5t7.5 -24.5q-12 -91 -31.5 -331.5t-19.5 -511.5q0 -138 13 -283
q24 -264 99 -369q40 -56 100 -56q101 0 186 190q71 162 122 425l7 206q9 351 34 460q15 69 47 69q36 0 40 -77l1 -40q0 -148 -30 -377q-16 -120 -40 -247q-15 -379 -48 -624q-70 -510 -258 -510z" />
    <glyph glyph-name="Z" unicode="Z" horiz-adv-x="1100" 
d="M232 -636q15 29 50 144q-53 -48 -53 -118q0 -15 3 -26zM225 -710q-30 0 -45 39q-10 25 -10 61q0 144 141 216l98 350q52 196 111 396q-131 -30 -201 -86q-8 -6 -17 -6q-16 0 -25 13q-5 9 -5 19q0 18 11 28q79 63 196 91l63 13l72 233q112 356 233 576q-55 -9 -116 -16
q-235 -29 -345 -64q-170 -55 -170 -166q0 -14 -9 -24t-21 -10t-21 10t-9 24q0 84 52 136.5t136 83.5t183 48t197 29t173 25q69 93 137 93q15 0 27.5 -12.5t12.5 -32.5q0 -45 -41.5 -70.5t-111.5 -40.5q-136 -204 -315 -813q42 5 79 5q154 0 154 -74q0 -22 -18 -44
q-9 -10 -23 -10q-10 0 -19 9.5t-9 23.5q0 9 4 17q-32 11 -92 11q-45 0 -96 -7l-121 -428l-85 -301q122 38 282 38q174 0 329 -38.5t205 -91.5q8 -10 8 -24q0 -13 -8 -24q-10 -9 -21 -9q-12 0 -21 10q-43 44 -185.5 76.5t-306.5 32.5q-189 0 -306 -51q-82 -264 -131 -264z
" />
    <glyph glyph-name="bracketleft" unicode="[" horiz-adv-x="610" 
d="M476 -255q-141 0 -218 53.5t-110.5 146.5t-41.5 215q-5 95 -5 201v79h-1q0 47 3 230q9 547 30 663q11 52 65 63q40 9 116 9q27 0 58 -1.5t108 -1.5q12 0 21 -9.5t9 -24.5q0 -14 -9 -23.5t-21 -9.5q-114 0 -175 1q-45 0 -78.5 -2.5t-35.5 -17.5q-12 -56 -19 -279
q-12 -315 -12 -633q0 -132 5.5 -230t34 -181.5t93 -131.5t183.5 -48q12 0 20.5 -10t8.5 -24t-8.5 -24t-20.5 -10z" />
    <glyph glyph-name="backslash" unicode="\" horiz-adv-x="689" 
d="M587 -16q-21 0 -28 24q-94 360 -193 583t-289 532q-5 10 -5 20q0 17 12 27q9 7 18 7q14 0 23 -15q193 -313 294.5 -541t195.5 -594q2 -5 2 -10q0 -25 -21 -32z" />
    <glyph glyph-name="bracketright" unicode="]" horiz-adv-x="610" 
d="M134 -255q-12 0 -20.5 10t-8.5 24t8.5 24t20.5 10q119 0 183.5 48t93 131.5t34 181.5t5.5 230q0 318 -12 633q-7 223 -19 279q-2 15 -35.5 17.5t-78.5 2.5q-61 -1 -175 -1q-12 0 -21 9.5t-9 23.5q0 15 9 24.5t21 9.5q77 0 108 1.5t58 1.5q76 0 116 -9q54 -11 65 -63
q21 -116 30 -663q3 -183 3 -230h-1v-79q0 -106 -5 -201q-8 -122 -41.5 -215t-110.5 -146.5t-218 -53.5z" />
    <glyph glyph-name="asciicircum" unicode="^" horiz-adv-x="508" 
d="M130 872h-8q-22 8 -22 32l1 9q36 170 96 345q48 144 95 144q23 0 32.5 -18.5t11.5 -50t2 -77.5q0 -70 7.5 -134.5t41.5 -81.5q21 -8 21 -32q-4 -34 -30 -34l-8 1q-44 18 -63 65t-23.5 107t-4.5 115q2 33 12 53q5 11 5 16q0 4 -4 4q-6 0 -40 -102q-58 -167 -94 -336
q-6 -25 -28 -25z" />
    <glyph glyph-name="underscore" unicode="_" horiz-adv-x="1105" 
d="M134 -294l-5 -1q-9 0 -19 8t-10 26q0 11 6 21q12 21 353 61q249 29 396 29q57 0 90 -5q60 -9 60 -44t-39 -58q-7 -4 -14 -4q-17 0 -26 19q-3 8 -3 16v6q-25 2 -61 2q-149 0 -396 -29q-211 -24 -332 -47z" />
    <glyph glyph-name="grave" unicode="`" horiz-adv-x="367" 
d="M234 560q-26 0 -54.5 42t-50.5 83q-16 28 -22.5 36.5t-6.5 18.5q0 14 8 22t18 8q13 0 22 -10.5t29 -46l40 -69.5q50 -10 50 -50q0 -7 -3 -14q-8 -20 -30 -20z" />
    <glyph glyph-name="a" unicode="a" horiz-adv-x="903" 
d="M55 43q53 0 178 217q-1 88 -17 135q-12 35 -26 35q-52 0 -103 -109q-56 -121 -56 -216q0 -62 24 -62zM540 -55q-108 0 -162.5 84.5t-54.5 230.5l1 39q-170 -324 -269 -324q-61 0 -78 78q-5 24 -5 52q0 59 21 135q40 145 117 220q38 37 80 37q75 0 95 -139q41 81 64 151
q6 19 25 19q13 0 22.5 -10t9.5 -24t-7 -50q-17 -94 -17 -184q0 -94 34 -170.5t124 -76.5q174 0 363 248q9 10 21 10q11 0 21 -10q8 -11 8 -24t-8 -24q-208 -268 -405 -268z" />
    <glyph glyph-name="b" unicode="b" horiz-adv-x="889" 
d="M96 -25q-11 0 -22 3q-77 26 -77 204q0 167 52 442q66 336 145 632t100 355q8 22 27 22q30 0 30 -35q0 -6 -2 -12q-21 -58 -99 -350.5t-143 -625.5q-51 -272 -51 -435q0 -132 40 -132q57 0 97 120q-95 76 -95 220q0 43 15 73q21 41 54 41q55 0 83 -56q25 -53 25 -127
q0 -58 -13 -120q82 -41 192 -41q123 0 240 31q135 36 201 81q7 5 16 5q16 0 25 -16q4 -9 4 -17q0 -20 -14 -30q-74 -50 -220 -89q-122 -32 -253 -32q-116 0 -208 43q-28 -83 -75 -125q-33 -29 -74 -29zM210 234q6 41 6 80q0 56 -17 92q-11 24 -31 24q-10 -22 -10 -47
q0 -94 52 -149z" />
    <glyph glyph-name="c" unicode="c" horiz-adv-x="797" 
d="M254 -27q-33 0 -64 4q-119 17 -170 139q-21 55 -21 134q0 101 32 170q40 77 105 77q49 0 82 -39.5t33 -97.5q-2 -35 -31 -35q-12 1 -20 10.5t-8 25.5q0 30 -15.5 48.5t-40.5 20.5q-32 0 -53 -44q-25 -43 -25 -136q0 -65 17 -107q36 -86 124 -99q26 -4 54 -4q76 0 164 28
q117 36 220.5 92t163.5 104q7 6 17 6q14 0 24 -13q6 -8 6 -21q0 -37 -185 -137q-109 -59 -230 -97q-95 -29 -179 -29z" />
    <glyph glyph-name="d" unicode="d" horiz-adv-x="919" 
d="M74 23q44 0 94 105q24 50 44 107q2 30 2 56q0 79 -14 115q-9 23 -15 24q-38 0 -74 -60q-72 -114 -72 -249q0 -98 35 -98zM522 -25q-156 0 -219 155q-18 45 -27 109l-8 -27q-87 -257 -194 -257q-53 0 -74.5 41.5t-21.5 123.5q0 59 20 133q38 139 111 209q36 35 80 35
q50 -4 72 -86l13.5 104.5t19.5 141.5q47 328 184 822q23 84 34 128q5 25 29 25q17 0 24 -15q5 -10 5 -19t-34 -136q-1 -1 -1 -3q-206 -729 -206 -1100q0 -316 193 -316q89 0 190 57q111 61 207 161q9 9 21 9q12 -1 20 -11t8 -21q0 -16 -10 -27q-101 -106 -220 -172
q-114 -64 -216 -64z" />
    <glyph glyph-name="e" unicode="e" horiz-adv-x="707" 
d="M109 254q52 0 72 77q7 27 7 52q0 17 -3 31q-4 23 -12 23q-40 0 -76 -55q-25 -39 -34 -89q5 -17 14 -25t18 -11t14 -3zM240 -25q-116 0 -178 71q-63 69 -63 203q0 95 51 173q53 82 123 82q55 0 70 -75q4 -22 4 -47q0 -36 -9 -70q-34 -126 -129 -126q-17 0 -47 14
q20 -157 178 -157q115 0 248 64q141 67 219 153q10 10 21 10q12 0 21 -10.5t9 -23.5t-9 -24q-86 -95 -239 -168q-144 -69 -270 -69z" />
    <glyph glyph-name="f" unicode="f" horiz-adv-x="760" 
d="M-38 -934q-13 0 -21.5 9.5t-8.5 23.5l-1 89q0 397 45 869q-45 6 -52 13q-10 12 -10 26q0 15 12 26q33 30 64 62q43 367 126 585q69 183 163 183q38 0 60 -48q16 -35 16 -90q0 -175 -112 -389q-74 -141 -197 -275l-4 -33q97 -12 186 -12q73 0 139 8q183 20 393 158
q7 4 15 4q17 0 26 -17q4 -8 4 -16q0 -18 -15 -30q-222 -145 -416 -167q-69 -8 -143 -8q-94 0 -196 13q-45 -467 -45 -862q0 -54 1 -88q0 -15 -8.5 -24.5t-20.5 -9.5zM61 263q79 97 131 196.5t78 190.5t26 164q0 38 -10 60q-5 10 -7 10q-67 0 -122 -166q-56 -170 -96 -455z
" />
    <glyph glyph-name="g" unicode="g" horiz-adv-x="861" 
d="M55 43q56 0 177 217q0 88 -16 135q-12 35 -26 35q-52 0 -104 -109q-55 -117 -55 -219q0 -59 24 -59zM72 -1156q-8 0 -17 3q-53 22 -53 151q0 386 243 689q53 365 80 616q-169 -328 -270 -328q-83 0 -83 130q0 59 21 135q40 145 116 220q39 37 81 37q75 0 95 -139
q40 79 57 119q8 21 27 21q30 0 30 -36q0 -58 -78 -689q94 97 214 185q75 54 157 123t169 180q9 11 22 11q11 0 20 -9.5t9 -25.5q0 -11 -8 -21q-90 -116 -175 -182.5l-162 -122.5q-152 -111 -258 -238q-107 -829 -237 -829zM73 -1088q60 19 154 651q-166 -255 -166 -565
q0 -69 12 -86z" />
    <glyph glyph-name="h" unicode="h" horiz-adv-x="950" 
d="M-1 -239q-30 0 -30 38q0 65 19 316q61 820 261 1494q7 24 27 24q18 0 25 -17q4 -10 4 -17q0 -5 -2 -11q-179 -612 -248 -1373l22 74q77 248 164 248q31 0 44 -25q18 -36 18 -179q0 -111 21 -161q54 -129 245 -129q122 0 211.5 50t169.5 163q10 14 22 14q10 0 20 -9
t10 -24q0 -12 -6 -22q-88 -126 -189.5 -183t-237.5 -57q-322 0 -322 326v33q0 136 -19 136q-47 0 -110 -232q-43 -161 -84 -415q-6 -39 -8 -45q-6 -17 -27 -17z" />
    <glyph glyph-name="i" unicode="i" horiz-adv-x="579" 
d="M216 -25q-88 0 -135 40t-64.5 105.5t-17.5 139.5q0 70 18 204q4 33 29 33q15 0 22.5 -11.5t7.5 -23.5q-18 -136 -18 -202q0 -217 158 -217q174 0 363 218q9 10 21 10q11 0 20.5 -10.5t9.5 -23.5t-9 -24q-206 -238 -405 -238zM117 636q-24 0 -33 23q-3 8 -3 17q0 45 54 58
q71 132 74 136q9 10 21 11q12 0 21 -9.5t10 -22.5q0 -14 -8.5 -26.5t-22.5 -41.5q-75 -145 -113 -145z" />
    <glyph glyph-name="j" unicode="j" horiz-adv-x="542" 
d="M54 636q-24 0 -33 23q-3 8 -3 17q0 45 54 58l42 80.5t32 55.5q9 10 21 11q11 0 20.5 -9.5t9.5 -26.5q0 -11 -12 -28q-35 -68 -54 -100q-47 -81 -77 -81zM-246 -1088q60 19 154 651q-166 -255 -166 -565q0 -69 12 -86zM11 364q9 79 9 100q0 14 8.5 23.5t21.5 9.5
q29 0 29 -37q0 -39 -25.5 -258l-51.5 -429q94 97 214 185q75 54 157 123t169 180q9 11 22 11q11 0 20 -9.5t9 -25.5q0 -11 -8 -21q-90 -116 -175 -182.5l-162 -122.5q-152 -111 -258 -238q-107 -829 -237 -829q-8 0 -17 3q-53 22 -53 151q0 386 243 689q36 248 55.5 410.5
t29.5 266.5z" />
    <glyph glyph-name="k" unicode="k" horiz-adv-x="969" 
d="M-2 -238q-29 0 -29 36q0 65 19 317q20 276 77 661q62 424 184 833q7 24 27 24q18 0 25 -17q4 -10 4 -17q0 -5 -2 -11q-197 -672 -258 -1492q76 248 175 365q47 56 105 56q52 0 68 -48q6 -17 6 -56q0 -40 -23 -91q-38 -85 -109 -139q28 -28 69 -61q97 -79 216 -79
q105 0 201 40q108 45 216 176q9 11 21 12q11 0 20.5 -9.5t9.5 -25.5q0 -12 -8 -22q-118 -144 -237 -195q-103 -43 -223 -43q-138 0 -246 87q-49 39 -103 93h-11v-1q-14 0 -25.5 11t-11.5 30t17 31q8 6 18 6q12 0 23 -6q32 13 62 48.5t49 76.5q17 37 17 62q0 27 -1.5 31.5
t-14.5 4.5q-71 0 -149 -174q-89 -199 -148 -485q-6 -29 -30 -29z" />
    <glyph glyph-name="l" unicode="l" horiz-adv-x="645" 
d="M249 -25q-71 0 -128.5 35.5t-91 119.5t-33.5 229q0 369 209 1120q23 84 33 128q7 25 29 25q18 0 25 -15q5 -10 5 -19q0 -5 -35 -137q-207 -751 -207 -1102q0 -316 194 -316q88 0 190 57q111 61 206 161q9 9 21 9q12 -1 20 -11t8 -21q0 -17 -9 -27q-102 -106 -221 -172
q-114 -64 -215 -64z" />
    <glyph glyph-name="m" unicode="m" horiz-adv-x="1074" 
d="M-3 -25q-14 0 -21.5 10t-7.5 24q13 202 77 464q8 24 28 24q17 0 25 -15q5 -10 5 -18q0 -5 -1 -9q-31 -127 -50 -240q74 174 155 284q45 58 85 58q48 0 48 -63q0 -37 -43 -190l-14 -52q40 65 80 112q50 57 100 59q45 -3 58.5 -47t17.5 -109q8 -98 29 -148q32 -76 113 -76
q94 0 200 61q115 64 192 156q9 11 21 11q11 0 20.5 -10t9.5 -23q0 -14 -8 -24q-85 -102 -209 -171q-118 -67 -226 -67q-118 0 -161 96q-29 62 -40 188q-7 93 -18 95q-75 -5 -211 -297q-8 -17 -27 -17q-13 0 -20.5 10t-7.5 27q13 135 44 245q36 127 40 164q-64 -37 -193 -348
l-63 -145q-7 -19 -27 -19z" />
    <glyph glyph-name="n" unicode="n" horiz-adv-x="859" 
d="M1 -25q-33 0 -33 34q14 211 78 464q6 24 26 24q30 0 30 -33q0 -5 -1 -9q-34 -140 -53 -262l37 82.5t71 101.5t106 58q40 -1 55 -37.5t15 -108.5v-28q0 -72 16 -123q32 -95 139 -95q87 0 181 56q105 63 191 162q9 10 21 10q11 0 20 -10.5t9 -23.5q0 -14 -8 -24
q-93 -106 -207 -174q-106 -63 -207 -63q-199 0 -213 223q-4 54 -4 99q0 69 -19 69q-26 0 -59 -36.5t-63 -102.5q-37 -82 -65 -150q-24 -58 -38 -85q-9 -18 -25 -18z" />
    <glyph glyph-name="o" unicode="o" horiz-adv-x="758" 
d="M113 43q31 0 61 76q17 45 28 107q-65 66 -65 153q0 25 5 47q-38 -27 -58 -74q-28 -71 -28 -146q0 -73 22 -126q17 -37 35 -37zM212 320l1 26q-1 45 -8 75l1 9q-1 -1 -1 -2t-1 -3q-7 -18 -7 -46q0 -30 15 -59zM113 -25q-56 0 -87 75q-29 68 -29 156q0 89 34 177
q31 73 98 111q7 4 13 4q16 0 25 -18q15 17 39 17q66 -3 66 -151q0 -46 -5 -92q83 -72 228 -72q190 0 263 79q9 10 21 10q11 0 20 -10.5t9 -23.5q0 -14 -9 -24q-93 -98 -300 -98q-144 0 -244 68q-27 -123 -75 -176q-29 -32 -67 -32z" />
    <glyph glyph-name="p" unicode="p" horiz-adv-x="947" 
d="M-48 -1156q-19 0 -25 20q-5 13 -5 72q0 252 29 733q25 408 73 799q4 29 29 29q29 0 29 -34q-22 -184 -39 -372q93 436 243 436q39 0 55 -24t18 -56.5t2 -59.5q0 -49 -1 -70t-1 -45q0 -87 19 -136q35 -93 159 -93q103 0 219 63q124 67 191 153q9 12 23 12q10 0 19.5 -9.5
t9.5 -25.5q0 -11 -7 -21q-76 -97 -212 -170q-129 -69 -243 -69q-92 0 -141.5 32.5t-70.5 84t-23.5 99t-2.5 82.5l2 132q0 54 -15 54q-103 0 -190 -417q-94 -446 -113 -1137v-19.5t-1 -17.5q-6 -25 -30 -25z" />
    <glyph glyph-name="q" unicode="q" horiz-adv-x="899" 
d="M246 -1089q27 0 58 286q21 191 21 377q0 57 -2 105q-3 55 -3 99q-19 3 -27 16q-67 -465 -69 -742q0 -141 22 -141zM56 42q34 0 108 106q36 52 69 112q-1 88 -17 135q-11 34 -25 34q-52 0 -103 -109q-56 -118 -56 -218q0 -60 24 -60zM246 -1156q-82 0 -82 232
q0 350 141 1187q-153 -289 -249 -289q-83 0 -83 130q0 60 21 136q40 145 117 220q38 37 80 37q76 0 95 -140l56 116q6 24 28 24q13 0 21.5 -9.5t8.5 -23.5q0 -10 -2 -19q-37 -201 -98 -600q10 7 23 7q9 -1 17 -8q140 0 271 96q173 128 288 316q9 14 24 14q9 0 19 -8.5
t10 -25.5q0 -10 -5 -19q-122 -199 -304 -335q-133 -96 -272 -106q14 -66 14 -201q0 -191 -22 -386q-22 -209 -66 -298q-23 -47 -51 -47z" />
    <glyph glyph-name="r" unicode="r" horiz-adv-x="749" 
d="M22 -25q-29 0 -30 32v76q0 173 33 386q4 27 28 27q27 0 27 -30q0 -6 -13 -128q67 185 167 185q18 0 31 -11.5t18.5 -35t7.5 -69t13.5 -81t49.5 -63.5t121 -39q35 -5 69 -5q45 0 90 7q82 13 123 40q7 4 15 4q17 0 25 -17q4 -8 4 -16q0 -19 -15 -29q-51 -34 -144 -49
q-48 -7 -97 -7q-38 0 -77 5q-182 25 -218 138q-15 47 -17.5 105.5t-15.5 58.5q-45 0 -93 -130.5t-71 -318.5q-5 -35 -31 -35z" />
    <glyph glyph-name="s" unicode="s" horiz-adv-x="595" 
d="M-17 -246q-26 0 -45 19t-19 62q0 73 48.5 112.5t127.5 65.5q2 13 2 25q0 50 -17 85t-38 66q-27 38 -47.5 83t-20.5 114q0 43 19.5 77t58.5 34q26 0 46 -25q9 -10 9 -23q-1 -14 -9.5 -23.5t-19.5 -9.5q-18 0 -25 13l-1 1q-7 0 -11 -7q-8 -14 -8 -37q0 -52 17 -88.5
t39 -68.5q26 -37 46.5 -81t21.5 -115q167 54 289 126q94 54 152 105q8 6 17 6q15 0 22.5 -11t7.5 -22q0 -39 -173 -139q-90 -52 -194 -93q-30 -11 -131 -45q-11 -49 -32 -95q-50 -111 -132 -111zM-16 -178q56 0 94 113q-100 -40 -100 -101q0 -12 6 -12z" />
    <glyph glyph-name="t" unicode="t" horiz-adv-x="645" 
d="M73 954q-382 -10 -700 -63h-5q-9 0 -19 8t-10 26q0 27 25 33q322 54 724 64q85 390 119 390q30 -5 30 -33l-2 -10q-43 -155 -86 -346q57 1 116 1q198 0 351 -14q28 -4 28 -37q-2 -14 -10.5 -22.5t-19.5 -8.5q-158 14 -361 14q-60 0 -119 -1l-17 -82q-63 -317 -63 -514
q0 -120 26 -189t70 -98t98 -29q89 0 190 57q111 61 207 161q9 9 21 9q12 -1 20 -11.5t8 -23.5q-1 -14 -10 -24q-101 -106 -220 -172q-114 -64 -216 -64q-253 0 -253 384q0 209 64 529z" />
    <glyph glyph-name="u" unicode="u" horiz-adv-x="855" 
d="M465 -25q-199 0 -208 239q-93 -239 -171 -239q-93 0 -93 171q0 127 45 325q5 25 27 25q31 0 31 -31q0 -7 -5 -31q-39 -168 -39 -288q0 -103 34 -103q35 0 105 171q45 108 92 261q7 22 27 22q6 0 11 -2q19 -9 19 -30l-1 -6q-25 -135 -25 -221q0 -78 20 -119.5t54 -58.5
t77 -17q106 0 207 56t183 160q9 11 22 11q11 0 20 -10t9 -25q0 -11 -8 -21q-89 -114 -201.5 -176.5t-231.5 -62.5z" />
    <glyph glyph-name="v" unicode="v" horiz-adv-x="883" 
d="M99 -20l-19 1q-52 12 -67 97q-13 73 -13 157q0 261 46 261q25 0 25 -22q-11 -108 -11 -239q0 -78 11 -142q8 -46 22 -46q55 0 137 299q-22 61 -22 145q0 89 23 160q26 80 72 80q43 0 43 -78q0 -105 -54 -301q69 -156 299 -156q162 0 292 70q7 4 13 4q18 0 27 -20
q3 -7 3 -14q0 -21 -18 -31q-144 -77 -324 -77q-213 1 -316 142q-25 -79 -54.5 -146t-59 -105.5t-55.5 -38.5zM262 473q27 109 28 183q-28 -77 -28 -183z" />
    <glyph glyph-name="w" unicode="w" horiz-adv-x="1087" 
d="M467 482q25 98 25 165q-25 -69 -25 -165zM295 -25q-84 0 -97 166q-5 -9 -10 -16q-54 -80 -104 -80q-7 0 -14 2q-70 21 -70 185q0 124 24 239q5 25 26 25q31 0 31 -34l-1 -6q-21 -99 -21 -224q0 -53 9 -92q6 -25 16 -25q20 0 57 52t68 149q7 22 28 22q16 0 25 -15
q3 -5 3 -16q-9 -73 -9 -127q0 -64 14 -105q10 -30 23 -30q60 0 140 301q-22 61 -22 145q0 89 23 160q26 80 72 80q43 0 43 -78q0 -95 -53 -301q69 -156 299 -156q73 0 144 17q83 19 148 54q6 3 12 3q18 0 27 -20q3 -7 3 -14q0 -21 -17 -30q-146 -78 -325 -78
q-213 1 -316 142q-25 -79 -54.5 -146t-60.5 -108t-61 -41z" />
    <glyph glyph-name="x" unicode="x" horiz-adv-x="853" 
d="M-139 -240q-7 0 -14 4q-15 11 -15 30q0 8 4 17q103 197 215 361q-67 103 -134 278q-2 7 -2 13q0 21 17 32q6 3 12 3q19 0 27 -21q60 -156 119 -249q91 128 198 259q9 10 23 10q11 0 19.5 -9.5t9.5 -22.5q0 -14 -8 -25q-112 -135 -205 -266q102 -131 269 -131
q123 0 246 59t211 158q9 10 21 10q11 0 21 -10q8 -11 8 -24t-8 -24q-96 -108 -230 -172.5t-269 -64.5q-186 0 -306 145q-105 -155 -203 -344q-8 -16 -26 -16z" />
    <glyph glyph-name="y" unicode="y" horiz-adv-x="801" 
d="M13 -1088q60 19 154 651q-166 -255 -166 -565q0 -69 12 -86zM255 213q-95 -238 -170 -238q-93 0 -93 171q0 103 40 303l5 22q4 26 29 26q29 0 29 -38q-5 -20 -7 -31.5l-5 -27.5q-31 -156 -31 -254q0 -103 33 -103q38 0 105 171q44 106 90 256q5 27 30 27q30 0 30 -33
q0 -52 -36 -340q-10 -86 -43 -351q94 97 214 185q75 54 157 123t169 180q9 11 22 11q11 0 20 -9.5t9 -25.5q0 -11 -8 -21q-90 -116 -175 -182.5l-162 -122.5q-152 -111 -258 -238q-107 -829 -237 -829q-8 0 -17 3q-53 22 -53 151q0 386 243 689q20 136 37.5 267.5
t32.5 258.5z" />
    <glyph glyph-name="z" unicode="z" horiz-adv-x="672" 
d="M131 233q-16 -25 -30 -51q-21 -38 -21 -79q0 -61 93 -61q120 0 235 45q122 48 264 175q8 7 17 7q16 0 23.5 -11t7.5 -23q0 -16 -11 -26q-150 -134 -281 -186q-125 -49 -255 -49q-63 0 -107.5 30.5t-44.5 98.5q0 58 24 104q-13 -4 -27 -10q-5 -2 -10 -2q-6 0 -15 5
q-14 8 -14 30q0 24 21 31l99 34q24 33 41.5 65t17.5 64q-1 8 -20 14q-28 8 -62 8q-73 0 -114 -15q-6 -2 -11 -2q-6 0 -14 5q-15 8 -15 30q0 50 154 50q114 0 138 -65q4 -12 4 -25q0 -49 -22 -90q-7 -13 -15 -26h8q56 0 114 -25q19 -9 19 -30q0 -7 -2 -14q-8 -21 -28 -21
q-5 0 -10 2q-46 19 -92 19q-27 0 -59 -6z" />
    <glyph glyph-name="braceleft" unicode="{" horiz-adv-x="731" 
d="M600 -254q-154 23 -230 102t-104.5 184t-40.5 206q-8 62 -18.5 110t-31.5 71q-13 -2 -27 -2q-48 0 -48 44q6 40 40 42l4 -1q22 -1 40 -8q43 27 58.5 108t22.5 191q7 122 28.5 246.5t83.5 222t190 139.5l8 2q8 0 16 -6q13 -9 13 -29q0 -24 -22 -32q-189 -63 -233 -325
q-19 -113 -26 -226t-23.5 -203.5t-64.5 -134.5q32 -55 48 -198q11 -90 36 -183q59 -218 286 -253q12 -2 19 -11.5t7 -22.5q0 -16 -11 -26q-7 -7 -20 -7z" />
    <glyph glyph-name="bar" unicode="|" horiz-adv-x="533" 
d="M304 -254q-18 0 -27 17q-53 119 -68 318q-9 125 -9 262q0 265 32 616q38 424 52 436q9 8 18 8q16 0 24 -14q7 -8 7 -21l-3 -28q-70 -620 -70 -1010q0 -50 2 -216t67 -319q4 -7 4 -15q0 -19 -16 -31q-6 -3 -13 -3z" />
    <glyph glyph-name="braceright" unicode="}" horiz-adv-x="731" 
d="M131 -254q-13 0 -20 7q-11 10 -11 26q0 13 7 22.5t19 11.5q228 35 286 253q25 93 36 183q16 143 48 198q-48 44 -64.5 134.5t-23.5 203.5t-26 226q-44 262 -233 325q-22 8 -22 32q0 20 13 29q8 6 16 6l8 -2q128 -42 190 -139.5t83.5 -222t28.5 -246.5q7 -110 22.5 -191
t58.5 -108q18 7 40 8l4 1q34 -2 40 -42q0 -44 -48 -44q-14 0 -27 2q-21 -23 -31.5 -71t-18.5 -110q-12 -101 -40.5 -206t-104.5 -184t-230 -102z" />
    <glyph glyph-name="asciitilde" unicode="~" horiz-adv-x="627" 
d="M129 437q-13 0 -21 11.5t-8 21.5q0 18 11 28q82 70 127 87q23 8 40 8q38 0 70 -52q15 -23 35 -23q10 0 30 6t69 42q7 6 16 6q14 0 25 -16q5 -9 5 -18q0 -18 -14 -29q-86 -63 -138 -63q-40 0 -74 53q-12 22 -31 22q-35 0 -124 -77q-8 -7 -18 -7z" />
    <glyph glyph-name="exclamdown" unicode="&#xa1;" horiz-adv-x="387" 
d="M320 166q28 -2 28 -36q-12 -351 -40 -634.5t-103 -628.5q-6 -26 -29 -26q-30 4 -30 35l1 7q74 340 102 621.5t40 628.5q2 33 31 33zM306 498q32 0 39 -36q2 -8 2 -17q0 -27 -15 -51q6 -10 6 -22q0 -15 -9 -24t-21 -9q-65 5 -65 70q0 44 30 74q16 15 33 15z" />
    <glyph glyph-name="cent" unicode="&#xa2;" horiz-adv-x="976" 
d="M242 195q20 53 40 99q27 60 61 127q-11 8 -27 9q-32 0 -53 -44q-25 -43 -25 -136q0 -30 4 -55zM266 120q37 -65 113 -76q26 -4 54 -4q76 0 164 28q117 36 220.5 92t163.5 104q7 6 17 6q14 0 24 -13q6 -8 6 -21q0 -37 -185 -137q-109 -59 -230 -97q-95 -29 -179 -29
q-33 0 -64 4q-80 11 -129 70q-36 -110 -71 -244q-5 -20 -22 -20l-7 1q-17 6 -17 25q0 5 2 9q40 156 82 281q-4 8 -8 17q-21 55 -21 134q0 101 32 170q40 77 105 77q33 0 58 -18q62 114 144 247q7 12 18 12q7 0 14 -6q10 -8 10 -22q0 -8 -4 -15q-85 -137 -146 -253
q21 -35 21 -82q-2 -35 -31 -35q-12 1 -20 10.5t-8 25.5v7q-26 -51 -47 -98q-30 -67 -59 -150z" />
    <glyph glyph-name="sterling" unicode="&#xa3;" horiz-adv-x="713" 
d="M323 475q-1 -143 -2 -194q-3 -90 -24 -184q37 -1 79 -5q50 -6 102 -6q51 0 94 18q5 2 11 2q21 0 27 -22q3 -6 3 -13q0 -21 -19 -30q-53 -22 -127 -22q-49 0 -95.5 5t-95.5 5q-36 -94 -89 -102q-16 0 -28 8q-16 16 -16 39q0 12 5 27q25 75 86 90q24 88 28 205q2 67 2 136
v37q-48 -8 -125 -35q-5 -1 -9 -1q-7 0 -16 5q-14 8 -14 28q0 23 20 32q73 26 143 37l-1 95q0 67 2.5 153.5t21 172t62.5 136.5t126 51q116 0 116 -219q0 -54 -10 -134q-2 -14 -11.5 -21.5t-19.5 -7.5q-13 0 -22 14q-6 9 -6 25q9 68 9 121q0 28 -2 57q-7 97 -54 97
q-59 0 -91 -45q-58 -81 -60 -293v-195q20 1 39 1q59 0 94 -9q65 -13 65 -45q0 -14 -14 -30q-9 -10 -27 -12q-20 0 -29 19q-27 10 -86 10q-14 0 -42 -1z" />
    <glyph glyph-name="currency" unicode="&#xa4;" horiz-adv-x="591" 
d="M279 367q19 0 42 37t23 85q0 33 -6 44q-23 -13 -35 -58q-3 -14 -14 -21q-6 -4 -14 -4q-6 0 -13 3l-1 -22q2 -64 18 -64zM375 589l63 70q11 12 23 12q10 0 20 -9t10 -20q0 -21 -91 -111q3 -19 3 -43q-1 -52 -17 -93q46 -47 66 -94q2 -6 2 -12q0 -14 -11.5 -25.5
t-23.5 -11.5q-20 0 -26 17q-15 34 -44 67q-33 -37 -70 -37q-21 0 -38 14q-12 -15 -32 -35q-23 -23 -41 -37q-13 -7 -23 -7q-12 0 -21 12q-6 9 -6 18q0 12 12 23l4 5q11 7 24 20q31 30 51 55q-7 27 -7 65q0 39 7 71q-8 3 -16 11q-29 48 -54 78q-7 -2 -12 -2q-14 0 -20.5 9.5
t-6.5 18.5q0 21 15 34q10 11 23 11q20 0 45 -25q38 -38 54 -66q15 21 35 36q8 5 15 5q17 0 25 -16l2 -3q13 7 28 7q20 0 33 -12z" />
    <glyph glyph-name="yen" unicode="&#xa5;" horiz-adv-x="664" 
d="M305 601q6 7 22 51q69 251 114 392q19 93 46 93q28 -4 28 -33q0 -18 -14 -75q-43 -179 -108 -351q-7 -33 -13 -65q39 5 76 5q48 0 72 -9q36 -11 36 -32q0 -14 -12.5 -29.5t-30.5 -15.5q-17 0 -26 15q-14 3 -42 3q-42 0 -87 -6q-5 -27 -9 -51q59 9 133 15q12 0 21 -9
t10 -23q0 -14 -7.5 -24.5t-20.5 -11.5q-84 -6 -148 -18q-24 -138 -26 -206q0 -15 -9 -24t-21 -9q-13 0 -21 10t-8 24q3 66 23 192q-58 -13 -128 -35l-8 -1q-8 0 -16 6q-13 8 -13 29q0 24 22 31q86 27 155 42q4 24 9 51q-79 -19 -163 -57q-6 -3 -12 -3q-5 0 -14 4
q-15 8 -15 30t18 31q68 30 133 49q-54 129 -74 494l-1 15q0 14 8 25t22 12q27 0 30 -47q7 -132 22 -280q19 -196 43 -205q2 0 4 1z" />
    <glyph glyph-name="brokenbar" unicode="&#xa6;" horiz-adv-x="533" 
d="M241 681q-28 0 -28 33q0 28 19 245q38 424 52 436q8 8 18 8q15 0 24 -14q6 -8 6 -21l-2 -28q-39 -347 -57 -621q-3 -38 -32 -38zM303 -254q-17 0 -26 17q-53 119 -68 318q-9 125 -9 262q0 101 5 214q2 43 32 43q27 -1 27 -38q-5 -208 -5 -232q0 -50 2.5 -216t67.5 -319
q4 -7 4 -15q0 -19 -16 -31q-7 -3 -14 -3z" />
    <glyph glyph-name="section" unicode="&#xa7;" horiz-adv-x="785" 
d="M229 -94q-54 0 -87 49q-28 40 -40 86q-2 7 -2 13q0 7 4 16q7 17 26 17q20 0 27 -24q27 -89 72 -89q31 0 63 40q28 36 30 89q-2 106 -68 270q-27 70 -47.5 139t-20.5 142q0 75 35 145q44 85 129 85l6 1q14 0 27 -5l-1 30q0 76 45 151q50 82 139 82t119 -180l1 -7
q0 -10 -7 -21.5t-23 -11.5q-23 0 -29 27q-20 125 -63 125q-57 -1 -89.5 -55t-32.5 -110q0 -62 27 -149q62 -165 87 -248q21 -74 21 -151q-2 -80 -43 -133q-51 -64 -108 -64q-27 0 -51 11q6 -36 6 -73q-3 -80 -44 -133q-51 -64 -108 -64zM426 233q31 0 63 40q27 36 29 89
q-1 67 -21 135t-46 137q-22 54 -39 110q-17 40 -29 56t-30 16q-55 0 -81.5 -52.5t-26.5 -109.5q0 -63 19.5 -126t44.5 -128q18 -46 33 -92q12 -29 34.5 -52t49.5 -23z" />
    <glyph glyph-name="dieresis" unicode="&#xa8;" horiz-adv-x="462" 
d="M304 596q-38 0 -38 45q0 26 14 44q-6 8 -6 19q1 12 9 20t20 8q59 -5 59 -60q0 -16 -5 -30q-19 -46 -53 -46zM138 596q-38 0 -38 45q0 26 14 44q-6 8 -6 19q1 12 9 20t20 8q59 -5 59 -60q0 -16 -5 -30q-19 -46 -53 -46z" />
    <glyph glyph-name="copyright" unicode="&#xa9;" horiz-adv-x="766" 
d="M331 153q-58 0 -102.5 29t-75.5 75q-39 59 -57.5 130.5t-18.5 128.5q0 170 109 362q106 176 240 222q4 2 9 2q18 0 27 -22q40 31 106 31q69 0 105 -77q33 -72 33 -179q0 -114 -29 -248.5t-86 -246.5q-103 -207 -260 -207zM331 221q122 0 209 174q53 104 80 229t27 231
q0 90 -26 146q-19 42 -53 42q-45 0 -75 -22q-45 -34 -95 -134q-12 -25 -21 -40.5t-25 -15.5q-7 0 -15 4q-14 11 -14 31q0 8 4 16q13 24 20 39q26 52 55 97q-96 -58 -167 -178q-99 -173 -99 -324q0 -48 15.5 -108t48.5 -110q52 -77 131 -77zM345 354q-35 0 -55 26
q-34 42 -34 133q2 119 51 214q55 107 132 107q41 0 63.5 -42.5t22.5 -95.5q0 -12 -7.5 -22.5t-21.5 -10.5q-11 0 -19.5 8t-9.5 22q-4 41 -15 62q-6 11 -13 11q-39 0 -68 -47.5t-44 -111.5q-12 -55 -12 -97q0 -89 30 -89q22 0 31 26q9 21 27 21q5 0 12 -4q18 -9 18 -31
q0 -6 -2 -13q-26 -66 -86 -66z" />
    <glyph glyph-name="guillemotleft" unicode="&#xab;" horiz-adv-x="681" 
d="M321 542q8 0 15 -3q20 -10 20 -31q0 -6 -3 -12q-89 -153 -181 -285q60 -79 135 -168q7 -8 7 -18q0 -19 -19 -27h-8q-41 0 -175 182q-12 16 -12 32q0 15 10.5 29.5l20.5 27.5q54 72 164 258q9 15 26 15zM546 542q8 0 15 -3q20 -10 20 -31q0 -6 -3 -12q-89 -153 -181 -285
q60 -79 135 -168q7 -8 7 -18q0 -19 -19 -27h-8q-41 0 -175 182q-12 16 -12 32q0 15 10.5 29.5l20.5 27.5q54 72 164 258q9 15 26 15z" />
    <glyph glyph-name="logicalnot" unicode="&#xac;" horiz-adv-x="734" 
d="M611 304q-30 3 -30 36q0 104 6 190q2 31 2 53q0 39 -8 51t-41 12q-171 0 -493 -41l-12 -1q-35 0 -35 35q0 28 41 33q308 42 493 42q43 0 83 -20q31 -15 31 -96q0 -15 -4 -80t-4 -179q0 -15 -8.5 -24.5t-20.5 -10.5z" />
    <glyph glyph-name="registered" unicode="&#xae;" horiz-adv-x="830" 
d="M355 148q-59 0 -103.5 28.5t-75.5 74.5q-39 60 -57.5 131t-18.5 129q0 170 109 361q105 175 240 223l8 1q21 0 28 -22q40 31 106 31q70 0 105 -77q34 -72 34 -179q0 -114 -29.5 -248t-85.5 -246q-105 -207 -260 -207zM355 216q64 0 116.5 48t92.5 125q52 104 79 229
t27 231q0 91 -26 146q-19 42 -53 42q-45 0 -75 -22q-47 -35 -95 -134q-12 -25 -20.5 -40t-25.5 -15q-7 0 -15 4q-14 11 -14 30q0 9 4 17q53 102 75 135q-96 -57 -167 -178q-98 -173 -98 -323q0 -49 15 -109t48 -109q51 -77 132 -77zM394 474q-37 -113 -64 -113q-8 0 -15 4
q-15 11 -15 29q0 9 5 18q21 42 41 108l52 198q7 24 28 24q4 0 9 -2q21 -8 21 -32q-1 -11 -19 -77q-10 -43 -20 -79q25 16 48 47q51 69 51 121q0 19 -8.5 29.5t-41.5 10.5q-56 -2 -116 -58q-43 -39 -50 -84h9q31 0 33 -32q0 -15 -8 -25t-21 -10l-6 -1q-28 0 -44 13
q-23 18 -23 48q0 41 21 78q43 78 129 118q41 19 75 20q110 0 110 -107q0 -35 -18 -80q-36 -89 -96 -136q24 -27 60 -39q23 -5 23 -33q-2 -33 -30 -33h-5q-64 19 -107 76z" />
    <glyph glyph-name="macron" unicode="&#xaf;" horiz-adv-x="542" 
d="M83 754l-8 -1q-15 0 -27 7q-18 9 -18 27q0 27 37 33q160 23 269 23q134 0 151 -16q11 -9 11 -22q0 -16 -13.5 -25t-31.5 -9q-64 4 -116 4q-108 0 -254 -21z" />
    <glyph glyph-name="degree" unicode="&#xb0;" horiz-adv-x="424" 
d="M200 849q-34 0 -58 38q-19 33 -19 95q0 124 70 176q8 5 16 5q16 0 24 -16l2 -3q13 7 28 7q61 0 61 -113q-2 -75 -34 -125q-42 -64 -90 -64zM200 917q19 0 42 37t23 85q0 33 -6 44q-23 -13 -35 -58q-3 -14 -14 -21q-6 -4 -13 -4t-14 3l-1 -22q2 -64 18 -64z" />
    <glyph glyph-name="plusminus" unicode="&#xb1;" horiz-adv-x="734" 
d="M380 640q-4 -41 -7 -76q-15 -177 -15 -302q0 -15 -8.5 -24.5t-20.5 -10.5q-30 3 -30 36q0 147 22 372q-119 -10 -274 -30l-12 -1q-35 0 -35 35q0 28 41 33q161 22 288 32q18 163 46 363q4 29 28 29q30 -3 30 -33v-7q-29 -202 -45 -347q81 5 146 5q57 0 90 -6
q60 -9 60 -44q0 -34 -39 -58q-7 -3 -14 -3q-17 0 -26 18q-4 8 -4 16l1 6q-25 3 -62 3q-68 0 -160 -6zM631 0q-17 0 -26 18q-4 8 -4 16l1 6q-25 3 -62 3q-171 0 -493 -41l-12 -1q-35 0 -35 35q0 28 41 33q308 42 493 42q57 0 90 -6q60 -9 60 -44q0 -34 -39 -58q-7 -3 -14 -3z
" />
    <glyph glyph-name="uni00B2" unicode="&#xb2;" horiz-adv-x="616" 
d="M289 602q-161 0 -161 87q5 37 60 115q67 98 127 214t69 240q0 36 -16 68q-13 26 -40 28q-59 0 -101 -45q-52 -58 -73 -138q-7 -22 -26 -22q-17 0 -24 15q-4 9 -4 17l1 9q25 97 88 166q59 62 142 62q55 -4 84 -57q25 -49 25 -109q-9 -132 -71.5 -255.5t-132.5 -226.5
q-5 -4 -22 -31q-25 -39 -30 -51q35 -22 105 -22q84 0 191 34l8 1q24 0 28 -31q0 -25 -21 -32q-112 -36 -206 -36z" />
    <glyph glyph-name="uni00B3" unicode="&#xb3;" horiz-adv-x="581" 
d="M139 602q-12 0 -20 9t-8 23q0 13 8 22.5t20 9.5q42 0 86.5 24t77.5 55q28 27 51 64t25 80q-2 50 -39.5 66t-77.5 20q-85 1 -87 57q3 51 114 133q131 100 136 148q0 12 -18 24q-33 17 -75 17q-44 0 -89.5 -19.5t-85.5 -41.5q-18 -12 -29 -12q-17 0 -25 18q-3 8 -3 15
q0 19 16 28q93 47 111 54q51 22 112 22q50 0 95 -25q47 -29 47 -80t-55 -108q-36 -37 -107 -93q-56 -44 -80 -70l24 -3q1 -1 3 -1q64 -6 116 -35t53 -116q-2 -57 -30 -106t-67.5 -86t-93 -65t-105.5 -28z" />
    <glyph glyph-name="acute" unicode="&#xb4;" horiz-adv-x="367" 
d="M234 770q22 0 30 -20q3 -7 3 -14q0 -40 -50 -50l-40 -69.5t-29 -46t-22 -10.5q-10 0 -18 8t-8 23q0 9 6.5 17.5t22.5 36.5q22 41 50.5 83t54.5 42z" />
    <glyph glyph-name="mu" unicode="&#xb5;" horiz-adv-x="855" 
d="M-21 -553q-28 0 -28 41l1 17q30 304 39 621q5 160 47 345q5 25 27 25q31 0 31 -31q0 -7 -5 -31q-39 -168 -39 -288q0 -103 34 -103q35 0 105 171q45 108 92 261q7 22 27 22q6 0 11 -2q19 -9 19 -30q-26 -156 -26 -227q0 -78 20 -119.5t54 -58.5t77 -17q106 0 207 56
t183 160q9 11 22 11q11 0 20 -10t9 -25q0 -11 -8 -21q-89 -114 -201.5 -176.5t-231.5 -62.5q-199 0 -208 239q-93 -239 -171 -239q-23 0 -41 11q-12 -266 -34 -490q-5 -49 -32 -49z" />
    <glyph glyph-name="paragraph" unicode="&#xb6;" horiz-adv-x="387" 
d="M44 -180q-29 0 -29 34q11 352 39 636q18 180 55 385q-28 -26 -59 -26q-34 0 -57 38q-20 33 -20 95q0 136 81 174q37 17 77 30q142 45 254 64q50 9 87 18q12 4 22 4q27 0 27 -30q0 -20 -34.5 -30t-88.5 -21q-73 -337 -101 -615q-28 -282 -41 -629q-1 -32 -28 -32
q-29 0 -29 34q11 352 39 636q27 269 96 594q-18 -4 -41 -12t-95 -26q17 -8 17 -30v-5q-74 -344 -102 -625.5t-41 -628.5q-1 -32 -28 -32z" />
    <glyph glyph-name="periodcentered" unicode="&#xb7;" horiz-adv-x="508" 
d="M136 634q-36 0 -36 50q2 23 14 38q-6 9 -6 19q2 28 26 28q55 -4 55 -60q0 -37 -26 -62q-13 -13 -27 -13z" />
    <glyph glyph-name="periodcentered" unicode="&#x2219;" horiz-adv-x="508" 
d="M136 634q-36 0 -36 50q2 23 14 38q-6 9 -6 19q2 28 26 28q55 -4 55 -60q0 -37 -26 -62q-13 -13 -27 -13z" />
    <glyph glyph-name="cedilla" unicode="&#xb8;" horiz-adv-x="379" 
d="M167 -232q-67 0 -67 37q0 16 10 23q6 5 12 5q4 0 8 -2q22 -9 49 -9q19 0 31.5 12t12.5 36q0 32 -57 40q-20 3 -20 25q8 53 22 89q5 14 29 14q22 0 22 -12v-2q-12 -47 -12 -62q72 -25 72 -96q0 -98 -112 -98z" />
    <glyph glyph-name="uni00B9" unicode="&#xb9;" horiz-adv-x="338" 
d="M165 602q-27 0 -29 29q-6 92 -6 185q0 212 34 459l-17.5 -17t-17.5 -8q-14 0 -21.5 10.5t-7.5 21.5q0 14 10 24q39 37 76 96q11 17 24 17q9 0 17 -7q11 -10 11 -29q-52 -304 -52 -560q0 -93 6 -187q0 -31 -27 -34z" />
    <glyph glyph-name="guillemotright" unicode="&#xbb;" horiz-adv-x="681" 
d="M135 -2q-8 0 -15 3q-20 10 -20 31q0 6 3 12q89 153 181 285q-60 79 -135 168q-7 8 -7 18q0 19 19 27h8q41 0 175 -182q12 -16 12 -32q0 -15 -10.5 -29.5l-20.5 -27.5q-54 -72 -164 -258q-9 -15 -26 -15zM360 -2q-8 0 -15 3q-20 10 -20 31q0 6 3 12q89 153 181 285
q-60 79 -135 168q-7 8 -7 18q0 19 19 27h8q42 0 175 -182q12 -16 12 -32q0 -15 -10.5 -29.5l-20.5 -27.5q-54 -72 -164 -258q-9 -15 -26 -15z" />
    <glyph glyph-name="onequarter" unicode="&#xbc;" horiz-adv-x="975" 
d="M165 602q-27 0 -29 29q-6 92 -6 185q0 212 34 459l-17.5 -17t-17.5 -8q-14 0 -21.5 10.5t-7.5 21.5q0 14 10 24q39 37 76 96q11 17 24 17q9 0 17 -7q11 -10 11 -29q-52 -304 -52 -560q0 -93 6 -187q0 -31 -27 -34zM171 -254q-18 0 -26 15q-4 10 -4 18l1 10q47 179 95 391
q71 328 165 656t230 566q10 15 25 15q9 0 16 -6q13 -11 13 -27q0 -10 -5 -20q-134 -234 -225.5 -557t-162.5 -645q-90 -401 -106 -411q-9 -5 -16 -5zM595 -340q-13 0 -21 10t-8 24q7 111 17 221q-97 -27 -148 -27q-67 0 -67 53q0 71 164 317q100 152 117 172l23 34
q9 13 23 13q9 0 18 -9t9 -22q0 -14 -31 -58q-2 -4 -5 -7q-15 -20 -91 -134q-149 -223 -169 -295q57 0 165 31q18 148 58 315q6 24 26 24q17 0 24 -13q5 -9 5 -18l-1 -9q-33 -140 -53 -283q138 44 198 45q11 -1 19 -10t8 -23q-1 -13 -9 -22t-20 -9q-24 0 -65 -11q-2 0 -3 -1
q-69 -17 -136 -37q-13 -120 -20 -242q-1 -13 -9 -21t-18 -8z" />
    <glyph glyph-name="onehalf" unicode="&#xbd;" horiz-adv-x="932" 
d="M165 602q-27 0 -29 29q-6 92 -6 185q0 212 34 459l-17.5 -17t-17.5 -8q-14 0 -21.5 10.5t-7.5 21.5q0 14 10 24q39 37 76 96q11 17 24 17q9 0 17 -7q11 -10 11 -29q-52 -304 -52 -560q0 -93 6 -187q0 -31 -27 -34zM171 -254q-18 0 -26 15q-4 10 -4 18l1 10q47 179 95 391
q71 328 165 656t230 566q10 15 25 15q9 0 16 -6q13 -11 13 -27q0 -10 -5 -20q-134 -234 -225.5 -557t-162.5 -645q-90 -401 -106 -411q-9 -5 -16 -5zM605 -339q-161 0 -161 86q5 37 60 116q67 98 127 214t69 239q0 37 -16 69q-13 26 -40 28q-59 0 -101 -45q-52 -58 -73 -138
q-7 -23 -26 -23q-17 0 -24 16q-4 9 -4 16l1 10q25 97 88 166q59 62 142 62q55 -4 84 -57q25 -49 25 -109q-9 -132 -71.5 -255.5t-132.5 -226.5q-5 -5 -22 -32q-25 -38 -30 -50q35 -22 105 -22q85 0 191 34l8 1q24 0 28 -32q0 -24 -21 -31q-112 -36 -206 -36z" />
    <glyph glyph-name="threequarters" unicode="&#xbe;" horiz-adv-x="1179" 
d="M375 -254q-18 0 -26 15q-4 10 -4 18l1 10q47 179 95 391q71 328 165 656t230 566q10 15 25 15q9 0 16 -6q13 -11 13 -27q0 -10 -5 -20q-134 -234 -225.5 -557t-162.5 -645q-90 -401 -106 -411q-9 -5 -16 -5zM799 -340q-13 0 -21 10t-8 24q7 111 17 221q-97 -27 -148 -27
q-67 0 -67 53q0 71 164 317q100 152 117 172l23 34q9 13 23 13q9 0 18 -9t9 -22q0 -14 -31 -58q-2 -4 -5 -7q-15 -20 -91 -134q-149 -223 -169 -295q57 0 165 31q18 148 58 315q6 24 26 24q17 0 24 -13q5 -9 5 -18l-1 -9q-33 -140 -53 -283q138 44 198 45q11 -1 19 -10
t8 -23q-1 -13 -9 -22t-20 -9q-24 0 -65 -11q-2 0 -3 -1q-69 -17 -136 -37q-13 -120 -20 -242q-1 -13 -9 -21t-18 -8zM139 602q-12 0 -20 9t-8 23q0 13 8 22.5t20 9.5q42 0 86.5 24t77.5 55q28 27 51 64t25 80q-2 50 -39.5 66t-77.5 20q-85 1 -87 57q3 51 114 133
q131 100 136 148q0 12 -18 24q-33 17 -75 17q-44 0 -89.5 -19.5t-85.5 -41.5q-18 -12 -29 -12q-17 0 -25 18q-3 8 -3 15q0 19 16 28q93 47 111 54q51 22 112 22q50 0 95 -25q47 -29 47 -80t-55 -108q-36 -37 -107 -93q-56 -44 -80 -70l24 -3q1 -1 3 -1q64 -6 116 -35
t53 -116q-2 -57 -30 -106t-67.5 -86t-93 -65t-105.5 -28z" />
    <glyph glyph-name="questiondown" unicode="&#xbf;" horiz-adv-x="511" 
d="M381 498q42 0 42 -59q-3 -27 -16 -45q7 -10 7 -22q-2 -33 -31 -33q-64 5 -64 71q0 43 30 73q15 15 32 15zM377 165q29 0 43 -30q10 -20 10 -53q0 -67 -53 -179l-55 -108q-230 -430 -230 -563q0 -45 21 -68q26 -30 70 -30q122 10 226 179q102 176 102 313q0 46 28 48
q29 0 31 -33q0 -93 -30 -187.5t-82.5 -180.5t-122.5 -143q-77 -64 -160 -64q-60 0 -105 51q-38 42 -38 115q0 17 3 35q18 112 88 264.5t148 298.5l55 107q45 95 45 147l-1 8q-5 -2 -11 -2q-4 0 -11 2t-12.5 11.5t-5.5 19.5q0 18 12 28q19 14 35 14z" />
    <glyph glyph-name="Agrave" unicode="&#xc0;" horiz-adv-x="1301" 
d="M541 412q99 11 255 11q92 0 163 -6q63 430 80 561q19 148 19 252q0 105 -39 105q-62 0 -151 -126.5t-192 -390.5q-70 -180 -135 -406zM863 -710q-13 0 -20.5 10t-7.5 23q42 493 115 1028q-68 5 -158 5q-138 0 -271 -15q-95 -349 -177 -802q-5 -27 -27 -27q-17 0 -25 14
q-1 3 -1 10q76 451 167 797q-73 -11 -146 -26q-181 -38 -322 -113q-7 -4 -13 -4q-18 0 -27 19q-3 7 -3 14q0 22 17 31q146 79 333 119q99 20 181 32q68 247 144 441q111 284 215 420t182 136q53 0 76 -47t23 -140q0 -95 -19.5 -244t-50.5 -353q-16 -105 -30 -208
q61 -9 104 -24q61 -22 61 -62q0 -44 -62 -71q-5 -2 -10 -2q-20 0 -28 22q-2 6 -2 12q0 22 17.5 29t22.5 10.5t5 7.5q-7 -7 -14 -7q-59 15 -103 20q-72 -526 -116 -1025q-3 -30 -30 -30zM1052 1465q-26 0 -54.5 42t-50.5 83q-16 28 -22.5 36.5t-6.5 18.5q0 14 8 22t17 8
q14 0 23 -10.5t29 -46l40 -69.5q50 -10 50 -50q0 -7 -3 -14q-8 -20 -30 -20z" />
    <glyph glyph-name="Aacute" unicode="&#xc1;" horiz-adv-x="1301" 
d="M541 412q99 11 255 11q92 0 163 -6q63 430 80 561q19 148 19 252q0 105 -39 105q-62 0 -151 -126.5t-192 -390.5q-70 -180 -135 -406zM863 -710q-13 0 -20.5 10t-7.5 23q42 493 115 1028q-68 5 -158 5q-138 0 -271 -15q-95 -349 -177 -802q-5 -27 -27 -27q-17 0 -25 14
q-1 3 -1 10q76 451 167 797q-73 -11 -146 -26q-181 -38 -322 -113q-7 -4 -13 -4q-18 0 -27 19q-3 7 -3 14q0 22 17 31q146 79 333 119q99 20 181 32q68 247 144 441q111 284 215 420t182 136q53 0 76 -47t23 -140q0 -95 -19.5 -244t-50.5 -353q-16 -105 -30 -208
q61 -9 104 -24q61 -22 61 -62q0 -44 -62 -71q-5 -2 -10 -2q-20 0 -28 22q-2 6 -2 12q0 22 17.5 29t22.5 10.5t5 7.5q-7 -7 -14 -7q-59 15 -103 20q-72 -526 -116 -1025q-3 -30 -30 -30zM1162 1675q22 0 30 -20q3 -7 3 -14q0 -40 -50 -50l-40 -69.5t-29 -46t-22 -10.5
q-10 0 -18 8t-8 23q0 9 6.5 17.5t22.5 36.5q22 41 50.5 83t54.5 42z" />
    <glyph glyph-name="Acircumflex" unicode="&#xc2;" horiz-adv-x="1301" 
d="M541 412q99 11 255 11q92 0 163 -6q63 430 80 561q19 148 19 252q0 105 -39 105q-62 0 -151 -126.5t-192 -390.5q-70 -180 -135 -406zM863 -710q-13 0 -20.5 10t-7.5 23q42 493 115 1028q-68 5 -158 5q-138 0 -271 -15q-95 -349 -177 -802q-5 -27 -27 -27q-17 0 -25 14
q-1 3 -1 10q76 451 167 797q-73 -11 -146 -26q-181 -38 -322 -113q-7 -4 -13 -4q-18 0 -27 19q-3 7 -3 14q0 22 17 31q146 79 333 119q99 20 181 32q68 247 144 441q111 284 215 420t182 136q53 0 76 -47t23 -140q0 -95 -19.5 -244t-50.5 -353q-16 -105 -30 -208
q61 -9 104 -24q61 -22 61 -62q0 -44 -62 -71q-5 -2 -10 -2q-20 0 -28 22q-2 6 -2 12q0 22 17.5 29t22.5 10.5t5 7.5q-7 -7 -14 -7q-59 15 -103 20q-72 -526 -116 -1025q-3 -30 -30 -30zM1057 1611l-55 -89q-20 -36 -29 -46.5t-22 -10.5q-10 0 -18 8t-8 23q0 9 6.5 17.5
t22.5 36.5q22 41 50.5 83t54.5 42h7q13 0 22 -10.5t29 -46l40 -69.5q50 -10 50 -50q0 -7 -3 -14q-8 -20 -30 -20q-26 0 -54.5 42t-50.5 83z" />
    <glyph glyph-name="Atilde" unicode="&#xc3;" horiz-adv-x="1301" 
d="M541 412q99 11 255 11q92 0 163 -6q63 430 80 561q19 148 19 252q0 105 -39 105q-62 0 -151 -126.5t-192 -390.5q-70 -180 -135 -406zM863 -710q-13 0 -20.5 10t-7.5 23q42 493 115 1028q-68 5 -158 5q-138 0 -271 -15q-95 -349 -177 -802q-5 -27 -27 -27q-17 0 -25 14
q-1 3 -1 10q76 451 167 797q-73 -11 -146 -26q-181 -38 -322 -113q-7 -4 -13 -4q-18 0 -27 19q-3 7 -3 14q0 22 17 31q146 79 333 119q99 20 181 32q68 247 144 441q111 284 215 420t182 136q53 0 76 -47t23 -140q0 -95 -19.5 -244t-50.5 -353q-16 -105 -30 -208
q61 -9 104 -24q61 -22 61 -62q0 -44 -62 -71q-5 -2 -10 -2q-20 0 -28 22q-2 6 -2 12q0 22 17.5 29t22.5 10.5t5 7.5q-7 -7 -14 -7q-59 15 -103 20q-72 -526 -116 -1025q-3 -30 -30 -30zM1111 1477q-39 0 -69 47q-12 18 -30 18q-19 0 -58 -25q-9 -6 -18 -6q-7 0 -19 7t-12 23
q0 12 14 21q64 42 101 42q36 0 66 -44q13 -21 32 -21q20 0 57 20q14 8 24 8q13 0 22 -13q6 -8 6 -15q0 -16 -23 -29q-56 -33 -93 -33z" />
    <glyph glyph-name="Adieresis" unicode="&#xc4;" horiz-adv-x="1301" 
d="M541 412q99 11 255 11q92 0 163 -6q63 430 80 561q19 148 19 252q0 105 -39 105q-62 0 -151 -126.5t-192 -390.5q-70 -180 -135 -406zM863 -710q-13 0 -20.5 10t-7.5 23q42 493 115 1028q-68 5 -158 5q-138 0 -271 -15q-95 -349 -177 -802q-5 -27 -27 -27q-17 0 -25 14
q-1 3 -1 10q76 451 167 797q-73 -11 -146 -26q-181 -38 -322 -113q-7 -4 -13 -4q-18 0 -27 19q-3 7 -3 14q0 22 17 31q146 79 333 119q99 20 181 32q68 247 144 441q111 284 215 420t182 136q53 0 76 -47t23 -140q0 -95 -19.5 -244t-50.5 -353q-16 -105 -30 -208
q61 -9 104 -24q61 -22 61 -62q0 -44 -62 -71q-5 -2 -10 -2q-20 0 -28 22q-2 6 -2 12q0 22 17.5 29t22.5 10.5t5 7.5q-7 -7 -14 -7q-59 15 -103 20q-72 -526 -116 -1025q-3 -30 -30 -30zM1157 1501q-38 0 -38 45q0 26 14 44q-6 8 -6 19q1 12 9 20t20 8q59 -5 59 -60
q0 -16 -5 -30q-19 -46 -53 -46zM991 1501q-38 0 -38 45q0 26 14 44q-6 8 -6 19q1 12 9 20t20 8q59 -5 59 -60q0 -16 -5 -30q-19 -46 -53 -46z" />
    <glyph glyph-name="Aring" unicode="&#xc5;" horiz-adv-x="1301" 
d="M541 412q99 11 255 11q92 0 163 -6q63 430 80 561q19 148 19 252q0 105 -39 105q-62 0 -151 -126.5t-192 -390.5q-70 -180 -135 -406zM863 -710q-13 0 -20.5 10t-7.5 23q42 493 115 1028q-68 5 -158 5q-138 0 -271 -15q-95 -349 -177 -802q-5 -27 -27 -27q-17 0 -25 14
q-1 3 -1 10q76 451 167 797q-73 -11 -146 -26q-181 -38 -322 -113q-7 -4 -13 -4q-18 0 -27 19q-3 7 -3 14q0 22 17 31q146 79 333 119q99 20 181 32q68 247 144 441q111 284 215 420t182 136q53 0 76 -47t23 -140q0 -95 -19.5 -244t-50.5 -353q-16 -105 -30 -208
q61 -9 104 -24q61 -22 61 -62q0 -44 -62 -71q-5 -2 -10 -2q-20 0 -28 22q-2 6 -2 12q0 22 17.5 29t22.5 10.5t5 7.5q-7 -7 -14 -7q-59 15 -103 20q-72 -526 -116 -1025q-3 -30 -30 -30zM1063 1431q-49 0 -78.5 36t-29.5 85t39.5 82t88.5 33t78.5 -34.5t29.5 -88.5
q0 -49 -39.5 -81t-88.5 -32zM1063 1479q29 0 54.5 18t25.5 47q0 34 -15.5 54.5t-44.5 20.5t-54.5 -19t-25.5 -48t15.5 -51t44.5 -22z" />
    <glyph glyph-name="AE" unicode="&#xc6;" horiz-adv-x="1681" 
d="M863 -710q-13 0 -20.5 10t-7.5 23l9 99l-45 -16q-49 -23 -54 -48q-7 -33 -34 -35q-25 0 -25 32q0 71 150 128l14 5q48 511 110 936q-200 -25 -436 -72l-3 -11q-95 -349 -177 -802q-5 -27 -27 -27q-26 0 -26 24q84 499 169 803l-148 -32q-181 -38 -322 -113q-7 -4 -13 -4
q-18 0 -27 19q-3 7 -3 14q0 22 17 31q146 79 333 119q94 21 183 38q67 243 142 435q111 284 215 420t182 136q53 0 76 -47t23 -140q0 -31 -2 -67q343 103 604 104q180 0 180 -67q0 -32 -43 -58q-8 -4 -15 -4q-16 0 -25 18q-4 8 -4 16q0 26 27 35q2 0 2 1h-14q-43 -7 -108 -9
q-226 -2 -554 -90q-28 -8 -55 -17q-14 -135 -63 -459l-18 -119q183 20 328 20q159 0 159 -73q0 -23 -19 -45q-9 -11 -20 -11q-31 0 -31 36q0 8 4 15h-3q-32 11 -88 11q-153 0 -339 -21l-12 -86q-59 -428 -99 -839q242 69 515 69q135 0 203.5 -21.5t68.5 -69.5q0 -21 -16 -43
q-10 -12 -23 -12q-10 0 -19.5 10t-9.5 26q0 9 5 18q-36 24 -201 24q-117 0 -258 -17q-154 -18 -271 -49l-11 -121q-3 -30 -30 -30zM544 424q233 44 426 68q67 458 78 564q-55 -20 -105 -42q-14 -6 -24 -6q-19 0 -27 19q-3 8 -3 14q0 20 29 33q64 29 136 54q4 55 4 102
q0 105 -39 105q-62 0 -151 -126.5t-192 -390.5q-68 -176 -132 -394z" />
    <glyph glyph-name="Ccedilla" unicode="&#xc7;" horiz-adv-x="1136" 
d="M505 -707q-149 20 -231 189q-90 186 -90 522q0 240 50.5 497.5t139.5 469.5q54 128 119 224.5t140 151.5t157 55q122 0 188 -117q66 -121 66 -307q0 -157 -41 -296q-46 -155 -113 -244q-9 -12 -22 -12q-11 0 -20.5 9.5t-9.5 24.5q0 12 7 22q60 79 102 221q38 128 38 275
q0 167 -57 270q-49 87 -138 87q-69 0 -133.5 -50.5t-122.5 -138.5t-107 -204q-86 -206 -135 -455.5t-49 -482.5q0 -317 83 -489q76 -158 220 -158q143 0 230 132q60 91 131 310q8 21 28 21q19 0 26 -17q4 -9 4 -16q0 -6 -8 -30q-32 -98 -64 -177t-77 -144.5t-110 -105.5
q-61 -37 -148 -40q-4 -19 -4 -28q72 -25 72 -96q0 -98 -112 -98q-67 0 -67 37q0 16 10 23q6 5 12 5q4 0 8 -2q22 -9 49 -9q19 0 31.5 12t12.5 36q0 32 -57 40q-20 3 -20 25q5 32 12 58z" />
    <glyph glyph-name="Egrave" unicode="&#xc8;" horiz-adv-x="1325" 
d="M388 -642q26 3 54 48q-49 -23 -54 -48zM385 -710q-56 0 -56 65q0 71 150 128q83 212 174 676q-97 -26 -160 -76q-8 -7 -18 -7q-13 0 -23 13q-6 10 -6 20q0 17 12 28q81 65 209 94q64 339 142 863q-287 -83 -458 -218q-182 -143 -182 -326q0 -54 38 -110q33 -47 100 -69
q22 -7 22 -33q0 -20 -13 -28q-9 -6 -17 -6l-7 1q-130 44 -169 167q-13 40 -13 78q0 210 192 367q195 160 518 249q23 163 31 208q4 28 29 28q16 0 22.5 -11.5t6.5 -21.5q0 -6 -26 -186q274 68 480 69q180 0 180 -67q0 -32 -43 -58q-8 -4 -15 -4q-16 0 -25 18q-4 8 -4 16
q0 26 27 35q2 0 2 1h-14q-43 -7 -108 -9q-150 -1 -371 -45q-62 -13 -120 -28q-69 -469 -146 -868q70 12 129 12q159 0 159 -73q0 -23 -19 -45q-9 -11 -20 -11q-31 0 -31 36q0 8 4 15h-3q-32 11 -88 11q-67 0 -145 -15q-84 -421 -174 -670q124 37 274 55q139 17 256 17
q135 0 203.5 -21.5t68.5 -69.5q0 -21 -16 -43q-10 -12 -23 -12q-10 0 -19.5 10t-9.5 26q0 9 5 18q-36 24 -201 24q-117 0 -258 -17q-180 -21 -310 -60q-66 -140 -123 -140zM1174 1465q-26 0 -54.5 42t-50.5 83q-16 28 -22.5 36.5t-6.5 18.5q0 14 8 22t18 8q13 0 22 -10.5
t29 -46l40 -69.5q50 -10 50 -50q0 -7 -3 -14q-8 -20 -30 -20z" />
    <glyph glyph-name="Eacute" unicode="&#xc9;" horiz-adv-x="1325" 
d="M388 -642q26 3 54 48q-49 -23 -54 -48zM385 -710q-56 0 -56 65q0 71 150 128q83 212 174 676q-97 -26 -160 -76q-8 -7 -18 -7q-13 0 -23 13q-6 10 -6 20q0 17 12 28q81 65 209 94q64 339 142 863q-287 -83 -458 -218q-182 -143 -182 -326q0 -54 38 -110q33 -47 100 -69
q22 -7 22 -33q0 -20 -13 -28q-9 -6 -17 -6l-7 1q-130 44 -169 167q-13 40 -13 78q0 210 192 367q195 160 518 249q23 163 31 208q4 28 29 28q16 0 22.5 -11.5t6.5 -21.5q0 -6 -26 -186q274 68 480 69q180 0 180 -67q0 -32 -43 -58q-8 -4 -15 -4q-16 0 -25 18q-4 8 -4 16
q0 26 27 35q2 0 2 1h-14q-43 -7 -108 -9q-150 -1 -371 -45q-62 -13 -120 -28q-69 -469 -146 -868q70 12 129 12q159 0 159 -73q0 -23 -19 -45q-9 -11 -20 -11q-31 0 -31 36q0 8 4 15h-3q-32 11 -88 11q-67 0 -145 -15q-84 -421 -174 -670q124 37 274 55q139 17 256 17
q135 0 203.5 -21.5t68.5 -69.5q0 -21 -16 -43q-10 -12 -23 -12q-10 0 -19.5 10t-9.5 26q0 9 5 18q-36 24 -201 24q-117 0 -258 -17q-180 -21 -310 -60q-66 -140 -123 -140zM1276 1675q22 0 30 -20q3 -7 3 -14q0 -40 -50 -50l-40 -69.5t-29 -46t-23 -10.5q-9 0 -17 8t-8 23
q0 9 6.5 17.5t22.5 36.5q22 41 50.5 83t54.5 42z" />
    <glyph glyph-name="Ecircumflex" unicode="&#xca;" horiz-adv-x="1325" 
d="M388 -642q26 3 54 48q-49 -23 -54 -48zM385 -710q-56 0 -56 65q0 71 150 128q83 212 174 676q-97 -26 -160 -76q-8 -7 -18 -7q-13 0 -23 13q-6 10 -6 20q0 17 12 28q81 65 209 94q64 339 142 863q-287 -83 -458 -218q-182 -143 -182 -326q0 -54 38 -110q33 -47 100 -69
q22 -7 22 -33q0 -20 -13 -28q-9 -6 -17 -6l-7 1q-130 44 -169 167q-13 40 -13 78q0 210 192 367q195 160 518 249q23 163 31 208q4 28 29 28q16 0 22.5 -11.5t6.5 -21.5q0 -6 -26 -186q274 68 480 69q180 0 180 -67q0 -32 -43 -58q-8 -4 -15 -4q-16 0 -25 18q-4 8 -4 16
q0 26 27 35q2 0 2 1h-14q-43 -7 -108 -9q-150 -1 -371 -45q-62 -13 -120 -28q-69 -469 -146 -868q70 12 129 12q159 0 159 -73q0 -23 -19 -45q-9 -11 -20 -11q-31 0 -31 36q0 8 4 15h-3q-32 11 -88 11q-67 0 -145 -15q-84 -421 -174 -670q124 37 274 55q139 17 256 17
q135 0 203.5 -21.5t68.5 -69.5q0 -21 -16 -43q-10 -12 -23 -12q-10 0 -19.5 10t-9.5 26q0 9 5 18q-36 24 -201 24q-117 0 -258 -17q-180 -21 -310 -60q-66 -140 -123 -140zM1176 1611q-41 -66 -54 -89q-20 -36 -29 -46.5t-22 -10.5q-10 0 -18 8t-8 23q0 9 6.5 17.5
t22.5 36.5q22 41 50.5 83t54.5 42h7q13 0 22 -10.5t29 -46l40 -69.5q50 -10 50 -50q0 -7 -3 -14q-8 -20 -30 -20q-26 0 -54.5 42t-50.5 83z" />
    <glyph glyph-name="Edieresis" unicode="&#xcb;" horiz-adv-x="1325" 
d="M388 -642q26 3 54 48q-49 -23 -54 -48zM385 -710q-56 0 -56 65q0 71 150 128q83 212 174 676q-97 -26 -160 -76q-8 -7 -18 -7q-13 0 -23 13q-6 10 -6 20q0 17 12 28q81 65 209 94q64 339 142 863q-287 -83 -458 -218q-182 -143 -182 -326q0 -54 38 -110q33 -47 100 -69
q22 -7 22 -33q0 -20 -13 -28q-9 -6 -17 -6l-7 1q-130 44 -169 167q-13 40 -13 78q0 210 192 367q195 160 518 249q23 163 31 208q4 28 29 28q16 0 22.5 -11.5t6.5 -21.5q0 -6 -26 -186q274 68 480 69q180 0 180 -67q0 -32 -43 -58q-8 -4 -15 -4q-16 0 -25 18q-4 8 -4 16
q0 26 27 35q2 0 2 1h-14q-43 -7 -108 -9q-150 -1 -371 -45q-62 -13 -120 -28q-69 -469 -146 -868q70 12 129 12q159 0 159 -73q0 -23 -19 -45q-9 -11 -20 -11q-31 0 -31 36q0 8 4 15h-3q-32 11 -88 11q-67 0 -145 -15q-84 -421 -174 -670q124 37 274 55q139 17 256 17
q135 0 203.5 -21.5t68.5 -69.5q0 -21 -16 -43q-10 -12 -23 -12q-10 0 -19.5 10t-9.5 26q0 9 5 18q-36 24 -201 24q-117 0 -258 -17q-180 -21 -310 -60q-66 -140 -123 -140zM1294 1501q-39 0 -39 45q0 26 15 44q-6 8 -6 19q1 12 9 20t20 8q59 -5 59 -60q0 -16 -5 -30
q-20 -46 -53 -46zM1128 1501q-39 0 -39 45q0 26 15 44q-6 8 -6 19q1 12 9 20t20 8q59 -5 59 -60q0 -16 -5 -30q-20 -46 -53 -46z" />
    <glyph glyph-name="Igrave" unicode="&#xcc;" horiz-adv-x="619" 
d="M194 -710q-14 0 -21 11.5t-7 24.5q2 19 3 31t4 30v6.5t0.5 6.5t1 9.5t2 18.5t3.5 32q53 512 122 964.5t213 954.5q7 24 28 24q18 0 25 -17q5 -9 5 -17q0 -5 -2 -11q-143 -497 -211.5 -947t-120.5 -959l-15 -133q-1 -14 -10 -21.5t-20 -7.5zM601 1465q-26 0 -54.5 42
t-50.5 83q-16 28 -22.5 36.5t-6.5 18.5q0 14 8 22t17 8q14 0 23 -10.5t29 -46l40 -69.5q50 -10 50 -50q0 -7 -3 -14q-8 -20 -30 -20z" />
    <glyph glyph-name="Iacute" unicode="&#xcd;" horiz-adv-x="619" 
d="M194 -710q-14 0 -21 11.5t-7 24.5q2 19 3 31t4 30v6.5t0.5 6.5t1 9.5t2 18.5t3.5 32q53 512 122 964.5t213 954.5q7 24 28 24q18 0 25 -17q5 -9 5 -17q0 -5 -2 -11q-143 -497 -211.5 -947t-120.5 -959l-15 -133q-1 -14 -10 -21.5t-20 -7.5zM680 1675q22 0 30 -20
q3 -7 3 -14q0 -40 -50 -50l-40 -69.5t-29 -46t-23 -10.5q-9 0 -17 8t-8 23q0 9 6.5 17.5t22.5 36.5q22 41 50.5 83t54.5 42z" />
    <glyph glyph-name="Icircumflex" unicode="&#xce;" horiz-adv-x="619" 
d="M194 -710q-14 0 -21 11.5t-7 24.5q2 19 3 31t4 30v6.5t0.5 6.5t1 9.5t2 18.5t3.5 32q53 512 122 964.5t213 954.5q7 24 28 24q18 0 25 -17q5 -9 5 -17q0 -5 -2 -11q-143 -497 -211.5 -947t-120.5 -959l-15 -133q-1 -14 -10 -21.5t-20 -7.5zM563 1611l-55 -89
q-20 -36 -29 -46.5t-22 -10.5q-10 0 -18 8t-8 23q0 9 6.5 17.5t22.5 36.5q22 41 50.5 83t54.5 42h7q13 0 22 -10.5t29 -46l40 -69.5q50 -10 50 -50q0 -7 -3 -14q-8 -20 -30 -20q-26 0 -54.5 42t-50.5 83z" />
    <glyph glyph-name="Idieresis" unicode="&#xcf;" horiz-adv-x="619" 
d="M194 -710q-14 0 -21 11.5t-7 24.5q2 19 3 31t4 30v6.5t0.5 6.5t1 9.5t2 18.5t3.5 32q53 512 122 964.5t213 954.5q7 24 28 24q18 0 25 -17q5 -9 5 -17q0 -5 -2 -11q-143 -497 -211.5 -947t-120.5 -959l-15 -133q-1 -14 -10 -21.5t-20 -7.5zM645 1501q-38 0 -38 45
q0 26 14 44q-6 8 -6 19q1 12 9 20t20 8q59 -5 59 -60q0 -16 -5 -30q-19 -46 -53 -46zM479 1501q-38 0 -38 45q0 26 14 44q-6 8 -6 19q1 12 9 20t20 8q59 -5 59 -60q0 -16 -5 -30q-19 -46 -53 -46z" />
    <glyph glyph-name="Eth" unicode="&#xd0;" horiz-adv-x="1543" 
d="M278 -710q-12 0 -20.5 9.5t-8.5 24.5q0 14 8.5 23.5t20.5 9.5q133 0 258.5 53t237.5 144.5t207 210.5q168 213 265.5 463t97.5 464q0 329 -207 416q-74 31 -161 31q-104 0 -219 -40q-85 -299 -133 -578q-16 -91 -31 -193q161 16 268 16q50 0 79 -4q53 -8 53 -39t-34 -51
q-7 -3 -13 -3q-25 0 -25 35q-22 2 -54 2q-112 0 -284 -17q-46 -307 -94 -710q-4 -29 -31 -29q-13 0 -20.5 11.5t-7.5 23.5l8 63q40 342 84 634l-85 -10q-27 0 -27 33q0 23 28 27l93 11q17 111 35 215q45 259 121 536q-126 -50 -249 -150q-110 -90 -178 -198t-68 -218
q0 -55 36 -105q30 -40 89 -54q24 -6 24 -33q0 -34 -34 -34q-126 29 -162 151q-12 40 -12 75q0 124 73.5 245t191.5 220q146 122 312 183q32 111 69 226q8 22 28 22q19 0 26 -17q4 -10 4 -17q0 -5 -2 -11q-30 -91 -56 -180q102 29 198 29q195 0 309 -127q117 -131 117 -387
q0 -226 -101.5 -488.5t-276.5 -483.5q-101 -126 -219.5 -222.5t-252 -152t-275.5 -55.5z" />
    <glyph glyph-name="Ntilde" unicode="&#xd1;" horiz-adv-x="1105" 
d="M235 -710q-50 0 -58 122q-2 35 -2 80q0 207 44 518q62 427 173 735q36 391 52 578l5 49q1 14 9.5 22t19.5 8q13 0 21 -10.5t8 -22.5t-40 -448q129 255 283 255q73 0 115.5 -37t60.5 -103t18 -153q0 -151 -58 -466q-55 -307 -55 -431q0 -35 3 -65q9 -90 62 -116
q19 -8 19 -30q0 -35 -29 -35q-6 0 -11 2q-75 35 -88.5 113t-13.5 142q0 130 55 433q56 311 56 453q0 67 -12 117.5t-41.5 79.5t-80.5 29q-113 0 -214 -179q-47 -84 -87 -194q-90 -1446 -214 -1446zM235 -643q25 0 129 1094q-96 -403 -124 -792q-6 -96 -6 -166q0 -43 2 -86
q0 -28 -2 -42q0 -8 1 -8zM808 1477q-39 0 -69 47q-12 18 -30 18q-19 0 -58 -25q-9 -6 -18 -6q-7 0 -19 7t-12 23q0 12 14 21q64 42 101 42q36 0 65 -44q14 -21 33 -21q20 0 57 20q13 8 23 8q14 0 23 -13q5 -8 5 -15q0 -16 -22 -29q-56 -33 -93 -33z" />
    <glyph glyph-name="Ograve" unicode="&#xd2;" horiz-adv-x="1153" 
d="M551 -643q61 0 118.5 107.5t105.5 281.5q120 463 120 925q0 323 -65 503q-60 161 -162 161q-84 0 -142 -133q-22 -52 -36 -114q53 43 116 58h6q27 0 30 -34q0 -25 -24 -33q-83 -20 -148 -101q-11 -85 -11 -164q0 -203 32.5 -343.5t78.5 -176.5q13 -12 13 -30q0 -9 -5 -17
q-9 -15 -24 -15q-8 0 -17 5q-64 51 -102 215q-36 151 -36 362q0 28 2 57q-84 -160 -124 -417q-28 -179 -28 -366q0 -336 89 -544q80 -187 213 -187zM551 -710q-170 0 -265.5 223.5t-95.5 574.5q0 193 29 379q55 356 195 542q35 245 140 347q48 46 114 46q143 0 216 -202
q70 -194 70 -529q0 -472 -123 -946q-35 -129 -79 -226.5t-94.5 -153t-106.5 -55.5zM704 1465q-26 0 -54.5 42t-50.5 83q-16 28 -22.5 36.5t-6.5 18.5q0 14 8 22t17 8q14 0 23 -10.5t29 -46l40 -69.5q50 -10 50 -50q0 -7 -3 -14q-8 -20 -30 -20z" />
    <glyph glyph-name="Oacute" unicode="&#xd3;" horiz-adv-x="1153" 
d="M551 -643q61 0 118.5 107.5t105.5 281.5q120 463 120 925q0 323 -65 503q-60 161 -162 161q-84 0 -142 -133q-22 -52 -36 -114q53 43 116 58h6q27 0 30 -34q0 -25 -24 -33q-83 -20 -148 -101q-11 -85 -11 -164q0 -203 32.5 -343.5t78.5 -176.5q13 -12 13 -30q0 -9 -5 -17
q-9 -15 -24 -15q-8 0 -17 5q-64 51 -102 215q-36 151 -36 362q0 28 2 57q-84 -160 -124 -417q-28 -179 -28 -366q0 -336 89 -544q80 -187 213 -187zM551 -710q-170 0 -265.5 223.5t-95.5 574.5q0 193 29 379q55 356 195 542q35 245 140 347q48 46 114 46q143 0 216 -202
q70 -194 70 -529q0 -472 -123 -946q-35 -129 -79 -226.5t-94.5 -153t-106.5 -55.5zM780 1675q22 0 30 -20q4 -7 4 -14q0 -40 -51 -50l-40 -69.5t-29 -46t-22 -10.5q-9 0 -17.5 8t-8.5 23q0 9 6.5 17.5t22.5 36.5q22 41 50.5 83t54.5 42z" />
    <glyph glyph-name="Ocircumflex" unicode="&#xd4;" horiz-adv-x="1153" 
d="M551 -643q61 0 118.5 107.5t105.5 281.5q120 463 120 925q0 323 -65 503q-60 161 -162 161q-84 0 -142 -133q-22 -52 -36 -114q53 43 116 58h6q27 0 30 -34q0 -25 -24 -33q-83 -20 -148 -101q-11 -85 -11 -164q0 -203 32.5 -343.5t78.5 -176.5q13 -12 13 -30q0 -9 -5 -17
q-9 -15 -24 -15q-8 0 -17 5q-64 51 -102 215q-36 151 -36 362q0 28 2 57q-84 -160 -124 -417q-28 -179 -28 -366q0 -336 89 -544q80 -187 213 -187zM551 -710q-170 0 -265.5 223.5t-95.5 574.5q0 193 29 379q55 356 195 542q35 245 140 347q48 46 114 46q143 0 216 -202
q70 -194 70 -529q0 -472 -123 -946q-35 -129 -79 -226.5t-94.5 -153t-106.5 -55.5zM684 1611l-55 -89q-20 -36 -29 -46.5t-22 -10.5q-10 0 -18 8t-8 23q0 9 6.5 17.5t22.5 36.5q22 41 50.5 83t54.5 42h7q13 0 22 -10.5t29 -46l40 -69.5q50 -10 50 -50q0 -7 -3 -14
q-8 -20 -30 -20q-26 0 -54.5 42t-50.5 83z" />
    <glyph glyph-name="Otilde" unicode="&#xd5;" horiz-adv-x="1153" 
d="M551 -643q61 0 118.5 107.5t105.5 281.5q120 463 120 925q0 323 -65 503q-60 161 -162 161q-84 0 -142 -133q-22 -52 -36 -114q53 43 116 58h6q27 0 30 -34q0 -25 -24 -33q-83 -20 -148 -101q-11 -85 -11 -164q0 -203 32.5 -343.5t78.5 -176.5q13 -12 13 -30q0 -9 -5 -17
q-9 -15 -24 -15q-8 0 -17 5q-64 51 -102 215q-36 151 -36 362q0 28 2 57q-84 -160 -124 -417q-28 -179 -28 -366q0 -336 89 -544q80 -187 213 -187zM551 -710q-170 0 -265.5 223.5t-95.5 574.5q0 193 29 379q55 356 195 542q35 245 140 347q48 46 114 46q143 0 216 -202
q70 -194 70 -529q0 -472 -123 -946q-35 -129 -79 -226.5t-94.5 -153t-106.5 -55.5zM761 1477q-39 0 -69 47q-12 18 -30 18q-19 0 -58 -25q-9 -6 -18 -6q-7 0 -19 7t-12 23q0 12 14 21q64 42 101 42q36 0 66 -44q13 -21 32 -21q20 0 57 20q14 8 24 8q13 0 22 -13q6 -8 6 -15
q0 -16 -23 -29q-56 -33 -93 -33z" />
    <glyph glyph-name="Odieresis" unicode="&#xd6;" horiz-adv-x="1153" 
d="M551 -643q61 0 118.5 107.5t105.5 281.5q120 463 120 925q0 323 -65 503q-60 161 -162 161q-84 0 -142 -133q-22 -52 -36 -114q53 43 116 58h6q27 0 30 -34q0 -25 -24 -33q-83 -20 -148 -101q-11 -85 -11 -164q0 -203 32.5 -343.5t78.5 -176.5q13 -12 13 -30q0 -9 -5 -17
q-9 -15 -24 -15q-8 0 -17 5q-64 51 -102 215q-36 151 -36 362q0 28 2 57q-84 -160 -124 -417q-28 -179 -28 -366q0 -336 89 -544q80 -187 213 -187zM551 -710q-170 0 -265.5 223.5t-95.5 574.5q0 193 29 379q55 356 195 542q35 245 140 347q48 46 114 46q143 0 216 -202
q70 -194 70 -529q0 -472 -123 -946q-35 -129 -79 -226.5t-94.5 -153t-106.5 -55.5zM775 1501q-38 0 -38 45q0 26 14 44q-6 8 -6 19q1 12 9 20t20 8q59 -5 59 -60q0 -16 -5 -30q-19 -46 -53 -46zM609 1501q-38 0 -38 45q0 26 14 44q-6 8 -6 19q1 12 9 20t20 8q59 -5 59 -60
q0 -16 -5 -30q-19 -46 -53 -46z" />
    <glyph glyph-name="multiply" unicode="&#xd7;" horiz-adv-x="734" 
d="M92 331q-8 0 -15 4q-12 11 -12 24q0 11 9 23q82 109 219 261q-67 70 -116 128q-70 84 -70 121q0 16 12 26q15 13 37 13q15 0 32.5 -6.5t17.5 -25.5q0 -20 -18 -30q28 -48 151 -176q277 301 301 301q8 0 16 -6q12 -12 12 -24q0 -10 -10 -23l-278 -289q82 -84 192 -186
q19 -21 19 -33q0 -13 -15 -25q-8 -7 -18 -7q-26 0 -224 200q-120 -130 -213 -255q-11 -15 -29 -15z" />
    <glyph glyph-name="Oslash" unicode="&#xd8;" horiz-adv-x="1153" 
d="M883 926q-70 -127 -117 -233q-65 -147 -243 -602q-114 -292 -191 -533l6 -14q80 -187 213 -187q61 0 118.5 107.5t105.5 281.5q120 463 120 925q0 141 -12 255zM931 1011q23 -146 23 -340q0 -472 -123 -946q-35 -129 -79 -226.5t-94.5 -153t-106.5 -55.5q-153 0 -246 182
q-26 -87 -47 -166q-6 -22 -25 -22l-9 1q-18 6 -18 29q0 5 1 9q28 109 64 227q-81 215 -81 538q0 193 29 379q55 356 195 542q35 245 140 347q48 46 114 46q143 0 216 -202q17 -48 30 -105l73 121q9 14 22 14q8 0 16 -6q12 -10 12 -25q0 -9 -6 -19zM302 -353q66 206 157 438
l64 165q-54 56 -88 202q-36 151 -36 362q0 28 2 57q-84 -160 -124 -417q-28 -179 -28 -366q0 -258 53 -441zM549 316q102 256 168 404q59 133 153 298q-16 88 -40 156q-60 161 -162 161q-84 0 -142 -133q-22 -52 -36 -114q53 43 116 58h6q27 0 30 -34q0 -25 -24 -33
q-83 -20 -148 -101q-11 -85 -11 -164q0 -203 33 -343q24 -108 57 -155z" />
    <glyph glyph-name="Ugrave" unicode="&#xd9;" horiz-adv-x="1157" 
d="M824 -710q-21 0 -28 24q-48 182 -48 443q0 44 2 89q-145 -324 -308 -324q-152 0 -212 206q-37 127 -37 331q0 215 37 459q49 319 123 569t134 309q8 6 17 6q15 0 24 -13q6 -10 6 -20q0 -17 -12 -28q-52 -51 -119.5 -289t-113.5 -545q-37 -241 -37 -453q0 -464 190 -464
q169 0 317 436q30 354 91 654q73 350 129 465q2 21 21 28q4 2 9 2q32 0 32 -51q0 -99 -47 -379q-67 -401 -176 -722q-10 -136 -10 -266q0 -250 44 -424q2 -5 2 -10q0 -23 -21 -32q-4 -1 -9 -1zM858 375q64 275 101 530q-62 -267 -101 -530zM818 1465q-26 0 -54.5 42
t-50.5 83q-16 28 -22.5 36.5t-6.5 18.5q0 14 8 22t17 8q14 0 23 -10.5t29 -46l40 -69.5q50 -10 50 -50q0 -7 -3 -14q-8 -20 -30 -20z" />
    <glyph glyph-name="Uacute" unicode="&#xda;" horiz-adv-x="1157" 
d="M824 -710q-21 0 -28 24q-48 182 -48 443q0 44 2 89q-145 -324 -308 -324q-152 0 -212 206q-37 127 -37 331q0 215 37 459q49 319 123 569t134 309q8 6 17 6q15 0 24 -13q6 -10 6 -20q0 -17 -12 -28q-52 -51 -119.5 -289t-113.5 -545q-37 -241 -37 -453q0 -464 190 -464
q169 0 317 436q30 354 91 654q73 350 129 465q2 21 21 28q4 2 9 2q32 0 32 -51q0 -99 -47 -379q-67 -401 -176 -722q-10 -136 -10 -266q0 -250 44 -424q2 -5 2 -10q0 -23 -21 -32q-4 -1 -9 -1zM858 375q64 275 101 530q-62 -267 -101 -530zM919 1675q22 0 30 -20q4 -7 4 -14
q0 -40 -51 -50l-40 -69.5t-29 -46t-22 -10.5q-9 0 -17.5 8t-8.5 23q0 9 6.5 17.5t22.5 36.5q22 41 50.5 83t54.5 42z" />
    <glyph glyph-name="Ucircumflex" unicode="&#xdb;" horiz-adv-x="1157" 
d="M824 -710q-21 0 -28 24q-48 182 -48 443q0 44 2 89q-145 -324 -308 -324q-152 0 -212 206q-37 127 -37 331q0 215 37 459q49 319 123 569t134 309q8 6 17 6q15 0 24 -13q6 -10 6 -20q0 -17 -12 -28q-52 -51 -119.5 -289t-113.5 -545q-37 -241 -37 -453q0 -464 190 -464
q169 0 317 436q30 354 91 654q73 350 129 465q2 21 21 28q4 2 9 2q32 0 32 -51q0 -99 -47 -379q-67 -401 -176 -722q-10 -136 -10 -266q0 -250 44 -424q2 -5 2 -10q0 -23 -21 -32q-4 -1 -9 -1zM858 375q64 275 101 530q-62 -267 -101 -530zM814 1611l-55 -89
q-20 -36 -29 -46.5t-22 -10.5q-10 0 -18 8t-8 23q0 9 6.5 17.5t22.5 36.5q22 41 50.5 83t54.5 42h7q13 0 22 -10.5t29 -46l40 -69.5q50 -10 50 -50q0 -7 -3 -14q-8 -20 -30 -20q-26 0 -54.5 42t-50.5 83z" />
    <glyph glyph-name="Udieresis" unicode="&#xdc;" horiz-adv-x="1157" 
d="M824 -710q-21 0 -28 24q-48 182 -48 443q0 44 2 89q-145 -324 -308 -324q-152 0 -212 206q-37 127 -37 331q0 215 37 459q49 319 123 569t134 309q8 6 17 6q15 0 24 -13q6 -10 6 -20q0 -17 -12 -28q-52 -51 -119.5 -289t-113.5 -545q-37 -241 -37 -453q0 -464 190 -464
q169 0 317 436q30 354 91 654q73 350 129 465q2 21 21 28q4 2 9 2q32 0 32 -51q0 -99 -47 -379q-67 -401 -176 -722q-10 -136 -10 -266q0 -250 44 -424q2 -5 2 -10q0 -23 -21 -32q-4 -1 -9 -1zM858 375q64 275 101 530q-62 -267 -101 -530zM908 1501q-38 0 -38 45
q0 26 14 44q-6 8 -6 19q1 12 9 20t20 8q59 -5 59 -60q0 -16 -5 -30q-19 -46 -53 -46zM742 1501q-38 0 -38 45q0 26 14 44q-6 8 -6 19q1 12 9 20t20 8q59 -5 59 -60q0 -16 -5 -30q-19 -46 -53 -46z" />
    <glyph glyph-name="Yacute" unicode="&#xdd;" horiz-adv-x="1138" 
d="M583 -710q-12 0 -21 9.5t-9 24.5q0 14 9 23.5t21 9.5q103 0 162 236q47 189 70 536q-123 -382 -293 -382q-261 0 -271 748v27q0 274 19 512q20 249 32 339q2 14 10.5 21.5t18.5 7.5q15 0 22.5 -11.5t7.5 -24.5q-12 -91 -31.5 -331.5t-19.5 -511.5q0 -138 13 -283
q24 -264 99 -369q40 -56 100 -56q101 0 186 190q71 162 122 425l7 206q9 351 34 460q15 69 47 69q36 0 40 -77l1 -40q0 -148 -30 -377q-16 -120 -40 -247q-15 -379 -48 -624q-70 -510 -258 -510zM763 1675q22 0 30 -20q3 -7 3 -14q0 -40 -50 -50l-40 -69.5t-29 -46
t-22 -10.5q-10 0 -18 8t-8 23q0 9 6.5 17.5t22.5 36.5q22 41 50.5 83t54.5 42z" />
    <glyph glyph-name="Thorn" unicode="&#xde;" horiz-adv-x="1394" 
d="M537 -125q83 21 160 54q167 72 295 185q142 125 222 273t80 287q0 98 -48 158q-84 103 -274 103q-117 0 -247 -41q-90 -354 -140 -683q-25 -164 -48 -336zM744 970q120 33 230 33q217 0 319 -128q60 -76 60 -201q0 -154 -86 -316.5t-239 -296.5q-135 -119 -310 -195
q-92 -39 -190 -61q-30 -229 -56 -471l-16 -158l-7 -57q-4 -29 -30 -29q-14 0 -21 11t-7 24l7 67.5l7 67.5q28 275 61 533q-63 -10 -129 -14q-12 0 -20.5 9t-8.5 26q0 12 7.5 21.5t20.5 10.5q71 4 139 16q24 186 52 363q47 311 131 646q-206 -77 -349 -222
q-157 -159 -157 -343q0 -56 37 -105q29 -40 88 -54q25 -6 25 -32q0 -35 -35 -35q-123 29 -161 151q-13 40 -13 75q0 208 168 383.5t416 260.5l58 232.5t104 385.5q7 24 28 24q18 0 25 -17q5 -9 5 -17q0 -5 -2 -11q-64 -222 -98 -364.5t-53 -212.5z" />
    <glyph glyph-name="germandbls" unicode="&#xdf;" horiz-adv-x="788" 
d="M177 -178q56 0 94 113q-101 -40 -101 -102q1 -11 4 -11h3zM226 386q0 -52 17 -88.5t39 -68.5q26 -37 46.5 -81t20.5 -115l1 1q167 53 289 125q94 54 152 105q7 6 17 6q15 0 22.5 -11t7.5 -22q0 -39 -173 -139q-90 -52 -194 -93q-30 -11 -131 -45q-11 -49 -32 -95
q-50 -111 -132 -111q-26 0 -44.5 18.5t-20.5 59.5q0 75 49 115t128 66q2 13 2 25q0 50 -17 85t-38 66q-27 38 -47.5 83t-20.5 114q0 73 64.5 202t64.5 226q0 38 -10 60q-5 10 -7 10q-67 0 -122 -166q-67 -202 -115 -601q-52 -498 -52 -929q0 -54 1 -88q0 -15 -8.5 -24.5
t-20.5 -9.5q-13 0 -21.5 9.5t-8.5 23.5l-1 89q0 461 51 926q47 428 134 655q69 183 163 183q38 0 60 -48q16 -35 16 -90q0 -108 -64.5 -241.5t-64.5 -186.5z" />
    <glyph glyph-name="agrave" unicode="&#xe0;" horiz-adv-x="903" 
d="M55 43q53 0 178 217q-1 88 -17 135q-12 35 -26 35q-52 0 -103 -109q-56 -121 -56 -216q0 -62 24 -62zM540 -25q-88 0 -135 40t-64.5 105.5t-17.5 139.5l1 39q-170 -324 -269 -324q-61 0 -78 78q-5 24 -5 52q0 59 21 135q40 145 117 220q38 37 80 37q75 0 95 -139
q41 81 58 121q8 19 27 19q13 0 21.5 -10t8.5 -24l-3 -24q-15 -112 -15 -180q0 -217 158 -217q174 0 363 218q9 10 21 10q11 0 21 -10q8 -11 8 -24t-8 -24q-208 -238 -405 -238zM216 560q-26 0 -54.5 42t-50.5 83q-16 28 -22.5 36.5t-6.5 18.5q0 14 8 22t18 8q13 0 22 -10.5
t29 -46l40 -69.5q50 -10 50 -50q0 -7 -3 -14q-8 -20 -30 -20z" />
    <glyph glyph-name="aacute" unicode="&#xe1;" horiz-adv-x="903" 
d="M55 43q53 0 178 217q-1 88 -17 135q-12 35 -26 35q-52 0 -103 -109q-56 -121 -56 -216q0 -62 24 -62zM540 -25q-88 0 -135 40t-64.5 105.5t-17.5 139.5l1 39q-170 -324 -269 -324q-61 0 -78 78q-5 24 -5 52q0 59 21 135q40 145 117 220q38 37 80 37q75 0 95 -139
q41 81 58 121q8 19 27 19q13 0 21.5 -10t8.5 -24l-3 -24q-15 -112 -15 -180q0 -217 158 -217q174 0 363 218q9 10 21 10q11 0 21 -10q8 -11 8 -24t-8 -24q-208 -238 -405 -238zM317 770q22 0 30 -20q3 -7 3 -14q0 -40 -50 -50l-40 -69.5t-29 -46t-23 -10.5q-9 0 -17 8t-8 23
q0 9 6.5 17.5t22.5 36.5q22 41 50.5 83t54.5 42z" />
    <glyph glyph-name="acircumflex" unicode="&#xe2;" horiz-adv-x="903" 
d="M55 43q53 0 178 217q-1 88 -17 135q-12 35 -26 35q-52 0 -103 -109q-56 -121 -56 -216q0 -62 24 -62zM540 -25q-88 0 -135 40t-64.5 105.5t-17.5 139.5l1 39q-170 -324 -269 -324q-61 0 -78 78q-5 24 -5 52q0 59 21 135q40 145 117 220q38 37 80 37q75 0 95 -139
q41 81 58 121q8 19 27 19q13 0 21.5 -10t8.5 -24l-3 -24q-15 -112 -15 -180q0 -217 158 -217q174 0 363 218q9 10 21 10q11 0 21 -10q8 -11 8 -24t-8 -24q-208 -238 -405 -238zM247 706q-41 -66 -54 -89q-20 -36 -29 -46.5t-22 -10.5q-10 0 -18 8t-8 23q0 9 6.5 17.5
t22.5 36.5q22 41 50.5 83t54.5 42h7q13 0 22 -10.5t29 -46l40 -69.5q50 -10 50 -50q0 -7 -3 -14q-8 -20 -30 -20q-26 0 -54.5 42t-50.5 83z" />
    <glyph glyph-name="atilde" unicode="&#xe3;" horiz-adv-x="903" 
d="M55 43q53 0 178 217q-1 88 -17 135q-12 35 -26 35q-52 0 -103 -109q-56 -121 -56 -216q0 -62 24 -62zM540 -25q-88 0 -135 40t-64.5 105.5t-17.5 139.5l1 39q-170 -324 -269 -324q-61 0 -78 78q-5 24 -5 52q0 59 21 135q40 145 117 220q38 37 80 37q75 0 95 -139
q41 81 58 121q8 19 27 19q13 0 21.5 -10t8.5 -24l-3 -24q-15 -112 -15 -180q0 -217 158 -217q174 0 363 218q9 10 21 10q11 0 21 -10q8 -11 8 -24t-8 -24q-208 -238 -405 -238zM325 572q-39 0 -69 47q-12 18 -30 18q-19 0 -58 -25q-9 -6 -18 -6q-7 0 -19 7t-12 23
q0 12 14 21q64 42 101 42q36 0 65 -44q14 -21 33 -21q20 0 57 20q13 8 24 8q13 0 22 -13q5 -8 5 -15q0 -16 -22 -29q-56 -33 -93 -33z" />
    <glyph glyph-name="adieresis" unicode="&#xe4;" horiz-adv-x="903" 
d="M55 43q53 0 178 217q-1 88 -17 135q-12 35 -26 35q-52 0 -103 -109q-56 -121 -56 -216q0 -62 24 -62zM540 -25q-88 0 -135 40t-64.5 105.5t-17.5 139.5l1 39q-170 -324 -269 -324q-61 0 -78 78q-5 24 -5 52q0 59 21 135q40 145 117 220q38 37 80 37q75 0 95 -139
q41 81 58 121q8 19 27 19q13 0 21.5 -10t8.5 -24l-3 -24q-15 -112 -15 -180q0 -217 158 -217q174 0 363 218q9 10 21 10q11 0 21 -10q8 -11 8 -24t-8 -24q-208 -238 -405 -238zM341 596q-39 0 -39 45q0 26 15 44q-6 8 -6 19q1 12 9 20t20 8q59 -5 59 -60q0 -16 -5 -30
q-20 -46 -53 -46zM175 596q-39 0 -39 45q0 26 15 44q-6 8 -6 19q1 12 9 20t20 8q59 -5 59 -60q0 -16 -5 -30q-20 -46 -53 -46z" />
    <glyph glyph-name="aring" unicode="&#xe5;" horiz-adv-x="903" 
d="M55 43q53 0 178 217q-1 88 -17 135q-12 35 -26 35q-52 0 -103 -109q-56 -121 -56 -216q0 -62 24 -62zM540 -25q-88 0 -135 40t-64.5 105.5t-17.5 139.5l1 39q-170 -324 -269 -324q-61 0 -78 78q-5 24 -5 52q0 59 21 135q40 145 117 220q38 37 80 37q75 0 95 -139
q41 81 58 121q8 19 27 19q13 0 21.5 -10t8.5 -24l-3 -24q-15 -112 -15 -180q0 -217 158 -217q174 0 363 218q9 10 21 10q11 0 21 -10q8 -11 8 -24t-8 -24q-208 -238 -405 -238zM258 526q-49 0 -79 36t-30 85t40 82t89 33q48 0 78 -34.5t30 -88.5q0 -49 -40 -81t-88 -32z
M258 574q28 0 53.5 18t25.5 47q0 34 -15.5 54.5t-43.5 20.5q-29 0 -54.5 -19t-25.5 -48t15.5 -51t44.5 -22z" />
    <glyph glyph-name="ae" unicode="&#xe6;" horiz-adv-x="975" 
d="M55 43q53 0 178 217q-1 88 -17 135q-12 35 -26 35q-52 0 -103 -109q-56 -121 -56 -216q0 -62 24 -62zM377 254q52 0 72 77q8 27 8 52q0 17 -4 31q-4 23 -12 23q-40 0 -76 -55q-25 -39 -34 -89q5 -17 14 -25t18 -11t14 -3zM269 201q-131 -226 -214 -226q-61 0 -78 78
q-5 24 -5 52q0 59 21 135q40 145 117 220q38 37 80 37q75 0 95 -139v-1q13 34 33 65q53 82 123 82q55 0 70 -75q5 -22 5 -47q0 -36 -10 -70q-34 -126 -129 -126q-17 0 -47 14q20 -157 178 -157q115 0 248 64q141 67 219 153q10 10 21 10q12 0 21 -10.5t9 -23.5t-9 -24
q-86 -95 -239 -168q-144 -69 -270 -69q-116 0 -178 71q-51 56 -61 155z" />
    <glyph glyph-name="ccedilla" unicode="&#xe7;" horiz-adv-x="797" 
d="M123 -2q-68 34 -103 118q-21 55 -21 134q0 101 32 170q40 77 105 77q49 0 82 -39.5t33 -97.5q-2 -35 -31 -35q-12 1 -20 10.5t-8 25.5q0 30 -15.5 48.5t-40.5 20.5q-32 0 -53 -44q-25 -43 -25 -136q0 -65 17 -107q36 -86 124 -99q26 -4 54 -4q76 0 164 28
q117 36 220.5 92t163.5 104q7 6 17 6q14 0 24 -13q6 -8 6 -21q0 -37 -185 -137q-109 -59 -230 -97q-95 -29 -179 -29q-33 0 -64 4q-10 1 -19 4q-6 -26 -6 -36q72 -25 72 -96q0 -98 -112 -98q-67 0 -67 37q0 16 10 23q6 5 12 5q4 0 8 -2q22 -9 49 -9q19 0 31.5 12t12.5 36
q0 32 -57 40q-20 3 -20 25q7 46 19 80z" />
    <glyph glyph-name="egrave" unicode="&#xe8;" horiz-adv-x="707" 
d="M109 254q52 0 72 77q7 27 7 52q0 17 -3 31q-4 23 -12 23q-40 0 -76 -55q-25 -39 -34 -89q5 -17 14 -25t18 -11t14 -3zM240 -25q-116 0 -178 71q-63 69 -63 203q0 95 51 173q53 82 123 82q55 0 70 -75q4 -22 4 -47q0 -36 -9 -70q-34 -126 -129 -126q-17 0 -47 14
q20 -157 178 -157q115 0 248 64q141 67 219 153q10 10 21 10q12 0 21 -10.5t9 -23.5t-9 -24q-86 -95 -239 -168q-144 -69 -270 -69zM173 560q-26 0 -54.5 42t-50.5 83q-16 28 -22.5 36.5t-6.5 18.5q0 14 8 22t18 8q13 0 22 -10.5t29 -46l40 -69.5q50 -10 50 -50q0 -7 -3 -14
q-8 -20 -30 -20z" />
    <glyph glyph-name="eacute" unicode="&#xe9;" horiz-adv-x="707" 
d="M109 254q52 0 72 77q7 27 7 52q0 17 -3 31q-4 23 -12 23q-40 0 -76 -55q-25 -39 -34 -89q5 -17 14 -25t18 -11t14 -3zM240 -25q-116 0 -178 71q-63 69 -63 203q0 95 51 173q53 82 123 82q55 0 70 -75q4 -22 4 -47q0 -36 -9 -70q-34 -126 -129 -126q-17 0 -47 14
q20 -157 178 -157q115 0 248 64q141 67 219 153q10 10 21 10q12 0 21 -10.5t9 -23.5t-9 -24q-86 -95 -239 -168q-144 -69 -270 -69zM274 770q22 0 30 -20q3 -7 3 -14q0 -40 -50 -50l-40 -69.5t-29 -46t-23 -10.5q-9 0 -17 8t-8 23q0 9 6.5 17.5t22.5 36.5q22 41 50.5 83
t54.5 42z" />
    <glyph glyph-name="ecircumflex" unicode="&#xea;" horiz-adv-x="707" 
d="M109 254q52 0 72 77q7 27 7 52q0 17 -3 31q-4 23 -12 23q-40 0 -76 -55q-25 -39 -34 -89q5 -17 14 -25t18 -11t14 -3zM240 -25q-116 0 -178 71q-63 69 -63 203q0 95 51 173q53 82 123 82q55 0 70 -75q4 -22 4 -47q0 -36 -9 -70q-34 -126 -129 -126q-17 0 -47 14
q20 -157 178 -157q115 0 248 64q141 67 219 153q10 10 21 10q12 0 21 -10.5t9 -23.5t-9 -24q-86 -95 -239 -168q-144 -69 -270 -69zM178 706q-41 -66 -54 -89q-20 -36 -29 -46.5t-22 -10.5q-10 0 -18 8t-8 23q0 9 6.5 17.5t22.5 36.5q22 41 50.5 83t54.5 42h7q13 0 22 -10.5
t29 -46l40 -69.5q50 -10 50 -50q0 -7 -3 -14q-8 -20 -30 -20q-26 0 -54.5 42t-50.5 83z" />
    <glyph glyph-name="edieresis" unicode="&#xeb;" horiz-adv-x="707" 
d="M109 254q52 0 72 77q7 27 7 52q0 17 -3 31q-4 23 -12 23q-40 0 -76 -55q-25 -39 -34 -89q5 -17 14 -25t18 -11t14 -3zM240 -25q-116 0 -178 71q-63 69 -63 203q0 95 51 173q53 82 123 82q55 0 70 -75q4 -22 4 -47q0 -36 -9 -70q-34 -126 -129 -126q-17 0 -47 14
q20 -157 178 -157q115 0 248 64q141 67 219 153q10 10 21 10q12 0 21 -10.5t9 -23.5t-9 -24q-86 -95 -239 -168q-144 -69 -270 -69zM265 596q-39 0 -39 45q0 26 15 44q-6 8 -6 19q1 12 9 20t20 8q59 -5 59 -60q0 -16 -5 -30q-20 -46 -53 -46zM99 596q-39 0 -39 45
q0 26 15 44q-6 8 -6 19q1 12 9 20t20 8q59 -5 59 -60q0 -16 -5 -30q-20 -46 -53 -46z" />
    <glyph glyph-name="igrave" unicode="&#xec;" horiz-adv-x="579" 
d="M216 -25q-88 0 -135 40t-64.5 105.5t-17.5 139.5q0 70 18 204q4 33 29 33q15 0 22.5 -11.5t7.5 -23.5q-18 -136 -18 -202q0 -217 158 -217q174 0 363 218q9 10 21 10q11 0 20.5 -10.5t9.5 -23.5t-9 -24q-206 -238 -405 -238zM65 560q-26 0 -54.5 42t-50.5 83
q-16 28 -22.5 36.5t-6.5 18.5q0 14 8 22t18 8q13 0 22 -10.5t29 -46l40 -69.5q50 -10 50 -50q0 -7 -3 -14q-8 -20 -30 -20z" />
    <glyph glyph-name="iacute" unicode="&#xed;" horiz-adv-x="579" 
d="M216 -25q-88 0 -135 40t-64.5 105.5t-17.5 139.5q0 70 18 204q4 33 29 33q15 0 22.5 -11.5t7.5 -23.5q-18 -136 -18 -202q0 -217 158 -217q174 0 363 218q9 10 21 10q11 0 20.5 -10.5t9.5 -23.5t-9 -24q-206 -238 -405 -238zM173 770q22 0 30 -20q3 -7 3 -14
q0 -40 -50 -50l-40 -69.5t-29 -46t-23 -10.5q-9 0 -17 8t-8 23q0 9 6.5 17.5t22.5 36.5q22 41 50.5 83t54.5 42z" />
    <glyph glyph-name="icircumflex" unicode="&#xee;" horiz-adv-x="579" 
d="M216 -25q-88 0 -135 40t-64.5 105.5t-17.5 139.5q0 70 18 204q4 33 29 33q15 0 22.5 -11.5t7.5 -23.5q-18 -136 -18 -202q0 -217 158 -217q174 0 363 218q9 10 21 10q11 0 20.5 -10.5t9.5 -23.5t-9 -24q-206 -238 -405 -238zM55 706q-41 -66 -54 -89q-20 -36 -29 -46.5
t-22 -10.5q-10 0 -18 8t-8 23q0 9 6.5 17.5t22.5 36.5q22 41 50.5 83t54.5 42h7q13 0 22 -10.5t29 -46l40 -69.5q50 -10 50 -50q0 -7 -3 -14q-8 -20 -30 -20q-26 0 -54.5 42t-50.5 83z" />
    <glyph glyph-name="idieresis" unicode="&#xef;" horiz-adv-x="579" 
d="M216 -25q-88 0 -135 40t-64.5 105.5t-17.5 139.5q0 70 18 204q4 33 29 33q15 0 22.5 -11.5t7.5 -23.5q-18 -136 -18 -202q0 -217 158 -217q174 0 363 218q9 10 21 10q11 0 20.5 -10.5t9.5 -23.5t-9 -24q-206 -238 -405 -238zM142 596q-39 0 -39 45q0 26 15 44q-6 8 -6 19
q1 12 9 20t20 8q59 -5 59 -60q0 -16 -5 -30q-20 -46 -53 -46zM-24 596q-39 0 -39 45q0 26 15 44q-6 8 -6 19q1 12 9 20t20 8q59 -5 59 -60q0 -16 -5 -30q-20 -46 -53 -46z" />
    <glyph glyph-name="eth" unicode="&#xf0;" horiz-adv-x="919" 
d="M74 43q44 0 92 86q26 49 46 106q2 30 2 56q0 79 -14 115q-9 23 -15 24q-38 0 -74 -60q-69 -114 -74 -249q0 -78 37 -78zM493 1305q-164 -615 -164 -946q0 -316 193 -316q89 0 190 57q111 61 207 161q9 9 21 9q12 -1 20 -11t8 -21q0 -16 -10 -27q-101 -106 -220 -172
q-114 -64 -216 -64q-156 0 -219 155q-18 45 -27 109l-8 -27q-87 -237 -194 -237q-71 0 -91 87q-5 27 -5 58q0 59 20 133q38 139 111 209q36 35 80 35q50 -4 72 -86l13.5 104.5t19.5 141.5q37 259 130 622q-49 -20 -99 -44q-11 -3 -18 -3q-36 0 -36 28q0 18 25 30
q81 39 148 65l34 124q23 84 34 128q5 25 29 25q17 0 24 -15q5 -10 5 -19t-34 -136q-1 -1 -1 -3l-22 -79l14 5q95 29 127 29q8 0 12 -2q16 -8 16 -26q0 -8 -8 -18t-23 -15q-77 -19 -158 -48z" />
    <glyph glyph-name="ntilde" unicode="&#xf1;" horiz-adv-x="859" 
d="M1 -25q-33 0 -33 34q14 211 78 464q6 24 26 24q30 0 30 -33q0 -5 -1 -9q-34 -140 -53 -262l37 82.5t71 101.5t106 58q40 -1 55 -37.5t15 -108.5v-28q0 -72 16 -123q32 -95 139 -95q87 0 181 56q105 63 191 162q9 10 21 10q11 0 20 -10.5t9 -23.5q0 -14 -8 -24
q-93 -106 -207 -174q-106 -63 -207 -63q-199 0 -213 223q-4 54 -4 99q0 69 -19 69q-26 0 -59 -36.5t-63 -102.5q-37 -82 -65 -150q-24 -58 -38 -85q-9 -18 -25 -18zM275 572q-39 0 -69 47q-12 18 -30 18q-19 0 -58 -25q-9 -6 -18 -6q-7 0 -19 7t-12 23q0 12 14 21
q64 42 101 42q36 0 65 -44q14 -21 33 -21q20 0 57 20q13 8 24 8q13 0 22 -13q5 -8 5 -15q0 -16 -22 -29q-56 -33 -93 -33z" />
    <glyph glyph-name="ograve" unicode="&#xf2;" horiz-adv-x="758" 
d="M113 -25q-56 0 -87 75q-29 68 -29 156q0 89 34 177q31 73 98 111q7 4 13 4q16 0 25 -18q15 17 39 17q66 -3 66 -151q0 -61 -11 -128q3 -4 7 -7q87 -69 227 -69q80 0 141.5 26t121.5 93q9 10 21 10q11 0 20 -10.5t9 -23.5q0 -14 -9 -24q-68 -77 -144 -109
q-69 -29 -156 -29h-17q-136 0 -236 72q-24 -94 -66 -140q-29 -32 -67 -32zM113 43q17 0 32 20.5t28.5 55t22.5 76.5q-59 74 -59 184q0 25 5 47q-38 -27 -58 -74q-28 -71 -28 -146q0 -73 22 -126q17 -37 35 -37zM210 294q3 28 3 52h-1q0 45 -7 75l1 9q-1 -1 -1 -2t-1 -3
q-7 -18 -7 -46q0 -48 13 -85zM216 560q-26 0 -54.5 42t-50.5 83q-16 28 -22.5 36.5t-6.5 18.5q0 14 8 22t18 8q13 0 22 -10.5t29 -46l40 -69.5q50 -10 50 -50q0 -7 -3 -14q-8 -20 -30 -20z" />
    <glyph glyph-name="oacute" unicode="&#xf3;" horiz-adv-x="758" 
d="M113 -25q-56 0 -87 75q-29 68 -29 156q0 89 34 177q31 73 98 111q7 4 13 4q16 0 25 -18q15 17 39 17q66 -3 66 -151q0 -61 -11 -128q3 -4 7 -7q87 -69 227 -69q80 0 141.5 26t121.5 93q9 10 21 10q11 0 20 -10.5t9 -23.5q0 -14 -9 -24q-68 -77 -144 -109
q-69 -29 -156 -29h-17q-136 0 -236 72q-24 -94 -66 -140q-29 -32 -67 -32zM113 43q17 0 32 20.5t28.5 55t22.5 76.5q-59 74 -59 184q0 25 5 47q-38 -27 -58 -74q-28 -71 -28 -146q0 -73 22 -126q17 -37 35 -37zM210 294q3 28 3 52h-1q0 45 -7 75l1 9q-1 -1 -1 -2t-1 -3
q-7 -18 -7 -46q0 -48 13 -85zM298 770q22 0 30 -20q3 -7 3 -14q0 -40 -50 -50l-40 -69.5t-29 -46t-23 -10.5q-9 0 -17 8t-8 23q0 9 6.5 17.5t22.5 36.5q22 41 50.5 83t54.5 42z" />
    <glyph glyph-name="ocircumflex" unicode="&#xf4;" horiz-adv-x="758" 
d="M113 -25q-56 0 -87 75q-29 68 -29 156q0 89 34 177q31 73 98 111q7 4 13 4q16 0 25 -18q15 17 39 17q66 -3 66 -151q0 -61 -11 -128q3 -4 7 -7q87 -69 227 -69q80 0 141.5 26t121.5 93q9 10 21 10q11 0 20 -10.5t9 -23.5q0 -14 -9 -24q-68 -77 -144 -109
q-69 -29 -156 -29h-17q-136 0 -236 72q-24 -94 -66 -140q-29 -32 -67 -32zM113 43q17 0 32 20.5t28.5 55t22.5 76.5q-59 74 -59 184q0 25 5 47q-38 -27 -58 -74q-28 -71 -28 -146q0 -73 22 -126q17 -37 35 -37zM210 294q3 28 3 52h-1q0 45 -7 75l1 9q-1 -1 -1 -2t-1 -3
q-7 -18 -7 -46q0 -48 13 -85zM184 706q-41 -66 -54 -89q-20 -36 -29 -46.5t-22 -10.5q-10 0 -18 8t-8 23q0 9 6.5 17.5t22.5 36.5q22 41 50.5 83t54.5 42h7q13 0 22 -10.5t29 -46l40 -69.5q50 -10 50 -50q0 -7 -3 -14q-8 -20 -30 -20q-26 0 -54.5 42t-50.5 83z" />
    <glyph glyph-name="otilde" unicode="&#xf5;" horiz-adv-x="758" 
d="M113 -25q-56 0 -87 75q-29 68 -29 156q0 89 34 177q31 73 98 111q7 4 13 4q16 0 25 -18q15 17 39 17q66 -3 66 -151q0 -61 -11 -128q3 -4 7 -7q87 -69 227 -69q80 0 141.5 26t121.5 93q9 10 21 10q11 0 20 -10.5t9 -23.5q0 -14 -9 -24q-68 -77 -144 -109
q-69 -29 -156 -29h-17q-136 0 -236 72q-24 -94 -66 -140q-29 -32 -67 -32zM113 43q17 0 32 20.5t28.5 55t22.5 76.5q-59 74 -59 184q0 25 5 47q-38 -27 -58 -74q-28 -71 -28 -146q0 -73 22 -126q17 -37 35 -37zM210 294q3 28 3 52h-1q0 45 -7 75l1 9q-1 -1 -1 -2t-1 -3
q-7 -18 -7 -46q0 -48 13 -85zM235 572q-39 0 -69 47q-12 18 -30 18q-19 0 -58 -25q-9 -6 -18 -6q-7 0 -19 7t-12 23q0 12 14 21q64 42 101 42q36 0 65 -44q14 -21 33 -21q20 0 57 20q13 8 24 8q13 0 22 -13q5 -8 5 -15q0 -16 -22 -29q-56 -33 -93 -33z" />
    <glyph glyph-name="odieresis" unicode="&#xf6;" horiz-adv-x="758" 
d="M113 -25q-56 0 -87 75q-29 68 -29 156q0 89 34 177q31 73 98 111q7 4 13 4q16 0 25 -18q15 17 39 17q66 -3 66 -151q0 -61 -11 -128q3 -4 7 -7q87 -69 227 -69q80 0 141.5 26t121.5 93q9 10 21 10q11 0 20 -10.5t9 -23.5q0 -14 -9 -24q-68 -77 -144 -109
q-69 -29 -156 -29h-17q-136 0 -236 72q-24 -94 -66 -140q-29 -32 -67 -32zM113 43q17 0 32 20.5t28.5 55t22.5 76.5q-59 74 -59 184q0 25 5 47q-38 -27 -58 -74q-28 -71 -28 -146q0 -73 22 -126q17 -37 35 -37zM210 294q3 28 3 52h-1q0 45 -7 75l1 9q-1 -1 -1 -2t-1 -3
q-7 -18 -7 -46q0 -48 13 -85zM252 596q-39 0 -39 45q0 26 15 44q-6 8 -6 19q1 12 9 20t20 8q59 -5 59 -60q0 -16 -5 -30q-20 -46 -53 -46zM86 596q-39 0 -39 45q0 26 15 44q-6 8 -6 19q1 12 9 20t20 8q59 -5 59 -60q0 -16 -5 -30q-20 -46 -53 -46z" />
    <glyph glyph-name="divide" unicode="&#xf7;" horiz-adv-x="734" 
d="M631 603q-17 0 -26 18q-4 8 -4 16l1 6q-25 3 -62 3q-171 0 -493 -41l-12 -1q-35 0 -35 35q0 28 41 33q308 42 493 42q57 0 90 -6q60 -9 60 -44q0 -34 -39 -58q-7 -3 -14 -3zM332 368q-42 0 -42 59q3 26 16 45q-7 10 -7 22q2 33 31 33q64 -6 64 -71q0 -43 -29 -73
q-16 -15 -33 -15zM332 791q-42 0 -42 59q3 26 16 45q-7 10 -7 22q2 33 31 33q64 -6 64 -71q0 -43 -29 -73q-16 -15 -33 -15z" />
    <glyph glyph-name="oslash" unicode="&#xf8;" horiz-adv-x="758" 
d="M138 353q-1 12 -1 26q0 25 5 47q-38 -27 -58 -74q-28 -71 -28 -146q0 -22 2 -43q24 68 49 124zM248 471q24 -36 24 -125q0 -61 -11 -128q3 -4 7 -7q87 -69 227 -69q80 0 141.5 26t121.5 93q9 10 21 10q11 0 20 -10.5t9 -23.5q0 -14 -9 -24q-68 -77 -144 -109
q-69 -29 -156 -29h-17q-136 0 -236 72q-24 -94 -66 -140q-29 -32 -67 -32q-36 0 -62 31q-21 -69 -42 -149q-5 -17 -20 -17l-6 1q-14 5 -14 22q0 3 1 7q26 101 53 188q-26 65 -26 148q0 89 34 177q31 73 98 111q7 4 13 4q16 0 25 -18q15 17 39 17q4 0 7 -1q45 80 100 169
q6 10 16 10q6 0 13 -5q8 -7 8 -19q0 -7 -4 -13q-54 -88 -98 -167zM76 85q1 -2 2 -5q17 -37 35 -37q17 0 32 20.5t28.5 55t22.5 76.5q-30 38 -45 86q-4 -8 -7 -16q-34 -78 -68 -180zM197 376q0 -46 13 -82q3 28 3 52h-1q0 30 -3 53z" />
    <glyph glyph-name="ugrave" unicode="&#xf9;" horiz-adv-x="855" 
d="M465 -25q-199 0 -208 239q-93 -239 -171 -239q-93 0 -93 171q0 127 45 325q5 25 27 25q31 0 31 -31q0 -7 -5 -31q-39 -168 -39 -288q0 -103 34 -103q35 0 105 171q45 108 92 261q7 22 27 22q6 0 11 -2q19 -9 19 -30l-1 -6q-25 -135 -25 -221q0 -78 20 -119.5t54 -58.5
t77 -17q106 0 207 56t183 160q9 11 22 11q11 0 20 -10t9 -25q0 -11 -8 -21q-89 -114 -201.5 -176.5t-231.5 -62.5zM200 560q-26 0 -54.5 42t-50.5 83q-16 28 -22.5 36.5t-6.5 18.5q0 14 8 22t18 8q13 0 22 -10.5t29 -46l40 -69.5q50 -10 50 -50q0 -7 -3 -14q-8 -20 -30 -20z
" />
    <glyph glyph-name="uacute" unicode="&#xfa;" horiz-adv-x="855" 
d="M465 -25q-199 0 -208 239q-93 -239 -171 -239q-93 0 -93 171q0 127 45 325q5 25 27 25q31 0 31 -31q0 -7 -5 -31q-39 -168 -39 -288q0 -103 34 -103q35 0 105 171q45 108 92 261q7 22 27 22q6 0 11 -2q19 -9 19 -30l-1 -6q-25 -135 -25 -221q0 -78 20 -119.5t54 -58.5
t77 -17q106 0 207 56t183 160q9 11 22 11q11 0 20 -10t9 -25q0 -11 -8 -21q-89 -114 -201.5 -176.5t-231.5 -62.5zM300 770q22 0 30 -20q3 -7 3 -14q0 -40 -50 -50l-40 -69.5t-29 -46t-23 -10.5q-9 0 -17 8t-8 23q0 9 6.5 17.5t22.5 36.5q22 41 50.5 83t54.5 42z" />
    <glyph glyph-name="ucircumflex" unicode="&#xfb;" horiz-adv-x="855" 
d="M465 -25q-199 0 -208 239q-93 -239 -171 -239q-93 0 -93 171q0 127 45 325q5 25 27 25q31 0 31 -31q0 -7 -5 -31q-39 -168 -39 -288q0 -103 34 -103q35 0 105 171q45 108 92 261q7 22 27 22q6 0 11 -2q19 -9 19 -30l-1 -6q-25 -135 -25 -221q0 -78 20 -119.5t54 -58.5
t77 -17q106 0 207 56t183 160q9 11 22 11q11 0 20 -10t9 -25q0 -11 -8 -21q-89 -114 -201.5 -176.5t-231.5 -62.5zM209 706q-41 -66 -54 -89q-20 -36 -29 -46.5t-22 -10.5q-10 0 -18 8t-8 23q0 9 6.5 17.5t22.5 36.5q22 41 50.5 83t54.5 42h7q13 0 22 -10.5t29 -46l40 -69.5
q50 -10 50 -50q0 -7 -3 -14q-8 -20 -30 -20q-26 0 -54.5 42t-50.5 83z" />
    <glyph glyph-name="udieresis" unicode="&#xfc;" horiz-adv-x="855" 
d="M465 -25q-199 0 -208 239q-93 -239 -171 -239q-93 0 -93 171q0 127 45 325q5 25 27 25q31 0 31 -31q0 -7 -5 -31q-39 -168 -39 -288q0 -103 34 -103q35 0 105 171q45 108 92 261q7 22 27 22q6 0 11 -2q19 -9 19 -30l-1 -6q-25 -135 -25 -221q0 -78 20 -119.5t54 -58.5
t77 -17q106 0 207 56t183 160q9 11 22 11q11 0 20 -10t9 -25q0 -11 -8 -21q-89 -114 -201.5 -176.5t-231.5 -62.5zM292 596q-39 0 -39 45q0 26 15 44q-6 8 -6 19q1 12 9 20t20 8q59 -5 59 -60q0 -16 -5 -30q-20 -46 -53 -46zM126 596q-39 0 -39 45q0 26 15 44q-6 8 -6 19
q1 12 9 20t20 8q59 -5 59 -60q0 -16 -5 -30q-20 -46 -53 -46z" />
    <glyph glyph-name="yacute" unicode="&#xfd;" horiz-adv-x="802" 
d="M14 -1088q59 19 151 624q-72 -131 -138 -350q-25 -95 -25 -188q0 -69 12 -86zM13 -1156q-71 0 -71 154q0 103 29 209q101 334 216 485q41 288 68 521q-95 -238 -170 -238q-93 0 -93 171q0 103 40 303l5 22q4 26 29 26q29 0 29 -38q-5 -20 -7 -31.5l-5 -27.5
q-31 -156 -31 -254q0 -103 33 -103q38 0 105 171q44 106 90 256q5 27 30 27q30 0 30 -33q0 -52 -36 -340q-19 -158 -46 -345q103 104 216 180q77 53 158.5 122t168.5 178q9 11 22 11q11 0 20 -9.5t10 -22.5q0 -13 -8 -24q-91 -114 -175.5 -185.5t-163.5 -126.5
q-71 -50 -137.5 -106t-128.5 -139q-31 -207 -89 -510t-138 -303zM293 770q22 0 30 -20q3 -7 3 -14q0 -40 -50 -50l-40 -69.5t-29 -46t-23 -10.5q-9 0 -17 8t-8 23q0 9 6.5 17.5t22.5 36.5q22 41 50.5 83t54.5 42z" />
    <glyph glyph-name="thorn" unicode="&#xfe;" horiz-adv-x="947" 
d="M43 91q93 436 243 436q39 0 55 -24t18 -56.5t2 -59.5q0 -49 -1 -70t-1 -45q0 -87 19 -136q35 -93 159 -93q103 0 219 63q124 67 191 153q9 12 23 12q10 0 19.5 -9.5t9.5 -25.5q0 -11 -7 -21q-76 -97 -212 -170q-129 -69 -243 -69q-92 0 -141.5 32.5t-70.5 84t-23.5 99
t-2.5 82.5l2 132q0 54 -15 54q-103 0 -190 -417q-94 -446 -113 -1137v-19.5t-1 -17.5q-6 -25 -30 -25q-19 0 -25 20q-5 13 -5 72q0 252 29 733q24 394 58.5 766.5t221.5 1043.5q23 84 33 128q7 25 29 25q18 0 25 -15q5 -10 5 -19q0 -5 -35 -137q-184 -667 -206.5 -930z" />
    <glyph glyph-name="ydieresis" unicode="&#xff;" horiz-adv-x="802" 
d="M14 -1088q59 19 151 624q-72 -131 -138 -350q-25 -95 -25 -188q0 -69 12 -86zM13 -1156q-71 0 -71 154q0 103 29 209q101 334 216 485q41 288 68 521q-95 -238 -170 -238q-93 0 -93 171q0 103 40 303l5 22q4 26 29 26q29 0 29 -38q-5 -20 -7 -31.5l-5 -27.5
q-31 -156 -31 -254q0 -103 33 -103q38 0 105 171q44 106 90 256q5 27 30 27q30 0 30 -33q0 -52 -36 -340q-19 -158 -46 -345q103 104 216 180q77 53 158.5 122t168.5 178q9 11 22 11q11 0 20 -9.5t10 -22.5q0 -13 -8 -24q-91 -114 -175.5 -185.5t-163.5 -126.5
q-71 -50 -137.5 -106t-128.5 -139q-31 -207 -89 -510t-138 -303zM292 596q-39 0 -39 45q0 26 15 44q-6 8 -6 19q1 12 9 20t20 8q59 -5 59 -60q0 -16 -5 -30q-20 -46 -53 -46zM126 596q-39 0 -39 45q0 26 15 44q-6 8 -6 19q1 12 9 20t20 8q59 -5 59 -60q0 -16 -5 -30
q-20 -46 -53 -46z" />
    <glyph glyph-name="dotlessi" unicode="&#x131;" horiz-adv-x="579" 
d="M216 -25q-88 0 -135 40t-64.5 105.5t-17.5 139.5q0 70 18 204q4 33 29 33q15 0 22.5 -11.5t7.5 -23.5q-18 -136 -18 -202q0 -217 158 -217q174 0 363 218q9 10 21 10q11 0 20.5 -10.5t9.5 -23.5t-9 -24q-206 -238 -405 -238z" />
    <glyph glyph-name="circumflex" unicode="&#x2c6;" horiz-adv-x="482" 
d="M232 706l-55 -89q-20 -36 -29 -46.5t-22 -10.5q-10 0 -18 8t-8 23q0 9 6.5 17.5t22.5 36.5q22 41 50.5 83t54.5 42h7q13 0 22 -10.5t29 -46l40 -69.5q50 -10 50 -50q0 -7 -3 -14q-8 -20 -30 -20q-26 0 -54.5 42t-50.5 83z" />
    <glyph glyph-name="caron" unicode="&#x2c7;" horiz-adv-x="482" 
d="M248 560q-20 0 -29 10.5t-29 46l-40 69.5q-50 10 -50 50q0 7 3 14q8 20 30 20q26 0 55 -42q13 -20 62 -104l86 135q7 11 20 11q10 0 18 -8t8 -23q0 -9 -6.5 -17.5t-22.5 -36.5q-22 -41 -50.5 -83t-54.5 -42z" />
    <glyph glyph-name="uni02C9" unicode="&#x2c9;" horiz-adv-x="494" 
d="M130 591q-11 0 -19 6q-11 9 -11 23q0 24 22 28q98 20 168 20q87 0 98 -14q6 -8 6 -18q0 -14 -8.5 -22t-19.5 -8q-42 4 -76 4q-64 0 -160 -19z" />
    <glyph glyph-name="breve" unicode="&#x2d8;" horiz-adv-x="485" 
d="M253 599h-20q-83 0 -128 76q-5 9 -5 16q0 26 27 26q8 0 14 -6q55 -56 88 -56q50 0 112 56q7 6 16 6q28 0 28 -27q0 -11 -8 -19q-71 -72 -124 -72z" />
    <glyph glyph-name="dotaccent" unicode="&#x2d9;" horiz-adv-x="296" 
d="M138 596q-38 0 -38 45q0 26 14 44q-6 8 -6 19q1 12 9 20t20 8q59 -5 59 -60q0 -16 -5 -30q-19 -46 -53 -46z" />
    <glyph glyph-name="ring" unicode="&#x2da;" horiz-adv-x="436" 
d="M208 526q-49 0 -78.5 36t-29.5 85t39.5 82t88.5 33t78.5 -34.5t29.5 -88.5q0 -49 -39.5 -81t-88.5 -32zM208 574q29 0 54.5 18t25.5 47q0 34 -15.5 54.5t-44.5 20.5t-54.5 -19t-25.5 -48t15.5 -51t44.5 -22z" />
    <glyph glyph-name="ogonek" unicode="&#x2db;" horiz-adv-x="379" 
d="M212 -232q-112 0 -112 98q0 63 109 155q9 9 18 15t18 6q11 0 18 -5.5t7 -17.5q0 -7 -8 -14q-106 -89 -106 -135q0 -24 12.5 -36t31.5 -12q27 0 49 9q4 2 8 2q6 0 12 -5q10 -7 10 -23q0 -37 -67 -37z" />
    <glyph glyph-name="tilde" unicode="&#x2dc;" horiz-adv-x="521" 
d="M306 572q-39 0 -69 47q-12 18 -30 18q-19 0 -58 -25q-9 -6 -18 -6q-7 0 -19 7t-12 23q0 12 14 21q64 42 101 42q36 0 65 -44q14 -21 33 -21q20 0 57 20q13 8 24 8q13 0 22 -13q5 -8 5 -15q0 -16 -22 -29q-56 -33 -93 -33z" />
    <glyph glyph-name="hungarumlaut" unicode="&#x2dd;" horiz-adv-x="1024" 
d="M150 770q22 0 30 -20q3 -7 3 -14q0 -40 -50 -50l-40 -69.5t-29 -46t-22 -10.5q-10 0 -18 8t-8 23q0 9 6.5 17.5t22.5 36.5q22 41 50.5 83t54.5 42zM317 770q22 0 30 -20q3 -7 3 -14q0 -40 -50 -50l-40 -69.5t-29 -46t-22 -10.5q-10 0 -18 8t-8 23q0 9 6.5 17.5t22.5 36.5
q22 41 50.5 83t54.5 42z" />
    <glyph glyph-name="endash" unicode="&#x2013;" horiz-adv-x="977" 
d="M56 315q-9 0 -19 7.5t-10 26.5q0 10 6 20q12 21 353 61q249 30 396 30q57 0 90 -6q60 -9 60 -44q0 -34 -39 -58q-7 -3 -14 -3q-17 0 -26 18q-3 8 -3 16v6q-25 3 -61 3q-149 0 -396 -29q-211 -25 -337 -48z" />
    <glyph glyph-name="emdash" unicode="&#x2014;" horiz-adv-x="1419" 
d="M56 315q-9 0 -19 7.5t-10 26.5q0 10 6 20q12 21 432 56t759 35q57 0 90 -6q60 -9 60 -44q0 -34 -39 -58q-7 -3 -14 -3q-17 0 -26 18q-3 8 -3 16v6q-25 3 -61 3q-341 0 -695 -27t-480 -50z" />
    <glyph glyph-name="quoteleft" unicode="&#x2018;" horiz-adv-x="374" 
d="M244 1395q18 0 26 -17q4 -8 4 -17q0 -19 -15 -29q-49 -34 -84 -100l-4 -7q15 -12 15 -37q0 -34 -18 -79q-20 -52 -51 -52q-19 0 -30 19q-7 13 -7 28q0 80 43.5 162t106.5 125q7 4 14 4z" />
    <glyph glyph-name="quoteright" unicode="&#x2019;" horiz-adv-x="374" 
d="M110 1057q-18 0 -26 17q-4 8 -4 17q0 20 15 29q49 34 84 100l4 7q-15 12 -15 37q0 34 18 79q20 52 51 52q19 0 30 -19q7 -13 7 -28q0 -80 -43.5 -162t-106.5 -125q-7 -4 -14 -4z" />
    <glyph glyph-name="quotesinglbase" unicode="&#x201a;" horiz-adv-x="374" 
d="M110 -259q-18 0 -26 17q-4 8 -4 17q0 20 15 29q49 34 84 100l4 7q-15 12 -15 37q0 34 18 79q20 52 51 52q19 0 30 -19q7 -13 7 -28q0 -80 -43.5 -162t-106.5 -125q-7 -4 -14 -4z" />
    <glyph glyph-name="quotedblleft" unicode="&#x201c;" horiz-adv-x="646" 
d="M244 1395q18 0 26 -17q4 -8 4 -17q0 -19 -15 -29q-49 -34 -84 -100l-4 -7q15 -12 15 -37q0 -34 -18 -79q-20 -52 -51 -52q-19 0 -30 19q-7 13 -7 28q0 80 43.5 162t106.5 125q7 4 14 4zM516 1395q18 0 26 -17q4 -8 4 -17q0 -19 -15 -29q-49 -34 -84 -100l-4 -7
q15 -12 15 -37q0 -34 -18 -79q-21 -52 -51 -52q-19 0 -30 19q-7 13 -7 28q0 80 43.5 162t106.5 125q7 4 14 4z" />
    <glyph glyph-name="quotedblright" unicode="&#x201d;" horiz-adv-x="646" 
d="M110 1057q-18 0 -26 17q-4 8 -4 17q0 20 15 29q49 34 84 100l4 7q-15 12 -15 37q0 34 18 79q20 52 51 52q19 0 30 -19q7 -13 7 -28q0 -80 -43.5 -162t-106.5 -125q-7 -4 -14 -4zM382 1057q-18 0 -26 17q-4 8 -4 17q0 20 15 29q49 34 84 100l4 7q-15 12 -15 37q0 34 18 79
q20 52 51 52q19 0 30 -19q7 -13 7 -28q0 -80 -43.5 -162t-106.5 -125q-7 -4 -14 -4z" />
    <glyph glyph-name="quotedblbase" unicode="&#x201e;" horiz-adv-x="646" 
d="M110 -169q-18 0 -26 17q-4 8 -4 17q0 20 15 29q49 34 84 100l4 7q-15 12 -15 37q0 34 18 79q20 52 51 52q19 0 30 -19q7 -13 7 -28q0 -80 -43.5 -162t-106.5 -125q-7 -4 -14 -4zM382 -169q-18 0 -26 17q-4 8 -4 17q0 20 15 29q49 34 84 100l4 7q-15 12 -15 37q0 34 18 79
q20 52 51 52q19 0 30 -19q7 -13 7 -28q0 -80 -43.5 -162t-106.5 -125q-7 -4 -14 -4z" />
    <glyph glyph-name="dagger" unicode="&#x2020;" horiz-adv-x="1005" 
d="M543 992q-72 -300 -114 -581q-69 -450 -121 -959l-15 -133q-1 -14 -10 -21.5t-20 -7.5q-13 0 -20.5 11.5t-7.5 24.5q2 19 3 31t4 30v6.5t0.5 6.5t1 9.5t2 18.5t3.5 32q53 512 122 965q41 271 110 560q-32 -3 -65 -7q-211 -25 -337 -48q-9 0 -19 7.5t-10 26.5q0 10 6 20
q12 21 353 61q46 6 89 10q39 159 86 324q7 24 28 24q18 0 26 -17q4 -9 4 -17q0 -5 -2 -11q-43 -150 -80 -297q146 14 245 14q57 0 90 -6q60 -9 60 -44q0 -34 -39 -58q-7 -3 -14 -3q-17 0 -26 18q-3 8 -3 16v6q-25 3 -61 3q-108 0 -269 -15z" />
    <glyph glyph-name="daggerdbl" unicode="&#x2021;" horiz-adv-x="1015" 
d="M498 1055q39 159 86 324q7 24 28 24q18 0 26 -17q4 -9 4 -17q0 -5 -2 -11q-43 -150 -80 -297q146 14 245 14q57 0 90 -6q60 -9 60 -44q0 -34 -39 -58q-7 -3 -14 -3q-17 0 -26 18q-3 8 -3 16v6q-25 3 -61 3q-108 0 -269 -15q-72 -300 -114 -581q-40 -260 -74 -540
q168 17 278 17q57 0 90 -6q60 -9 60 -44q0 -34 -39 -58q-7 -3 -14 -3q-17 0 -26 18q-3 8 -3 16v6q-25 3 -61 3q-117 0 -293 -18q-21 -171 -39 -350l-15 -133q-1 -14 -10 -21.5t-20 -7.5q-13 0 -20.5 11.5t-7.5 24.5q2 19 3 31t4 30v6.5t0.5 6.5t1 9.5t2 18.5t3.5 32l37 336
q-21 -2 -42 -5q-211 -25 -337 -48q-9 0 -19 7.5t-10 26.5q0 10 6 20q12 21 353 61l58 7q35 290 76 560q41 271 110 560q-32 -3 -65 -7q-211 -25 -337 -48q-9 0 -19 7.5t-10 26.5q0 10 6 20q12 21 353 61q46 6 89 10z" />
    <glyph glyph-name="bullet" unicode="&#x2022;" horiz-adv-x="447" 
d="M195 299q-42 0 -72 38q-23 33 -23 95q0 124 86 176q10 5 19 5q21 0 30 -16l3 -3q16 7 34 7q75 0 75 -113q-2 -75 -42 -125q-51 -64 -110 -64z" />
    <glyph glyph-name="ellipsis" unicode="&#x2026;" horiz-adv-x="2048" 
d="M142 -80q-42 0 -42 59q3 27 16 45q-7 10 -7 22q2 33 31 33q64 -5 64 -70q0 -43 -29 -73q-16 -16 -33 -16zM825 -80q-42 0 -42 59q3 27 16 45q-7 10 -7 22q2 33 31 33q64 -5 64 -70q0 -43 -29 -73q-16 -16 -33 -16zM1508 -80q-42 0 -42 59q3 27 16 45q-7 10 -7 22
q2 33 31 33q64 -5 64 -70q0 -43 -29 -73q-16 -16 -33 -16z" />
    <glyph glyph-name="guilsinglleft" unicode="&#x2039;" horiz-adv-x="456" 
d="M321 542q8 0 15 -3q20 -10 20 -31q0 -6 -3 -12q-89 -153 -181 -285q60 -79 135 -168q7 -8 7 -18q0 -19 -19 -27h-8q-41 0 -175 182q-12 16 -12 32q0 15 10.5 29.5l20.5 27.5q54 72 164 258q9 15 26 15z" />
    <glyph glyph-name="guilsinglright" unicode="&#x203a;" horiz-adv-x="456" 
d="M135 -2q-8 0 -15 3q-20 10 -20 31q0 6 3 12q89 153 181 285q-60 79 -135 168q-7 8 -7 18q0 19 19 27h8q41 0 175 -182q12 -16 12 -32q0 -15 -10.5 -29.5l-20.5 -27.5q-54 -72 -164 -258q-9 -15 -26 -15z" />
    <glyph glyph-name="fraction" unicode="&#x2044;" horiz-adv-x="146" 
d="M-169 -254q-19 0 -26 15q-5 10 -5 18l1 10q47 179 95 391q71 328 165 656t230 566q10 15 26 15q8 0 15 -6q14 -11 14 -27q0 -10 -6 -20q-134 -234 -225.5 -557t-162.5 -645q-90 -401 -106 -411q-8 -5 -15 -5z" />
    <glyph glyph-name="fraction" unicode="&#x2215;" horiz-adv-x="146" 
d="M-169 -254q-19 0 -26 15q-5 10 -5 18l1 10q47 179 95 391q71 328 165 656t230 566q10 15 26 15q8 0 15 -6q14 -11 14 -27q0 -10 -6 -20q-134 -234 -225.5 -557t-162.5 -645q-90 -401 -106 -411q-8 -5 -15 -5z" />
    <glyph glyph-name="lira" unicode="&#x20a4;" horiz-adv-x="716" 
d="M265 591v39q0 67 2.5 153.5t21 172t62.5 136.5t126 51q116 0 116 -219q0 -54 -10 -134q-2 -14 -11.5 -21.5t-19.5 -7.5q-13 0 -22 14q-6 9 -6 25q9 68 9 121q0 28 -2 57q-7 97 -54 97q-59 0 -91 -45q-58 -81 -60 -293v-132q67 13 130 13q48 0 72 -9q36 -11 36 -32
q0 -14 -12.5 -29.5t-30.5 -15.5q-17 0 -26 15q-14 3 -42 3q-62 0 -127 -14v-49q70 14 164 21q12 0 21 -9t10 -23q0 -14 -7.5 -24.5t-20.5 -11.5q-96 -7 -168 -21q0 -98 -1 -138q-3 -90 -24 -184q37 -1 79 -5q50 -6 102 -6q51 0 94 18q5 2 11 2q21 0 27 -22q3 -6 3 -13
q0 -21 -19 -30q-53 -22 -127 -22q-49 0 -95.5 5t-95.5 5q-36 -94 -89 -102q-16 0 -28 8q-16 16 -16 39q0 12 5 27q25 75 86 90q24 88 28 205q2 54 2 109q-52 -12 -112 -31l-8 -1q-8 0 -16 6q-13 8 -13 29q0 24 22 31q69 21 127 35l-1 48q-61 -18 -125 -47q-6 -3 -12 -3
q-5 0 -14 4q-15 8 -15 30t18 31q76 34 147 54z" />
    <glyph glyph-name="Euro" unicode="&#x20ac;" horiz-adv-x="648" 
d="M191 596q5 48 12 97q20 134 59 238q78 209 211 209q124 -8 124 -259q0 -107 -17 -121q-7 -6 -17 -6q-15 0 -24 13q-6 9 -6 24q5 36 5 90q0 68 -15 134q-15 58 -50 58q-93 0 -157 -169q-48 -130 -64 -296q57 10 111 10q48 0 72 -9q36 -11 36 -32q0 -14 -12.5 -29.5
t-30.5 -15.5q-17 0 -26 15q-14 3 -42 3q-55 0 -114 -11l-2 -50q66 12 153 19q12 0 21 -9t10 -23q0 -14 -7.5 -24.5t-20.5 -11.5q-89 -6 -157 -19q0 -180 42 -310q37 -99 90 -99q24 0 52 34q26 35 39 111q6 28 30 28q29 -2 29 -34l-1 -7q-17 -93 -51 -140q-43 -60 -98 -60
q-95 0 -144 142q-46 138 -48 322q-55 -14 -121 -34l-8 -1q-8 0 -16 6q-13 8 -13 29q0 24 22 31q75 23 137 38q0 24 2 48q-67 -18 -138 -50q-6 -3 -12 -3q-5 0 -14 4q-15 8 -15 30t18 31q86 38 166 59z" />
    <glyph glyph-name="trademark" unicode="&#x2122;" horiz-adv-x="1455" 
d="M290 787q-6 0 -9 4.5t-3 9.5q1 8 3 27t3 27q24 205 55 386q21 121 57 252q-122 -30 -195 -77q-83 -54 -83 -125q0 -22 17 -44q15 -19 45 -28q10 -3 10 -13q0 -8 -6 -11q-4 -3 -8 -3l-3 1q-59 17 -76 67q-6 16 -6 31q0 43 24 78q67 101 289 154l31 99q3 10 12 10
q8 0 12 -7q1 -3 1 -7v-4q-14 -43 -26 -84q31 7 63 12q113 17 193 17q53 0 79 -9q23 -8 23 -22q0 -12 -19 -22q-3 -2 -6 -2q-7 0 -11 8q-2 3 -2 6q0 8 7 12q3 2 5 2h-79q-78 0 -186 -17q-38 -6 -76 -15q-38 -137 -60 -265q-31 -180 -54 -383l-7 -54q-2 -11 -14 -11zM819 787
q-22 0 -26 49q-1 14 -1 31q0 83 20 208q28 171 78 294q16 156 23 231l2 20q1 5 5 8.5t9 3.5q6 0 9.5 -4.5t3.5 -9.5q0 -4 -18 -179q57 102 126 102q47 0 57 -94q3 -31 3 -69q0 -27 -1 -58q17 38 37.5 67t43 46t48.5 17q32 0 43.5 -23t11.5 -61q0 -40 -13 -122
q-15 -92 -15 -140q0 -31 6 -57q9 -38 41 -50q9 -4 9 -13q0 -8 -6 -12q-4 -1 -7 -1h-4q-42 16 -53.5 53.5t-11.5 77.5q0 55 15 146q12 85 12 118q0 26 -6 41.5t-22 15.5q-27 0 -51.5 -26t-46 -68.5t-38.5 -95.5q-2 -14 -3 -29q-15 -128 -38 -226.5t-28 -98.5q-17 0 -19 27
q-1 8 -1 17q0 54 19 148q16 81 44 165q8 86 8 142q0 82 -14 117q-7 19 -20 19q-74 0 -135 -149q-40 -578 -96 -578zM819 814q11 0 58 437q-43 -157 -56 -317q-2 -38 -2 -66q0 -17 1 -34q0 -11 -1 -18v-2z" />
    <glyph glyph-name="minus" unicode="&#x2212;" horiz-adv-x="734" 
d="M631 603q-17 0 -26 18q-4 8 -4 16l1 6q-25 3 -62 3q-171 0 -493 -41l-12 -1q-35 0 -35 35q0 28 41 33q308 42 493 42q57 0 90 -6q60 -9 60 -44q0 -34 -39 -58q-7 -3 -14 -3z" />
    <glyph glyph-name="approxequal" unicode="&#x2248;" horiz-adv-x="627" 
d="M129 249q-13 0 -21 11.5t-8 21.5q0 18 11 28q82 70 127 87q23 8 40 8q38 0 70 -52q15 -23 35 -23q10 0 30 6t69 42q7 6 16 6q14 0 25 -16q5 -9 5 -18q0 -18 -14 -29q-86 -63 -138 -63q-40 0 -74 53q-12 22 -31 22q-35 0 -124 -77q-8 -7 -18 -7zM129 93q-13 0 -21 11.5
t-8 21.5q0 18 11 28q82 70 127 87q23 8 40 8q38 0 70 -52q15 -24 35 -24q10 0 30 6.5t69 42.5q7 6 16 6q14 0 25 -16q5 -9 5 -19q0 -17 -14 -28q-86 -63 -138 -63q-40 0 -74 53q-12 22 -31 22q-35 0 -124 -77q-8 -7 -18 -7z" />
    <glyph glyph-name="lessequal" unicode="&#x2264;" horiz-adv-x="665" 
d="M446 167q-22 0 -29 23q-15 40 -75 49q-48 8 -110 8h-14q-38 0 -62 2.5t-40 13.5t-16 36q0 75 304 179q120 41 132 41q29 0 29 -35q0 -24 -23 -32q-32 -8 -121 -38.5t-173 -67.5q-89 -41 -89 -47q0 -4 3 -4q4 0 13.5 5t21.5 10t42 5q41 0 89 -5t89 -27t57 -72l1 -10
q0 -8 -4 -18q-8 -16 -25 -16zM631 0q-17 0 -26 18q-4 8 -4 16l1 6q-25 3 -62 3q-171 0 -493 -41l-12 -1q-35 0 -35 35q0 28 41 33q308 42 493 42q57 0 90 -6q60 -9 60 -44q0 -34 -39 -58q-7 -3 -14 -3z" />
    <glyph glyph-name="greaterequal" unicode="&#x2265;" horiz-adv-x="665" 
d="M219 519q22 0 29 -23q15 -40 75 -49q53 -9 124 -9q38 0 62 -2t40 -13t16 -36q0 -76 -304 -179q-120 -41 -132 -41q-29 0 -29 35q0 24 23 32q32 8 121 38.5t173 67.5q89 41 89 47q0 4 -3 4q-4 0 -13.5 -5t-21.5 -10t-42 -5q-41 0 -89 5t-89 27t-57 72l-1 10q0 8 4 18
q8 16 25 16zM631 0q-17 0 -26 18q-4 8 -4 16l1 6q-25 3 -62 3q-171 0 -493 -41l-12 -1q-35 0 -35 35q0 28 41 33q308 42 493 42q57 0 90 -6q60 -9 60 -44q0 -34 -39 -58q-7 -3 -14 -3z" />
    <glyph glyph-name="uni0237" unicode="&#x237;" horiz-adv-x="540" 
d="M-248 -1156q-71 0 -71 154q0 103 29 209q101 334 216 485q59 417 84 672q9 79 9 100q0 14 8.5 23.5t21.5 9.5q29 0 29 -37q0 -39 -35 -336q-19 -158 -46 -345q103 104 216 180q77 53 158.5 122t168.5 178q9 11 22 11q11 0 20 -9.5t9 -25.5q0 -11 -7 -21
q-91 -114 -176 -185.5t-163 -126.5q-71 -50 -137.5 -106t-128.5 -139q-32 -207 -69 -391.5t-77.5 -303t-80.5 -118.5zM-248 -1088q60 19 151 624q-71 -131 -137 -350q-26 -95 -26 -188q0 -69 12 -86z" />
    <glyph glyph-name="uni02BB" unicode="&#x2bb;" horiz-adv-x="336" 
d="M215 800q12 0 18 -13q3 -5 3 -11q0 -14 -11 -21q-34 -24 -58 -70l-3 -5q10 -8 10 -26q0 -23 -12 -55q-15 -36 -36 -36q-13 0 -21 13q-5 9 -5 20q0 56 30.5 113t74.5 88q5 3 10 3z" />
    <glyph glyph-name="uni02BC" unicode="&#x2bc;" horiz-adv-x="336" 
d="M121 563q-13 0 -18 12q-3 6 -3 12q0 13 11 20q34 24 58 70l3 5q-10 8 -10 26q0 24 12 55q14 37 36 37q13 0 21 -14q5 -9 5 -19q0 -56 -30.5 -113.5t-74.5 -87.5q-5 -3 -10 -3z" />
    <glyph glyph-name="uni02CA" unicode="&#x2ca;" horiz-adv-x="367" 
d="M234 770q22 0 30 -20q3 -7 3 -14q0 -40 -50 -50l-40 -69.5t-29 -46t-22 -10.5q-10 0 -18 8t-8 23q0 9 6.5 17.5t22.5 36.5q22 41 50.5 83t54.5 42z" />
    <glyph glyph-name="uni02CB" unicode="&#x2cb;" horiz-adv-x="367" 
d="M234 560q-26 0 -54.5 42t-50.5 83q-16 28 -22.5 36.5t-6.5 18.5q0 14 8 22t18 8q13 0 22 -10.5t29 -46l40 -69.5q50 -10 50 -50q0 -7 -3 -14q-8 -20 -30 -20z" />
    <glyph glyph-name="uni02CD" unicode="&#x2cd;" horiz-adv-x="668" 
d="M152 -250h-8q-14 0 -26 7q-18 9 -18 27q0 26 36 32q160 24 269 24q135 0 152 -17q10 -8 10 -21q0 -16 -13.5 -25.5t-30.5 -9.5q-64 5 -117 5q-108 0 -254 -22z" />
    <glyph glyph-name="uni02F7" unicode="&#x2f7;" horiz-adv-x="521" 
d="M306 -287q-39 0 -69 47q-12 18 -30 18q-19 0 -58 -25q-9 -6 -18 -6q-7 0 -19 7t-12 23q0 12 14 21q64 42 101 42q36 0 65 -44q14 -21 33 -21q20 0 57 20q13 8 24 8q13 0 22 -13q5 -8 5 -15q0 -16 -22 -29q-56 -33 -93 -33z" />
    <glyph glyph-name="gravecomb" unicode="&#x300;" horiz-adv-x="367" 
d="M234 560q-26 0 -54.5 42t-50.5 83q-16 28 -22.5 36.5t-6.5 18.5q0 14 8 22t18 8q13 0 22 -10.5t29 -46l40 -69.5q50 -10 50 -50q0 -7 -3 -14q-8 -20 -30 -20z" />
    <glyph glyph-name="acutecomb" unicode="&#x301;" horiz-adv-x="367" 
d="M234 770q22 0 30 -20q3 -7 3 -14q0 -40 -50 -50l-40 -69.5t-29 -46t-22 -10.5q-10 0 -18 8t-8 23q0 9 6.5 17.5t22.5 36.5q22 41 50.5 83t54.5 42z" />
    <glyph glyph-name="uni0302" unicode="&#x302;" horiz-adv-x="482" 
d="M232 706l-55 -89q-20 -36 -29 -46.5t-22 -10.5q-10 0 -18 8t-8 23q0 9 6.5 17.5t22.5 36.5q22 41 50.5 83t54.5 42h7q13 0 22 -10.5t29 -46l40 -69.5q50 -10 50 -50q0 -7 -3 -14q-8 -20 -30 -20q-26 0 -54.5 42t-50.5 83z" />
    <glyph glyph-name="tildecomb" unicode="&#x303;" horiz-adv-x="521" 
d="M306 572q-39 0 -69 47q-12 18 -30 18q-19 0 -58 -25q-9 -6 -18 -6q-7 0 -19 7t-12 23q0 12 14 21q64 42 101 42q36 0 65 -44q14 -21 33 -21q20 0 57 20q13 8 24 8q13 0 22 -13q5 -8 5 -15q0 -16 -22 -29q-56 -33 -93 -33z" />
    <glyph glyph-name="uni0304" unicode="&#x304;" horiz-adv-x="495" 
d="M130 591q-11 0 -19 6q-11 9 -11 23q0 24 22 28q98 20 169 20q87 0 97 -14q7 -8 7 -18q0 -14 -9 -22t-19 -8q-42 4 -76 4q-64 0 -161 -19z" />
    <glyph glyph-name="uni0306" unicode="&#x306;" horiz-adv-x="485" 
d="M253 599h-20q-83 0 -128 76q-5 9 -5 16q0 26 27 26q8 0 14 -6q55 -56 88 -56q50 0 112 56q7 6 16 6q28 0 28 -27q0 -11 -8 -19q-71 -72 -124 -72z" />
    <glyph glyph-name="uni0307" unicode="&#x307;" horiz-adv-x="296" 
d="M138 596q-38 0 -38 45q0 26 14 44q-6 8 -6 19q1 12 9 20t20 8q59 -5 59 -60q0 -16 -5 -30q-19 -46 -53 -46z" />
    <glyph glyph-name="uni0308" unicode="&#x308;" horiz-adv-x="462" 
d="M304 596q-38 0 -38 45q0 26 14 44q-6 8 -6 19q1 12 9 20t20 8q59 -5 59 -60q0 -16 -5 -30q-19 -46 -53 -46zM138 596q-38 0 -38 45q0 26 14 44q-6 8 -6 19q1 12 9 20t20 8q59 -5 59 -60q0 -16 -5 -30q-19 -46 -53 -46z" />
    <glyph glyph-name="uni0310" unicode="&#x310;" horiz-adv-x="485" 
d="M253 599h-20q-83 0 -128 76q-5 9 -5 16q0 26 27 26q8 0 14 -6q55 -56 88 -56q50 0 112 56q7 6 16 6q28 0 28 -27q0 -11 -8 -19q-71 -72 -124 -72zM232 717q-38 0 -38 45q0 26 14 44q-6 8 -6 19q1 12 9 20t20 8q60 -5 60 -60q-1 -15 -6 -30q-19 -46 -53 -46z" />
    <glyph glyph-name="uni0315" unicode="&#x315;" horiz-adv-x="336" 
d="M121 1395q-13 0 -18 12q-3 6 -3 12q0 14 11 21q34 23 58 70l3 4q-10 9 -10 26q0 24 12 56q14 36 36 36q13 0 21 -13q5 -9 5 -20q0 -56 -30.5 -113.5t-74.5 -87.5q-5 -3 -10 -3z" />
    <glyph glyph-name="dotbelowcomb" unicode="&#x323;" horiz-adv-x="289" 
d="M136 -295q-36 0 -36 50q2 23 14 38q-6 9 -6 19q2 28 26 28q55 -5 55 -60q0 -37 -26 -62q-13 -13 -27 -13z" />
    <glyph glyph-name="uni0324" unicode="&#x324;" horiz-adv-x="462" 
d="M304 -296q-38 0 -38 45q0 26 14 44q-6 8 -6 19q1 12 9 20t20 8q59 -5 59 -60q0 -16 -5 -30q-19 -46 -53 -46zM138 -296q-38 0 -38 45q0 26 14 44q-6 8 -6 19q1 12 9 20t20 8q59 -5 59 -60q0 -16 -5 -30q-19 -46 -53 -46z" />
    <glyph glyph-name="uni0325" unicode="&#x325;" horiz-adv-x="436" 
d="M208 -396q-49 0 -78.5 36t-29.5 85t39.5 82t88.5 33t78.5 -34.5t29.5 -88.5q0 -49 -39.5 -81t-88.5 -32zM208 -348q29 0 54.5 18t25.5 47q0 34 -15.5 54.5t-44.5 20.5t-54.5 -19t-25.5 -48t15.5 -51t44.5 -22z" />
    <glyph glyph-name="uni0326" unicode="&#x326;" horiz-adv-x="336" 
d="M121 -397q-13 0 -18 12q-3 6 -3 12q0 14 11 21q34 23 58 70l3 4q-10 9 -10 26q0 24 12 56q14 36 36 36q13 0 21 -13q5 -9 5 -20q0 -56 -30.5 -113.5t-74.5 -87.5q-5 -3 -10 -3z" />
    <glyph glyph-name="ordfeminine" unicode="&#xaa;" horiz-adv-x="569" 
d="M35 1084q41 0 138 152q-1 62 -14 95q-9 24 -20 24q-40 0 -79 -76q-43 -84 -43 -151q0 -44 18 -44zM409 1037q-68 0 -104 28t-49.5 74t-13.5 97l1 28q-131 -227 -208 -227q-47 0 -60 54q-3 17 -3 37q0 41 16 94q31 102 90 154q29 26 61 26q58 0 74 -97q31 57 44 85
q6 13 21 13q10 0 16.5 -7t6.5 -17l-2 -16q-12 -79 -12 -127q0 -152 122 -152q134 0 280 153q6 7 16 7q8 0 16 -7q6 -8 6 -17t-6 -17q-160 -166 -312 -166zM54 860h-2q-5 0 -10 4.5t-5 15.5q0 6 3 12q6 12 177 36q124 17 197 17q29 0 46 -3q30 -6 30 -26q0 -21 -20 -34
q-3 -2 -7 -2q-9 0 -13 11q-2 4 -2 9l1 3q-13 2 -31 2q-75 0 -198 -17q-105 -14 -166 -28z" />
    <glyph glyph-name="ordmasculine" unicode="&#xba;" horiz-adv-x="406" 
d="M-102 776q-16 0 -16 24q0 7 3 14q6 15 177 43q124 20 198 20q28 0 45 -4q30 -6 30 -31q0 -24 -19 -40q-4 -2 -7 -2q-9 0 -13 13q-2 5 -2 15q-13 2 -31 2q-74 0 -198 -20q-105 -18 -167 -34zM98 1042q15 0 28 16.5t25 44t20 60.5q-52 59 -52 146q0 19 4 37
q-33 -22 -50 -59q-24 -56 -24 -116q0 -57 19 -99q14 -30 30 -30zM183 1242q2 22 2 41q0 35 -7 59l1 7l-1 -4q-7 -14 -7 -36q0 -38 12 -67zM98 989q-49 0 -76 59q-25 54 -25 124t30 140q27 58 85 88q6 3 11 3q15 0 22 -14q13 14 34 14q58 -3 58 -120q0 -49 -10 -102
q16 -13 35 -23q23 -12 23 -30q0 -5 -2 -10q-6 -16 -20 -16q-13 0 -49 23q-38 -136 -116 -136z" />
    <glyph glyph-name="Amacron" unicode="&#x100;" horiz-adv-x="1301" 
d="M541 412q99 11 255 11q92 0 163 -6q63 430 80 561q19 148 19 252q0 105 -39 105q-62 0 -151 -126.5t-192 -390.5q-70 -180 -135 -406zM863 -710q-13 0 -20.5 10t-7.5 23q42 493 115 1028q-68 5 -158 5q-138 0 -271 -15q-95 -349 -177 -802q-5 -27 -27 -27q-17 0 -25 14
q-1 3 -1 10q76 451 167 797q-73 -11 -146 -26q-181 -38 -322 -113q-7 -4 -13 -4q-18 0 -27 19q-3 7 -3 14q0 22 17 31q146 79 333 119q99 20 181 32q68 247 144 441q111 284 215 420t182 136q53 0 76 -47t23 -140q0 -95 -19.5 -244t-50.5 -353q-16 -105 -30 -208
q61 -9 104 -24q61 -22 61 -62q0 -44 -62 -71q-5 -2 -10 -2q-20 0 -28 22q-2 6 -2 12q0 22 17.5 29t22.5 10.5t5 7.5q-7 -7 -14 -7q-59 15 -103 20q-72 -526 -116 -1025q-3 -30 -30 -30zM939 1496q-11 0 -19 6q-11 9 -11 23q0 24 22 28q98 20 168 20q88 0 98 -14q6 -8 6 -18
q0 -14 -8.5 -22t-19.5 -8q-42 4 -76 4q-63 0 -160 -19z" />
    <glyph glyph-name="amacron" unicode="&#x101;" horiz-adv-x="903" 
d="M55 43q53 0 178 217q-1 88 -17 135q-12 35 -26 35q-52 0 -103 -109q-56 -121 -56 -216q0 -62 24 -62zM540 -25q-88 0 -135 40t-64.5 105.5t-17.5 139.5l1 39q-170 -324 -269 -324q-61 0 -78 78q-5 24 -5 52q0 59 21 135q40 145 117 220q38 37 80 37q75 0 95 -139
q41 81 58 121q8 19 27 19q13 0 21.5 -10t8.5 -24l-3 -24q-15 -112 -15 -180q0 -217 158 -217q174 0 363 218q9 10 21 10q11 0 21 -10q8 -11 8 -24t-8 -24q-208 -238 -405 -238zM134 591q-10 0 -18 6q-12 9 -12 23q0 24 23 28q98 20 168 20q87 0 98 -14q6 -8 6 -18
q0 -14 -8.5 -22t-19.5 -8q-42 4 -76 4q-64 0 -161 -19z" />
    <glyph glyph-name="Abreve" unicode="&#x102;" horiz-adv-x="1301" 
d="M541 412q99 11 255 11q92 0 163 -6q63 430 80 561q19 148 19 252q0 105 -39 105q-62 0 -151 -126.5t-192 -390.5q-70 -180 -135 -406zM863 -710q-13 0 -20.5 10t-7.5 23q42 493 115 1028q-68 5 -158 5q-138 0 -271 -15q-95 -349 -177 -802q-5 -27 -27 -27q-17 0 -25 14
q-1 3 -1 10q76 451 167 797q-73 -11 -146 -26q-181 -38 -322 -113q-7 -4 -13 -4q-18 0 -27 19q-3 7 -3 14q0 22 17 31q146 79 333 119q99 20 181 32q68 247 144 441q111 284 215 420t182 136q53 0 76 -47t23 -140q0 -95 -19.5 -244t-50.5 -353q-16 -105 -30 -208
q61 -9 104 -24q61 -22 61 -62q0 -44 -62 -71q-5 -2 -10 -2q-20 0 -28 22q-2 6 -2 12q0 22 17.5 29t22.5 10.5t5 7.5q-7 -7 -14 -7q-59 15 -103 20q-72 -526 -116 -1025q-3 -30 -30 -30zM1076 1504h-20q-83 0 -128 76q-5 9 -5 16q0 26 26 26q9 0 15 -6q55 -56 88 -56
q49 0 112 56q7 6 16 6q27 0 27 -27q0 -11 -7 -19q-71 -72 -124 -72z" />
    <glyph glyph-name="abreve" unicode="&#x103;" horiz-adv-x="903" 
d="M55 43q53 0 178 217q-1 88 -17 135q-12 35 -26 35q-52 0 -103 -109q-56 -121 -56 -216q0 -62 24 -62zM540 -25q-88 0 -135 40t-64.5 105.5t-17.5 139.5l1 39q-170 -324 -269 -324q-61 0 -78 78q-5 24 -5 52q0 59 21 135q40 145 117 220q38 37 80 37q75 0 95 -139
q41 81 58 121q8 19 27 19q13 0 21.5 -10t8.5 -24l-3 -24q-15 -112 -15 -180q0 -217 158 -217q174 0 363 218q9 10 21 10q11 0 21 -10q8 -11 8 -24t-8 -24q-208 -238 -405 -238zM278 599h-20q-83 0 -128 76q-5 9 -5 16q0 26 27 26q8 0 14 -6q55 -56 88 -56q50 0 112 56
q7 6 16 6q28 0 28 -27q0 -11 -8 -19q-71 -72 -124 -72z" />
    <glyph glyph-name="Aogonek" unicode="&#x104;" horiz-adv-x="1301" 
d="M541 412q99 11 255 11q92 0 163 -6q63 430 80 561q19 148 19 252q0 105 -39 105q-62 0 -151 -126.5t-192 -390.5q-70 -180 -135 -406zM837 -689q-2 6 -2 12q42 493 115 1028q-68 5 -158 5q-138 0 -271 -15q-95 -349 -177 -802q-5 -27 -27 -27q-17 0 -25 14q-1 3 -1 10
q76 451 167 797q-73 -11 -146 -26q-181 -38 -322 -113q-7 -4 -13 -4q-18 0 -27 19q-3 7 -3 14q0 22 17 31q146 79 333 119q99 20 181 32q68 247 144 441q111 284 215 420t182 136q53 0 76 -47t23 -140q0 -95 -19.5 -244t-50.5 -353q-16 -105 -30 -208q61 -9 104 -24
q61 -22 61 -62q0 -44 -62 -71q-5 -2 -10 -2q-20 0 -28 22q-2 6 -2 12q0 22 17.5 29t22.5 10.5t5 7.5q-7 -7 -14 -7q-59 15 -103 20q-70 -514 -114 -1002q5 -1 9 -4q7 -6 7 -18q0 -7 -8 -14q-106 -89 -106 -135q0 -24 12.5 -36t31.5 -12q27 0 49 9q4 2 8 2q6 0 12 -5
q10 -7 10 -23q0 -37 -67 -37q-112 0 -112 98q0 59 96 143z" />
    <glyph glyph-name="aogonek" unicode="&#x105;" horiz-adv-x="903" 
d="M55 43q53 0 178 217q-1 88 -17 135q-12 35 -26 35q-52 0 -103 -109q-56 -121 -56 -216q0 -62 24 -62zM441 -7q-20 9 -36 22q-47 40 -64.5 105.5t-17.5 139.5l1 39q-170 -324 -269 -324q-61 0 -78 78q-5 24 -5 52q0 59 21 135q40 145 117 220q38 37 80 37q75 0 95 -139
q41 81 58 121q8 19 27 19q13 0 21.5 -10t8.5 -24l-3 -24q-15 -112 -15 -180q0 -217 158 -217q174 0 363 218q9 10 21 10q11 0 21 -10q8 -11 8 -24t-8 -24q-208 -238 -405 -238q-24 0 -45 3q-90 -79 -90 -121q0 -24 12.5 -36t31.5 -12q27 0 49 9q4 2 8 2q6 0 12 -5
q10 -7 10 -23q0 -37 -67 -37q-112 0 -112 98q0 58 92 140z" />
    <glyph glyph-name="Cacute" unicode="&#x106;" horiz-adv-x="1136" 
d="M546 -710q-179 0 -272 192q-90 186 -90 522q0 240 50.5 497.5t139.5 469.5q54 128 119 224.5t140 151.5t157 55q122 0 188 -117q66 -121 66 -307q0 -157 -41 -296q-46 -155 -113 -244q-9 -12 -22 -12q-11 0 -20.5 9.5t-9.5 24.5q0 12 7 22q60 79 102 221q38 128 38 275
q0 167 -57 270q-49 87 -138 87q-69 0 -133.5 -50.5t-122.5 -138.5t-107 -204q-86 -206 -135 -455.5t-49 -482.5q0 -317 83 -489q76 -158 220 -158q143 0 230 132q60 91 131 310q8 21 28 21q19 0 26 -17q4 -9 4 -16q0 -6 -8 -30q-32 -98 -64 -177t-77 -144.5t-110 -105.5
t-160 -40zM894 1675q22 0 30 -20q3 -7 3 -14q0 -40 -50 -50l-40 -69.5t-29 -46t-22 -10.5q-10 0 -18 8t-8 23q0 9 6.5 17.5t22.5 36.5q22 41 50.5 83t54.5 42z" />
    <glyph glyph-name="cacute" unicode="&#x107;" horiz-adv-x="797" 
d="M254 -27q-33 0 -64 4q-119 17 -170 139q-21 55 -21 134q0 101 32 170q40 77 105 77q49 0 82 -39.5t33 -97.5q-2 -35 -31 -35q-12 1 -20 10.5t-8 25.5q0 30 -15.5 48.5t-40.5 20.5q-32 0 -53 -44q-25 -43 -25 -136q0 -65 17 -107q36 -86 124 -99q26 -4 54 -4q76 0 164 28
q117 36 220.5 92t163.5 104q7 6 17 6q14 0 24 -13q6 -8 6 -21q0 -37 -185 -137q-109 -59 -230 -97q-95 -29 -179 -29zM272 770q22 0 30 -20q3 -7 3 -14q0 -40 -50 -50l-40 -69.5t-29 -46t-23 -10.5q-9 0 -17 8t-8 23q0 9 6.5 17.5t22.5 36.5q22 41 50.5 83t54.5 42z" />
    <glyph glyph-name="Ccircumflex" unicode="&#x108;" horiz-adv-x="1136" 
d="M546 -710q-179 0 -272 192q-90 186 -90 522q0 240 50.5 497.5t139.5 469.5q54 128 119 224.5t140 151.5t157 55q122 0 188 -117q66 -121 66 -307q0 -157 -41 -296q-46 -155 -113 -244q-9 -12 -22 -12q-11 0 -20.5 9.5t-9.5 24.5q0 12 7 22q60 79 102 221q38 128 38 275
q0 167 -57 270q-49 87 -138 87q-69 0 -133.5 -50.5t-122.5 -138.5t-107 -204q-86 -206 -135 -455.5t-49 -482.5q0 -317 83 -489q76 -158 220 -158q143 0 230 132q60 91 131 310q8 21 28 21q19 0 26 -17q4 -9 4 -16q0 -6 -8 -30q-32 -98 -64 -177t-77 -144.5t-110 -105.5
t-160 -40zM833 1611l-55 -89q-20 -36 -29 -46.5t-22 -10.5q-10 0 -18 8t-8 23q0 9 6.5 17.5t22.5 36.5q22 41 50.5 83t54.5 42h7q13 0 22 -10.5t29 -46l40 -69.5q50 -10 50 -50q0 -7 -3 -14q-8 -20 -30 -20q-26 0 -54.5 42t-50.5 83z" />
    <glyph glyph-name="ccircumflex" unicode="&#x109;" horiz-adv-x="797" 
d="M254 -27q-33 0 -64 4q-119 17 -170 139q-21 55 -21 134q0 101 32 170q40 77 105 77q49 0 82 -39.5t33 -97.5q-2 -35 -31 -35q-12 1 -20 10.5t-8 25.5q0 30 -15.5 48.5t-40.5 20.5q-32 0 -53 -44q-25 -43 -25 -136q0 -65 17 -107q36 -86 124 -99q26 -4 54 -4q76 0 164 28
q117 36 220.5 92t163.5 104q7 6 17 6q14 0 24 -13q6 -8 6 -21q0 -37 -185 -137q-109 -59 -230 -97q-95 -29 -179 -29zM146 706l-55 -89q-20 -36 -29 -46.5t-22 -10.5q-10 0 -18 8t-8 23q0 9 6.5 17.5t22.5 36.5q22 41 50.5 83t54.5 42h7q13 0 22 -10.5t29 -46l40 -69.5
q50 -10 50 -50q0 -7 -3 -14q-8 -20 -30 -20q-26 0 -54.5 42t-50.5 83z" />
    <glyph glyph-name="Cdotaccent" unicode="&#x10a;" horiz-adv-x="1136" 
d="M546 -710q-179 0 -272 192q-90 186 -90 522q0 240 50.5 497.5t139.5 469.5q54 128 119 224.5t140 151.5t157 55q122 0 188 -117q66 -121 66 -307q0 -157 -41 -296q-46 -155 -113 -244q-9 -12 -22 -12q-11 0 -20.5 9.5t-9.5 24.5q0 12 7 22q60 79 102 221q38 128 38 275
q0 167 -57 270q-49 87 -138 87q-69 0 -133.5 -50.5t-122.5 -138.5t-107 -204q-86 -206 -135 -455.5t-49 -482.5q0 -317 83 -489q76 -158 220 -158q143 0 230 132q60 91 131 310q8 21 28 21q19 0 26 -17q4 -9 4 -16q0 -6 -8 -30q-32 -98 -64 -177t-77 -144.5t-110 -105.5
t-160 -40zM835 1501q-38 0 -38 45q0 26 14 44q-6 8 -6 19q1 12 9 20t20 8q59 -5 59 -60q0 -16 -5 -30q-19 -46 -53 -46z" />
    <glyph glyph-name="cdotaccent" unicode="&#x10b;" horiz-adv-x="797" 
d="M254 -27q-33 0 -64 4q-119 17 -170 139q-21 55 -21 134q0 101 32 170q40 77 105 77q49 0 82 -39.5t33 -97.5q-2 -35 -31 -35q-12 1 -20 10.5t-8 25.5q0 30 -15.5 48.5t-40.5 20.5q-32 0 -53 -44q-25 -43 -25 -136q0 -65 17 -107q36 -86 124 -99q26 -4 54 -4q76 0 164 28
q117 36 220.5 92t163.5 104q7 6 17 6q14 0 24 -13q6 -8 6 -21q0 -37 -185 -137q-109 -59 -230 -97q-95 -29 -179 -29zM156 596q-38 0 -38 45q0 26 14 44q-6 8 -6 19q1 12 9 20t20 8q59 -5 59 -60q0 -16 -5 -30q-19 -46 -53 -46z" />
    <glyph glyph-name="Ccaron" unicode="&#x10c;" horiz-adv-x="1136" 
d="M546 -710q-179 0 -272 192q-90 186 -90 522q0 240 50.5 497.5t139.5 469.5q54 128 119 224.5t140 151.5t157 55q122 0 188 -117q66 -121 66 -307q0 -157 -41 -296q-46 -155 -113 -244q-9 -12 -22 -12q-11 0 -20.5 9.5t-9.5 24.5q0 12 7 22q60 79 102 221q38 128 38 275
q0 167 -57 270q-49 87 -138 87q-69 0 -133.5 -50.5t-122.5 -138.5t-107 -204q-86 -206 -135 -455.5t-49 -482.5q0 -317 83 -489q76 -158 220 -158q143 0 230 132q60 91 131 310q8 21 28 21q19 0 26 -17q4 -9 4 -16q0 -6 -8 -30q-32 -98 -64 -177t-77 -144.5t-110 -105.5
t-160 -40zM823 1465q-20 0 -29 10.5t-29 46l-40 69.5q-50 10 -50 50q0 7 3 14q8 20 30 20q26 0 55 -42q13 -20 62 -104l86 135q7 11 20 11q10 0 18 -8t8 -23q0 -9 -6.5 -17.5t-22.5 -36.5q-22 -41 -50.5 -83t-54.5 -42z" />
    <glyph glyph-name="ccaron" unicode="&#x10d;" horiz-adv-x="797" 
d="M254 -27q-33 0 -64 4q-119 17 -170 139q-21 55 -21 134q0 101 32 170q40 77 105 77q49 0 82 -39.5t33 -97.5q-2 -35 -31 -35q-12 1 -20 10.5t-8 25.5q0 30 -15.5 48.5t-40.5 20.5q-32 0 -53 -44q-25 -43 -25 -136q0 -65 17 -107q36 -86 124 -99q26 -4 54 -4q76 0 164 28
q117 36 220.5 92t163.5 104q7 6 17 6q14 0 24 -13q6 -8 6 -21q0 -37 -185 -137q-109 -59 -230 -97q-95 -29 -179 -29zM166 560q-20 0 -29 10.5t-29 46l-40 69.5q-50 10 -50 50q0 7 3 14q8 20 30 20q26 0 55 -42q13 -20 62 -104l86 135q7 11 20 11q10 0 18 -8t8 -23
q0 -9 -6.5 -17.5t-22.5 -36.5q-22 -41 -50.5 -83t-54.5 -42z" />
    <glyph glyph-name="Dcaron" unicode="&#x10e;" horiz-adv-x="1543" 
d="M757 1099q-85 -299 -133 -578q-65 -381 -135 -964q-4 -29 -31 -29q-13 0 -20.5 11.5t-7.5 23.5l8 63q59 510 128 910q45 259 121 536l-10 -4q-129 -57 -239 -146.5t-178 -197.5t-68 -218q0 -55 36 -105q30 -40 89 -54q24 -6 24 -33q0 -19 -10 -26.5t-19 -7.5h-5
q-126 29 -162 151q-12 40 -12 75q0 124 73.5 245t191.5 219.5t258 161.5q27 12 54 22q32 111 69 226q8 22 28 22q19 0 26 -17q4 -10 4 -17q0 -5 -2 -11q-30 -91 -56 -180q102 29 198 29q195 0 309 -127q117 -131 117 -387q0 -226 -101.5 -488.5t-276.5 -483.5
q-101 -126 -219.5 -222.5t-252 -152t-275.5 -55.5q-12 0 -20.5 9.5t-8.5 24.5q0 14 8.5 23.5t20.5 9.5q133 0 258.5 53t237.5 144.5t207 210.5q168 213 265.5 463t97.5 464q0 329 -207 416q-74 31 -161 31q-104 0 -219 -40zM1006 1465q-20 0 -29 10.5t-29 46l-40 69.5
q-50 10 -50 50q0 7 3 14q8 20 30 20q26 0 55 -42q13 -20 62 -104l86 135q7 11 20 11q10 0 18 -8t8 -23q0 -9 -6.5 -17.5t-22.5 -36.5q-22 -41 -50.5 -83t-54.5 -42z" />
    <glyph glyph-name="dcaron" unicode="&#x10f;" horiz-adv-x="1255" 
d="M74 43q44 0 92 86q26 49 46 106q2 30 2 56q0 79 -14 115q-9 23 -15 24q-38 0 -74 -60q-69 -114 -74 -249q0 -78 37 -78zM522 -25q-156 0 -219 155q-18 45 -27 109l-8 -27q-87 -237 -194 -237q-71 0 -91 87q-5 27 -5 58q0 59 20 133q38 139 111 209q36 35 80 35
q50 -4 72 -86l13.5 104.5t19.5 141.5q47 328 184 822q23 84 34 128q5 25 29 25q17 0 24 -15q5 -10 5 -19t-34 -136q-1 -1 -1 -3q-206 -729 -206 -1100q0 -316 193 -316q89 0 190 57q111 61 207 161q9 9 21 9q12 -1 20 -11t8 -21q0 -16 -10 -27q-101 -106 -220 -172
q-114 -64 -216 -64zM875 1395q-13 0 -18 12q-3 6 -3 12q0 14 11 21q34 23 58 70l3 4q-10 9 -10 26q0 24 12 56q14 36 36 36q13 0 21 -13q5 -9 5 -20q0 -56 -30.5 -113.5t-74.5 -87.5q-5 -3 -10 -3z" />
    <glyph glyph-name="Dcroat" unicode="&#x110;" horiz-adv-x="1543" 
d="M278 -710q-12 0 -20.5 9.5t-8.5 24.5q0 14 8.5 23.5t20.5 9.5q133 0 258.5 53t237.5 144.5t207 210.5q168 213 265.5 463t97.5 464q0 329 -207 416q-74 31 -161 31q-104 0 -219 -40q-85 -299 -133 -578q-16 -91 -31 -193q161 16 268 16q50 0 79 -4q53 -8 53 -39t-34 -51
q-7 -3 -13 -3q-25 0 -25 35q-22 2 -54 2q-112 0 -284 -17q-46 -307 -94 -710q-4 -29 -31 -29q-13 0 -20.5 11.5t-7.5 23.5l8 63q40 342 84 634l-85 -10q-27 0 -27 33q0 23 28 27l93 11q17 111 35 215q45 259 121 536q-126 -50 -249 -150q-110 -90 -178 -198t-68 -218
q0 -55 36 -105q30 -40 89 -54q24 -6 24 -33q0 -34 -34 -34q-126 29 -162 151q-12 40 -12 75q0 124 73.5 245t191.5 220q146 122 312 183q32 111 69 226q8 22 28 22q19 0 26 -17q4 -10 4 -17q0 -5 -2 -11q-30 -91 -56 -180q102 29 198 29q195 0 309 -127q117 -131 117 -387
q0 -226 -101.5 -488.5t-276.5 -483.5q-101 -126 -219.5 -222.5t-252 -152t-275.5 -55.5z" />
    <glyph glyph-name="dcroat" unicode="&#x111;" horiz-adv-x="919" 
d="M74 43q44 0 92 86q26 49 46 106q2 30 2 56q0 79 -14 115q-9 23 -15 24q-38 0 -74 -60q-69 -114 -74 -249q0 -78 37 -78zM451 1143q-122 -498 -122 -784q0 -316 193 -316q89 0 190 57q111 61 207 161q9 9 21 9q12 -1 20 -11t8 -21q0 -16 -10 -27q-101 -106 -220 -172
q-114 -64 -216 -64q-156 0 -219 155q-18 45 -27 109l-8 -27q-87 -237 -194 -237q-71 0 -91 87q-5 27 -5 58q0 59 20 133q38 139 111 209q36 35 80 35q50 -4 72 -86l13.5 104.5t19.5 141.5q30 206 95 478q-183 -21 -292 -42l-5 -1q-9 0 -19 7.5t-10 26.5q0 10 5 20
q12 21 338 60q32 130 72 273q23 84 34 128q5 25 29 25q17 0 24 -15q5 -10 5 -19t-34 -136q-1 -1 -1 -3q-36 -128 -66 -246q215 24 349 24q57 0 90 -5q60 -9 60 -45q0 -34 -39 -57q-7 -4 -14 -4q-17 0 -26 19q-3 7 -3 15v7q-25 2 -62 2q-141 0 -373 -26z" />
    <glyph glyph-name="Emacron" unicode="&#x112;" horiz-adv-x="1325" 
d="M388 -642q26 3 54 48q-49 -23 -54 -48zM385 -710q-56 0 -56 65q0 71 150 128q83 212 174 676q-97 -26 -160 -76q-8 -7 -18 -7q-13 0 -23 13q-6 10 -6 20q0 17 12 28q81 65 209 94q64 339 142 863q-287 -83 -458 -218q-182 -143 -182 -326q0 -54 38 -110q33 -47 100 -69
q22 -7 22 -33q0 -20 -13 -28q-9 -6 -17 -6l-7 1q-130 44 -169 167q-13 40 -13 78q0 210 192 367q195 160 518 249q23 163 31 208q4 28 29 28q16 0 22.5 -11.5t6.5 -21.5q0 -6 -26 -186q274 68 480 69q180 0 180 -67q0 -32 -43 -58q-8 -4 -15 -4q-16 0 -25 18q-4 8 -4 16
q0 26 27 35q2 0 2 1h-14q-43 -7 -108 -9q-150 -1 -371 -45q-62 -13 -120 -28q-69 -469 -146 -868q70 12 129 12q159 0 159 -73q0 -23 -19 -45q-9 -11 -20 -11q-31 0 -31 36q0 8 4 15h-3q-32 11 -88 11q-67 0 -145 -15q-84 -421 -174 -670q124 37 274 55q139 17 256 17
q135 0 203.5 -21.5t68.5 -69.5q0 -21 -16 -43q-10 -12 -23 -12q-10 0 -19.5 10t-9.5 26q0 9 5 18q-36 24 -201 24q-117 0 -258 -17q-180 -21 -310 -60q-66 -140 -123 -140zM786 1496q-10 0 -18 6q-12 9 -12 23q0 24 23 28q98 20 168 20q87 0 98 -14q6 -8 6 -18
q0 -14 -8.5 -22t-19.5 -8q-42 4 -76 4q-64 0 -161 -19z" />
    <glyph glyph-name="emacron" unicode="&#x113;" horiz-adv-x="707" 
d="M109 254q52 0 72 77q7 27 7 52q0 17 -3 31q-4 23 -12 23q-40 0 -76 -55q-25 -39 -34 -89q5 -17 14 -25t18 -11t14 -3zM240 -25q-116 0 -178 71q-63 69 -63 203q0 95 51 173q53 82 123 82q55 0 70 -75q4 -22 4 -47q0 -36 -9 -70q-34 -126 -129 -126q-17 0 -47 14
q20 -157 178 -157q115 0 248 64q141 67 219 153q10 10 21 10q12 0 21 -10.5t9 -23.5t-9 -24q-86 -95 -239 -168q-144 -69 -270 -69zM46 591q-10 0 -18 6q-12 9 -12 23q0 24 23 28q98 20 168 20q87 0 98 -14q6 -8 6 -18q0 -14 -8.5 -22t-19.5 -8q-42 4 -76 4q-64 0 -161 -19z
" />
    <glyph glyph-name="Ebreve" unicode="&#x114;" horiz-adv-x="1325" 
d="M388 -642q26 3 54 48q-49 -23 -54 -48zM385 -710q-56 0 -56 65q0 71 150 128q83 212 174 676q-97 -26 -160 -76q-8 -7 -18 -7q-13 0 -23 13q-6 10 -6 20q0 17 12 28q81 65 209 94q64 339 142 863q-287 -83 -458 -218q-182 -143 -182 -326q0 -54 38 -110q33 -47 100 -69
q22 -7 22 -33q0 -20 -13 -28q-9 -6 -17 -6l-7 1q-130 44 -169 167q-13 40 -13 78q0 210 192 367q195 160 518 249q23 163 31 208q4 28 29 28q16 0 22.5 -11.5t6.5 -21.5q0 -6 -26 -186q274 68 480 69q180 0 180 -67q0 -32 -43 -58q-8 -4 -15 -4q-16 0 -25 18q-4 8 -4 16
q0 26 27 35q2 0 2 1h-14q-43 -7 -108 -9q-150 -1 -371 -45q-62 -13 -120 -28q-69 -469 -146 -868q70 12 129 12q159 0 159 -73q0 -23 -19 -45q-9 -11 -20 -11q-31 0 -31 36q0 8 4 15h-3q-32 11 -88 11q-67 0 -145 -15q-84 -421 -174 -670q124 37 274 55q139 17 256 17
q135 0 203.5 -21.5t68.5 -69.5q0 -21 -16 -43q-10 -12 -23 -12q-10 0 -19.5 10t-9.5 26q0 9 5 18q-36 24 -201 24q-117 0 -258 -17q-180 -21 -310 -60q-66 -140 -123 -140zM916 1504h-20q-83 0 -128 76q-5 9 -5 16q0 26 27 26q8 0 14 -6q55 -56 88 -56q50 0 112 56q7 6 16 6
q28 0 28 -27q0 -11 -8 -19q-71 -72 -124 -72z" />
    <glyph glyph-name="ebreve" unicode="&#x115;" horiz-adv-x="707" 
d="M109 254q52 0 72 77q7 27 7 52q0 17 -3 31q-4 23 -12 23q-40 0 -76 -55q-25 -39 -34 -89q5 -17 14 -25t18 -11t14 -3zM240 -25q-116 0 -178 71q-63 69 -63 203q0 95 51 173q53 82 123 82q55 0 70 -75q4 -22 4 -47q0 -36 -9 -70q-34 -126 -129 -126q-17 0 -47 14
q20 -157 178 -157q115 0 248 64q141 67 219 153q10 10 21 10q12 0 21 -10.5t9 -23.5t-9 -24q-86 -95 -239 -168q-144 -69 -270 -69zM188 599h-20q-83 0 -128 76q-5 9 -5 16q0 26 27 26q8 0 14 -6q55 -56 88 -56q50 0 112 56q7 6 16 6q28 0 28 -27q0 -11 -8 -19
q-71 -72 -124 -72z" />
    <glyph glyph-name="Edotaccent" unicode="&#x116;" horiz-adv-x="1325" 
d="M388 -642q26 3 54 48q-49 -23 -54 -48zM385 -710q-56 0 -56 65q0 71 150 128q83 212 174 676q-97 -26 -160 -76q-8 -7 -18 -7q-13 0 -23 13q-6 10 -6 20q0 17 12 28q81 65 209 94q64 339 142 863q-287 -83 -458 -218q-182 -143 -182 -326q0 -54 38 -110q33 -47 100 -69
q22 -7 22 -33q0 -20 -13 -28q-9 -6 -17 -6l-7 1q-130 44 -169 167q-13 40 -13 78q0 210 192 367q195 160 518 249q23 163 31 208q4 28 29 28q16 0 22.5 -11.5t6.5 -21.5q0 -6 -26 -186q274 68 480 69q180 0 180 -67q0 -32 -43 -58q-8 -4 -15 -4q-16 0 -25 18q-4 8 -4 16
q0 26 27 35q2 0 2 1h-14q-43 -7 -108 -9q-150 -1 -371 -45q-62 -13 -120 -28q-69 -469 -146 -868q70 12 129 12q159 0 159 -73q0 -23 -19 -45q-9 -11 -20 -11q-31 0 -31 36q0 8 4 15h-3q-32 11 -88 11q-67 0 -145 -15q-84 -421 -174 -670q124 37 274 55q139 17 256 17
q135 0 203.5 -21.5t68.5 -69.5q0 -21 -16 -43q-10 -12 -23 -12q-10 0 -19.5 10t-9.5 26q0 9 5 18q-36 24 -201 24q-117 0 -258 -17q-180 -21 -310 -60q-66 -140 -123 -140zM896 1501q-39 0 -39 45q0 26 15 44q-6 8 -6 19q1 12 9 20t20 8q59 -5 59 -60q0 -16 -5 -30
q-20 -46 -53 -46z" />
    <glyph glyph-name="edotaccent" unicode="&#x117;" horiz-adv-x="707" 
d="M109 254q52 0 72 77q7 27 7 52q0 17 -3 31q-4 23 -12 23q-40 0 -76 -55q-25 -39 -34 -89q5 -17 14 -25t18 -11t14 -3zM240 -25q-116 0 -178 71q-63 69 -63 203q0 95 51 173q53 82 123 82q55 0 70 -75q4 -22 4 -47q0 -36 -9 -70q-34 -126 -129 -126q-17 0 -47 14
q20 -157 178 -157q115 0 248 64q141 67 219 153q10 10 21 10q12 0 21 -10.5t9 -23.5t-9 -24q-86 -95 -239 -168q-144 -69 -270 -69zM190 596q-39 0 -39 45q0 26 15 44q-6 8 -6 19q1 12 9 20t20 8q59 -5 59 -60q0 -16 -5 -30q-20 -46 -53 -46z" />
    <glyph glyph-name="Eogonek" unicode="&#x118;" horiz-adv-x="1325" 
d="M388 -642q26 3 54 48q-49 -23 -54 -48zM1272 -541v6q0 9 5 18q-36 24 -201 24q-117 0 -258 -17q-180 -21 -310 -60q-66 -140 -123 -140q-56 0 -56 65q0 71 150 128q83 212 174 676q-97 -26 -160 -76q-8 -7 -18 -7q-13 0 -23 13q-6 10 -6 20q0 17 12 28q81 65 209 94
q64 339 142 863q-287 -83 -458 -218q-182 -143 -182 -326q0 -54 38 -110q33 -47 100 -69q22 -7 22 -33q0 -20 -13 -28q-9 -6 -17 -6l-7 1q-130 44 -169 167q-13 40 -13 78q0 210 192 367q195 160 518 249q23 163 31 208q4 28 29 28q16 0 22.5 -11.5t6.5 -21.5q0 -6 -26 -186
q274 68 480 69q180 0 180 -67q0 -32 -43 -58q-8 -4 -15 -4q-16 0 -25 18q-4 8 -4 16q0 26 27 35q2 0 2 1h-14q-43 -7 -108 -9q-150 -1 -371 -45q-62 -13 -120 -28q-69 -469 -146 -868q70 12 129 12q159 0 159 -73q0 -23 -19 -45q-9 -11 -20 -11q-31 0 -31 36q0 8 4 15h-3
q-32 11 -88 11q-67 0 -145 -15q-84 -421 -174 -670q124 37 274 55q139 17 256 17q135 0 203.5 -21.5t68.5 -69.5q0 -21 -16 -43q-5 -6 -11 -9q-100 -85 -100 -130q0 -24 12.5 -36t31.5 -12q27 0 49 9q4 2 8 2q6 0 12 -5q10 -7 10 -23q0 -37 -67 -37q-112 0 -112 98
q0 63 109 155z" />
    <glyph glyph-name="eogonek" unicode="&#x119;" horiz-adv-x="707" 
d="M109 254q52 0 72 77q7 27 7 52q0 17 -3 31q-4 23 -12 23q-40 0 -76 -55q-25 -39 -34 -89q5 -17 14 -25t18 -11t14 -3zM205 -23q-91 9 -143 69q-63 69 -63 203q0 95 51 173q53 82 123 82q55 0 70 -75q4 -22 4 -47q0 -36 -9 -70q-34 -126 -129 -126q-17 0 -47 14
q20 -157 178 -157q115 0 248 64q141 67 219 153q10 10 21 10q12 0 21 -10.5t9 -23.5t-9 -24q-86 -95 -239 -168q-124 -59 -235 -68q-92 -80 -92 -123q0 -24 12.5 -36t31.5 -12q27 0 49 9q4 2 8 2q6 0 12 -5q10 -7 10 -23q0 -37 -67 -37q-112 0 -112 98q0 53 78 128z" />
    <glyph glyph-name="Ecaron" unicode="&#x11a;" horiz-adv-x="1325" 
d="M388 -642q26 3 54 48q-49 -23 -54 -48zM385 -710q-56 0 -56 65q0 71 150 128q83 212 174 676q-97 -26 -160 -76q-8 -7 -18 -7q-13 0 -23 13q-6 10 -6 20q0 17 12 28q81 65 209 94q64 339 142 863q-287 -83 -458 -218q-182 -143 -182 -326q0 -54 38 -110q33 -47 100 -69
q22 -7 22 -33q0 -20 -13 -28q-9 -6 -17 -6l-7 1q-130 44 -169 167q-13 40 -13 78q0 210 192 367q195 160 518 249q23 163 31 208q4 28 29 28q16 0 22.5 -11.5t6.5 -21.5q0 -6 -26 -186q274 68 480 69q180 0 180 -67q0 -32 -43 -58q-8 -4 -15 -4q-16 0 -25 18q-4 8 -4 16
q0 26 27 35q2 0 2 1h-14q-43 -7 -108 -9q-150 -1 -371 -45q-62 -13 -120 -28q-69 -469 -146 -868q70 12 129 12q159 0 159 -73q0 -23 -19 -45q-9 -11 -20 -11q-31 0 -31 36q0 8 4 15h-3q-32 11 -88 11q-67 0 -145 -15q-84 -421 -174 -670q124 37 274 55q139 17 256 17
q135 0 203.5 -21.5t68.5 -69.5q0 -21 -16 -43q-10 -12 -23 -12q-10 0 -19.5 10t-9.5 26q0 9 5 18q-36 24 -201 24q-117 0 -258 -17q-180 -21 -310 -60q-66 -140 -123 -140zM909 1465q-20 0 -29 10.5t-29 46l-40 69.5q-50 10 -50 50q0 7 3 14q8 20 30 20q26 0 55 -42
q13 -20 62 -104l85 135q8 11 21 11q10 0 18 -8t8 -23q0 -9 -6.5 -17.5t-22.5 -36.5q-22 -41 -50.5 -83t-54.5 -42z" />
    <glyph glyph-name="ecaron" unicode="&#x11b;" horiz-adv-x="707" 
d="M109 254q52 0 72 77q7 27 7 52q0 17 -3 31q-4 23 -12 23q-40 0 -76 -55q-25 -39 -34 -89q5 -17 14 -25t18 -11t14 -3zM240 -25q-116 0 -178 71q-63 69 -63 203q0 95 51 173q53 82 123 82q55 0 70 -75q4 -22 4 -47q0 -36 -9 -70q-34 -126 -129 -126q-17 0 -47 14
q20 -157 178 -157q115 0 248 64q141 67 219 153q10 10 21 10q12 0 21 -10.5t9 -23.5t-9 -24q-86 -95 -239 -168q-144 -69 -270 -69zM191 560q-20 0 -29 10.5t-29 46l-40 69.5q-50 10 -50 50q0 7 3 14q8 20 30 20q26 0 55 -42q13 -20 62 -104l85 135q8 11 21 11q10 0 18 -8
t8 -23q0 -9 -6.5 -17.5t-22.5 -36.5q-22 -41 -50.5 -83t-54.5 -42z" />
    <glyph glyph-name="Gcircumflex" unicode="&#x11c;" horiz-adv-x="1058" 
d="M418 -710q-32 0 -65.5 18.5t-51.5 48.5q-4 10 -4 20q0 16 14 27q7 5 15 5q16 0 24.5 -14.5t26.5 -25.5q22 -12 39 -12q59 5 102.5 90t76.5 216.5t58 275.5q-134 -198 -266 -198q-190 7 -235 273q-14 79 -14 172q1 201 56 426t152 417q120 232 269 325q77 48 161 48
q96 0 151.5 -101.5t55.5 -254.5q0 -138 -25 -256q-26 -124 -70 -189q-10 -13 -23 -13q-10 0 -20 8.5t-10 24.5q0 12 6 22q36 53 59 163t23 240q0 134 -44 217q-40 72 -103 72q-137 0 -267 -164q-61 -76 -111 -176q-94 -184 -147 -400.5t-54 -408.5q0 -169 48 -278
q45 -96 142 -99q100 0 209 154q48 67 86 145q43 248 75 320q21 49 51 49q41 0 41 -56q0 -66 -48 -193q-25 -68 -62 -142l-2 -10q-28 -174 -67 -352q-92 -420 -252 -434zM786 1611l-55 -89q-20 -36 -29 -46.5t-22 -10.5q-10 0 -18 8t-8 23q0 9 6.5 17.5t22.5 36.5
q22 41 50.5 83t54.5 42h7q13 0 22 -10.5t29 -46l40 -69.5q50 -10 50 -50q0 -7 -3 -14q-8 -20 -30 -20q-26 0 -54.5 42t-50.5 83z" />
    <glyph glyph-name="gcircumflex" unicode="&#x11d;" horiz-adv-x="861" 
d="M73 -1088q60 19 151 624q-71 -131 -137 -350q-26 -95 -26 -188q0 -69 12 -86zM55 43q56 0 177 217q0 88 -16 135q-12 35 -26 35q-52 0 -104 -109q-55 -117 -55 -219q0 -59 24 -59zM72 -1156q-8 0 -17 3q-53 22 -53 151q0 103 29 209q101 334 216 485q52 369 78 611
q-169 -328 -270 -328q-83 0 -83 130q0 59 21 135q40 145 116 220q39 37 81 37q75 0 95 -139q40 79 57 119q8 21 27 21q30 0 30 -36q0 -41 -35 -338q-19 -158 -46 -345q103 104 216 180q76 53 158 122t169 178q9 11 22 11q11 0 20 -9.5t9 -25.5q0 -11 -7 -21
q-91 -114 -176 -185.5t-163 -126.5q-71 -50 -137.5 -106t-128.5 -139q-126 -813 -228 -813zM250 706l-55 -89q-20 -36 -29 -46.5t-22 -10.5q-10 0 -18 8t-8 23q0 9 6.5 17.5t22.5 36.5q22 41 50.5 83t54.5 42h7q13 0 22 -10.5t29 -46l40 -69.5q50 -10 50 -50q0 -7 -3 -14
q-8 -20 -30 -20q-26 0 -54.5 42t-50.5 83z" />
    <glyph glyph-name="Gbreve" unicode="&#x11e;" horiz-adv-x="1058" 
d="M418 -710q-32 0 -65.5 18.5t-51.5 48.5q-4 10 -4 20q0 16 14 27q7 5 15 5q16 0 24.5 -14.5t26.5 -25.5q22 -12 39 -12q59 5 102.5 90t76.5 216.5t58 275.5q-134 -198 -266 -198q-190 7 -235 273q-14 79 -14 172q1 201 56 426t152 417q120 232 269 325q77 48 161 48
q96 0 151.5 -101.5t55.5 -254.5q0 -138 -25 -256q-26 -124 -70 -189q-10 -13 -23 -13q-10 0 -20 8.5t-10 24.5q0 12 6 22q36 53 59 163t23 240q0 134 -44 217q-40 72 -103 72q-137 0 -267 -164q-61 -76 -111 -176q-94 -184 -147 -400.5t-54 -408.5q0 -169 48 -278
q45 -96 142 -99q100 0 209 154q48 67 86 145q43 248 75 320q21 49 51 49q41 0 41 -56q0 -66 -48 -193q-25 -68 -62 -142l-2 -10q-28 -174 -67 -352q-92 -420 -252 -434zM829 1504h-20q-83 0 -128 76q-5 9 -5 16q0 26 27 26q8 0 14 -6q55 -56 88 -56q50 0 112 56q7 6 16 6
q28 0 28 -27q0 -11 -8 -19q-71 -72 -124 -72z" />
    <glyph glyph-name="gbreve" unicode="&#x11f;" horiz-adv-x="861" 
d="M73 -1088q60 19 151 624q-71 -131 -137 -350q-26 -95 -26 -188q0 -69 12 -86zM55 43q56 0 177 217q0 88 -16 135q-12 35 -26 35q-52 0 -104 -109q-55 -117 -55 -219q0 -59 24 -59zM72 -1156q-8 0 -17 3q-53 22 -53 151q0 103 29 209q101 334 216 485q52 369 78 611
q-169 -328 -270 -328q-83 0 -83 130q0 59 21 135q40 145 116 220q39 37 81 37q75 0 95 -139q40 79 57 119q8 21 27 21q30 0 30 -36q0 -41 -35 -338q-19 -158 -46 -345q103 104 216 180q76 53 158 122t169 178q9 11 22 11q11 0 20 -9.5t9 -25.5q0 -11 -7 -21
q-91 -114 -176 -185.5t-163 -126.5q-71 -50 -137.5 -106t-128.5 -139q-126 -813 -228 -813zM287 599h-20q-83 0 -128 76q-5 9 -5 16q0 26 26 26q9 0 15 -6q55 -56 88 -56q49 0 112 56q7 6 16 6q27 0 27 -27q0 -11 -7 -19q-71 -72 -124 -72z" />
    <glyph glyph-name="Gdotaccent" unicode="&#x120;" horiz-adv-x="1058" 
d="M418 -710q-32 0 -65.5 18.5t-51.5 48.5q-4 10 -4 20q0 16 14 27q7 5 15 5q16 0 24.5 -14.5t26.5 -25.5q22 -12 39 -12q59 5 102.5 90t76.5 216.5t58 275.5q-134 -198 -266 -198q-190 7 -235 273q-14 79 -14 172q1 201 56 426t152 417q120 232 269 325q77 48 161 48
q96 0 151.5 -101.5t55.5 -254.5q0 -138 -25 -256q-26 -124 -70 -189q-10 -13 -23 -13q-10 0 -20 8.5t-10 24.5q0 12 6 22q36 53 59 163t23 240q0 134 -44 217q-40 72 -103 72q-137 0 -267 -164q-61 -76 -111 -176q-94 -184 -147 -400.5t-54 -408.5q0 -169 48 -278
q45 -96 142 -99q100 0 209 154q48 67 86 145q43 248 75 320q21 49 51 49q41 0 41 -56q0 -66 -48 -193q-25 -68 -62 -142l-2 -10q-28 -174 -67 -352q-92 -420 -252 -434zM832 1501q-39 0 -39 45q0 26 15 44q-6 8 -6 19q1 12 9 20t20 8q59 -5 59 -60q0 -16 -5 -30
q-20 -46 -53 -46z" />
    <glyph glyph-name="gdotaccent" unicode="&#x121;" horiz-adv-x="861" 
d="M73 -1088q60 19 151 624q-71 -131 -137 -350q-26 -95 -26 -188q0 -69 12 -86zM55 43q56 0 177 217q0 88 -16 135q-12 35 -26 35q-52 0 -104 -109q-55 -117 -55 -219q0 -59 24 -59zM72 -1156q-8 0 -17 3q-53 22 -53 151q0 103 29 209q101 334 216 485q52 369 78 611
q-169 -328 -270 -328q-83 0 -83 130q0 59 21 135q40 145 116 220q39 37 81 37q75 0 95 -139q40 79 57 119q8 21 27 21q30 0 30 -36q0 -41 -35 -338q-19 -158 -46 -345q103 104 216 180q76 53 158 122t169 178q9 11 22 11q11 0 20 -9.5t9 -25.5q0 -11 -7 -21
q-91 -114 -176 -185.5t-163 -126.5q-71 -50 -137.5 -106t-128.5 -139q-126 -813 -228 -813zM249 596q-38 0 -38 45q0 26 14 44q-6 8 -6 19q1 12 9 20t20 8q59 -5 59 -60q0 -16 -5 -30q-19 -46 -53 -46z" />
    <glyph glyph-name="uni0122" unicode="&#x122;" horiz-adv-x="1058" 
d="M418 -710q-32 0 -65.5 18.5t-51.5 48.5q-4 10 -4 20q0 16 14 27q7 5 15 5q16 0 24.5 -14.5t26.5 -25.5q22 -12 39 -12q59 5 102.5 90t76.5 216.5t58 275.5q-134 -198 -266 -198q-190 7 -235 273q-14 79 -14 172q1 201 56 426t152 417q120 232 269 325q77 48 161 48
q96 0 151.5 -101.5t55.5 -254.5q0 -138 -25 -256q-26 -124 -70 -189q-10 -13 -23 -13q-10 0 -20 8.5t-10 24.5q0 12 6 22q36 53 59 163t23 240q0 134 -44 217q-40 72 -103 72q-137 0 -267 -164q-61 -76 -111 -176q-94 -184 -147 -400.5t-54 -408.5q0 -169 48 -278
q45 -96 142 -99q100 0 209 154q48 67 86 145q43 248 75 320q21 49 51 49q41 0 41 -56q0 -66 -48 -193q-25 -68 -62 -142l-2 -10q-28 -174 -67 -352q-92 -420 -252 -434zM264 -1031q-13 0 -19 12q-2 6 -2 12q0 14 10 21q34 23 59 70l3 4q-11 9 -11 26q0 24 13 56q14 36 35 36
q14 0 21 -13q5 -9 5 -20q0 -56 -30.5 -113.5t-74.5 -87.5q-5 -3 -9 -3z" />
    <glyph glyph-name="uni0123" unicode="&#x123;" horiz-adv-x="861" 
d="M73 -1088q60 19 151 624q-71 -131 -137 -350q-26 -95 -26 -188q0 -69 12 -86zM55 43q56 0 177 217q0 88 -16 135q-12 35 -26 35q-52 0 -104 -109q-55 -117 -55 -219q0 -59 24 -59zM72 -1156q-8 0 -17 3q-53 22 -53 151q0 103 29 209q101 334 216 485q52 369 78 611
q-169 -328 -270 -328q-83 0 -83 130q0 59 21 135q40 145 116 220q39 37 81 37q75 0 95 -139q40 79 57 119q8 21 27 21q30 0 30 -36q0 -41 -35 -338q-19 -158 -46 -345q103 104 216 180q76 53 158 122t169 178q9 11 22 11q11 0 20 -9.5t9 -25.5q0 -11 -7 -21
q-91 -114 -176 -185.5t-163 -126.5q-71 -50 -137.5 -106t-128.5 -139q-126 -813 -228 -813zM335 800q12 0 18 -13q3 -5 3 -11q0 -14 -11 -21q-34 -24 -58 -70l-3 -5q10 -8 10 -26q0 -23 -12 -55q-15 -36 -36 -36q-13 0 -21 13q-5 9 -5 20q0 56 30.5 113t74.5 88q5 3 10 3z
" />
    <glyph glyph-name="Hcircumflex" unicode="&#x124;" horiz-adv-x="1311" 
d="M847 -710q-14 0 -21.5 11.5t-7.5 23.5l15 135q48 471 110 892q-61 4 -137 4q-207 0 -404 -34q-54 -370 -96 -773q-4 -29 -29 -29q-15 0 -22.5 11t-7.5 24q42 398 93 755q-190 -39 -336 -117q-7 -3 -13 -3q-18 0 -27 19q-3 7 -3 14q0 22 17 31q155 83 373 126
q55 373 157 770q6 24 28 24q17 0 25 -15q5 -10 5 -17q0 -5 -2 -11q-96 -380 -152 -739q176 31 398 31q79 0 143 -5q69 456 214 961q8 24 29 24q18 0 25 -16q4 -10 4 -17q0 -6 -2 -12q-142 -496 -210 -945q185 -23 185 -89q0 -43 -62 -71q-5 -2 -11 -2q-29 0 -29 35
q0 22 19 30q25 12 25 16q-10 -10 -21 -10q-44 16 -116 24q-63 -421 -111 -894l-15 -133q-2 -14 -11 -21.5t-19 -7.5zM848 1611l-55 -89q-20 -36 -29 -46.5t-22 -10.5q-10 0 -18 8t-8 23q0 9 6.5 17.5t22.5 36.5q22 41 50.5 83t54.5 42h7q13 0 22 -10.5t29 -46l40 -69.5
q50 -10 50 -50q0 -7 -3 -14q-8 -20 -30 -20q-26 0 -54.5 42t-50.5 83z" />
    <glyph glyph-name="hcircumflex" unicode="&#x125;" horiz-adv-x="950" 
d="M-1 -239q-30 0 -30 38q0 65 19 316q61 820 261 1494q7 24 27 24q18 0 25 -17q4 -10 4 -17q0 -5 -2 -11q-179 -612 -248 -1373l22 74q77 248 164 248q31 0 44 -25q18 -36 18 -179q0 -111 21 -161q54 -129 245 -129q122 0 211.5 50t169.5 163q10 14 22 14q10 0 20 -9
t10 -24q0 -12 -6 -22q-88 -126 -189.5 -183t-237.5 -57q-322 0 -322 326v33q0 136 -19 136q-47 0 -110 -232q-43 -161 -84 -415q-6 -39 -8 -45q-6 -17 -27 -17zM307 1815l-55 -88q-20 -36 -29 -46.5t-22 -10.5q-10 0 -18 8t-8 23q0 9 6.5 17.5t22.5 36.5q22 41 50.5 83
t54.5 42h7q13 0 22 -10.5t29 -46l40 -69.5q50 -10 50 -50q0 -7 -3 -14q-8 -20 -30 -20q-26 0 -54.5 42t-50.5 83z" />
    <glyph glyph-name="Hbar" unicode="&#x126;" horiz-adv-x="1311" 
d="M1131 1009q-74 -308 -118 -596q185 -23 185 -89q0 -43 -62 -71q-5 -2 -11 -2q-29 0 -29 35q0 22 19 30q25 12 25 16q-10 -10 -21 -10q-44 16 -116 24q-63 -421 -111 -894l-15 -133q-2 -14 -11 -21.5t-19 -7.5q-14 0 -21.5 11.5t-7.5 23.5l15 135q48 471 110 892
q-61 4 -137 4q-207 0 -404 -34q-54 -370 -96 -773q-4 -29 -29 -29q-15 0 -22.5 11t-7.5 24q42 398 93 755q-190 -39 -336 -117q-7 -3 -13 -3q-18 0 -27 19q-3 7 -3 14q0 22 17 31q155 83 373 126q41 276 107 566l-73 -13l-5 -1q-9 0 -19 8t-10 26q0 11 6 21q7 12 118 30
l33 133q6 24 28 24q17 0 25 -15q5 -10 5 -17q0 -5 -2 -11l-26 -105q72 10 172 22q232 27 376 29q37 149 81 302q8 24 29 24q18 0 25 -16q4 -10 4 -17q0 -6 -2 -12q-41 -143 -76 -282q29 -1 49 -4q60 -9 60 -44t-39 -58q-7 -4 -14 -4q-17 0 -26 19q-3 8 -3 16v6q-19 1 -43 2z
M521 955q-66 -288 -109 -563q176 31 398 31q79 0 143 -5q43 286 116 590q-140 -3 -352 -28q-110 -13 -196 -25z" />
    <glyph glyph-name="hbar" unicode="&#x127;" horiz-adv-x="950" 
d="M190 1134q-91 -429 -135 -919l22 74q77 248 164 248q31 0 44 -25q18 -36 18 -179q0 -111 21 -161q54 -129 245 -129q122 0 211.5 50t169.5 163q10 14 22 14q10 0 20 -9t10 -24q0 -12 -6 -22q-88 -126 -189.5 -183t-237.5 -57q-322 0 -322 326v33q0 136 -19 136
q-47 0 -110 -232q-43 -161 -84 -415q-6 -39 -8 -45q-6 -17 -27 -17q-30 0 -30 38q0 65 19 316q40 537 139 1011q-130 -17 -216 -33l-5 -1q-9 0 -19 7.5t-10 26.5q0 10 6 20q10 19 260 51q47 212 106 412q7 24 27 24q18 0 25 -17q4 -10 4 -17q0 -5 -2 -11q-54 -185 -98 -384
l31 4q249 29 396 29q57 0 90 -5q60 -9 60 -45q0 -34 -39 -57q-7 -4 -14 -4q-17 0 -26 19q-3 7 -3 15v7q-25 2 -61 2q-149 0 -396 -29z" />
    <glyph glyph-name="Itilde" unicode="&#x128;" horiz-adv-x="619" 
d="M194 -710q-14 0 -21 11.5t-7 24.5q2 19 3 31t4 30v6.5t0.5 6.5t1 9.5t2 18.5t3.5 32q53 512 122 964.5t213 954.5q7 24 28 24q18 0 25 -17q5 -9 5 -17q0 -5 -2 -11q-143 -497 -211.5 -947t-120.5 -959l-15 -133q-1 -14 -10 -21.5t-20 -7.5zM613 1477q-39 0 -69 47
q-12 18 -30 18q-19 0 -58 -25q-9 -6 -18 -6q-7 0 -19 7t-12 23q0 12 14 21q64 42 101 42q36 0 65 -44q14 -21 33 -21q20 0 57 20q13 8 23 8q14 0 23 -13q5 -8 5 -15q0 -16 -22 -29q-56 -33 -93 -33z" />
    <glyph glyph-name="itilde" unicode="&#x129;" horiz-adv-x="579" 
d="M216 -25q-88 0 -135 40t-64.5 105.5t-17.5 139.5q0 70 18 204q4 33 29 33q15 0 22.5 -11.5t7.5 -23.5q-18 -136 -18 -202q0 -217 158 -217q174 0 363 218q9 10 21 10q11 0 20.5 -10.5t9.5 -23.5t-9 -24q-206 -238 -405 -238zM125 572q-39 0 -69 47q-12 18 -30 18
q-19 0 -58 -25q-9 -6 -18 -6q-7 0 -19 7t-12 23q0 12 14 21q64 42 101 42q36 0 65 -44q14 -21 33 -21q20 0 57 20q13 8 24 8q13 0 22 -13q5 -8 5 -15q0 -16 -22 -29q-56 -33 -93 -33z" />
    <glyph glyph-name="Imacron" unicode="&#x12a;" horiz-adv-x="619" 
d="M194 -710q-14 0 -21 11.5t-7 24.5q2 19 3 31t4 30v6.5t0.5 6.5t1 9.5t2 18.5t3.5 32q53 512 122 964.5t213 954.5q7 24 28 24q18 0 25 -17q5 -9 5 -17q0 -5 -2 -11q-143 -497 -211.5 -947t-120.5 -959l-15 -133q-1 -14 -10 -21.5t-20 -7.5zM445 1496q-11 0 -19 6
q-11 9 -11 23q0 24 22 28q98 20 169 20q87 0 97 -14q7 -8 7 -18q-1 -14 -9.5 -22t-18.5 -8q-42 4 -76 4q-64 0 -161 -19z" />
    <glyph glyph-name="imacron" unicode="&#x12b;" horiz-adv-x="579" 
d="M216 -25q-88 0 -135 40t-64.5 105.5t-17.5 139.5q0 70 18 204q4 33 29 33q15 0 22.5 -11.5t7.5 -23.5q-18 -136 -18 -202q0 -217 158 -217q174 0 363 218q9 10 21 10q11 0 20.5 -10.5t9.5 -23.5t-9 -24q-206 -238 -405 -238zM-42 591q-10 0 -18 6q-12 9 -12 23
q0 24 23 28q98 20 168 20q87 0 98 -14q6 -8 6 -18q0 -14 -8.5 -22t-19.5 -8q-42 4 -76 4q-64 0 -161 -19z" />
    <glyph glyph-name="Ibreve" unicode="&#x12c;" horiz-adv-x="619" 
d="M194 -710q-14 0 -21 11.5t-7 24.5q2 19 3 31t4 30v6.5t0.5 6.5t1 9.5t2 18.5t3.5 32q53 512 122 964.5t213 954.5q7 24 28 24q18 0 25 -17q5 -9 5 -17q0 -5 -2 -11q-143 -497 -211.5 -947t-120.5 -959l-15 -133q-1 -14 -10 -21.5t-20 -7.5zM595 1504h-20q-83 0 -128 76
q-5 9 -5 16q0 26 27 26q8 0 14 -6q55 -56 88 -56q50 0 112 56q7 6 16 6q28 0 28 -27q0 -11 -8 -19q-71 -72 -124 -72z" />
    <glyph glyph-name="ibreve" unicode="&#x12d;" horiz-adv-x="579" 
d="M216 -25q-88 0 -135 40t-64.5 105.5t-17.5 139.5q0 70 18 204q4 33 29 33q15 0 22.5 -11.5t7.5 -23.5q-18 -136 -18 -202q0 -217 158 -217q174 0 363 218q9 10 21 10q11 0 20.5 -10.5t9.5 -23.5t-9 -24q-206 -238 -405 -238zM86 599h-20q-83 0 -128 76q-5 9 -5 16
q0 26 27 26q8 0 14 -6q55 -56 88 -56q50 0 112 56q7 6 16 6q28 0 28 -27q0 -11 -8 -19q-71 -72 -124 -72z" />
    <glyph glyph-name="Iogonek" unicode="&#x12e;" horiz-adv-x="619" 
d="M167 -685q-1 5 -1 11q2 19 3 31t4 30v6.5t0.5 6.5t1 9.5t2 18.5t3.5 32q53 512 122 964.5t213 954.5q7 24 28 24q18 0 25 -17q5 -9 5 -17q0 -5 -2 -11q-143 -497 -211.5 -947t-120.5 -959l-10 -89q3 1 7 1q11 0 18 -5.5t7 -17.5q0 -7 -8 -14q-106 -89 -106 -135
q0 -24 12.5 -36t31.5 -12q27 0 49 9q4 2 8 2q6 0 12 -5q10 -7 10 -23q0 -37 -67 -37q-112 0 -112 98q0 53 76 127z" />
    <glyph glyph-name="iogonek" unicode="&#x12f;" horiz-adv-x="579" 
d="M117 636q-24 0 -33 23q-3 8 -3 17q0 45 54 58q71 132 74 136q9 10 21 11q12 0 21 -9.5t10 -22.5q0 -14 -8.5 -26.5t-22.5 -41.5q-75 -145 -113 -145zM132 -13q-30 10 -51 28q-47 40 -64.5 105.5t-17.5 139.5q0 70 18 204q4 33 29 33q15 0 22.5 -11.5t7.5 -23.5
q-18 -136 -18 -202q0 -217 158 -217q174 0 363 218q9 10 21 10q11 0 20.5 -10.5t9.5 -23.5t-9 -24q-206 -238 -405 -238q-13 0 -25 1q-90 -79 -90 -121q0 -24 12.5 -36t31.5 -12q27 0 49 9q4 2 8 2q6 0 12 -5q10 -7 10 -23q0 -37 -67 -37q-112 0 -112 98q0 56 87 136z" />
    <glyph glyph-name="Idotaccent" unicode="&#x130;" horiz-adv-x="619" 
d="M194 -710q-14 0 -21 11.5t-7 24.5q2 19 3 31t4 30v6.5t0.5 6.5t1 9.5t2 18.5t3.5 32q53 512 122 964.5t213 954.5q7 24 28 24q18 0 25 -17q5 -9 5 -17q0 -5 -2 -11q-143 -497 -211.5 -947t-120.5 -959l-15 -133q-1 -14 -10 -21.5t-20 -7.5zM580 1501q-38 0 -38 45
q0 26 14 44q-6 8 -6 19q1 12 9 20t20 8q59 -5 59 -60q0 -16 -5 -30q-19 -46 -53 -46z" />
    <glyph glyph-name="IJ" unicode="&#x132;" horiz-adv-x="1796" 
d="M194 -710q-14 0 -21 11.5t-7 24.5q2 19 3 31t4 30v6.5t0.5 6.5t1 9.5t2 18.5t3.5 32q53 512 122 964.5t213 954.5q7 24 28 24q18 0 25 -17q5 -9 5 -17q0 -5 -2 -11q-143 -497 -211.5 -947t-120.5 -959l-15 -133q-1 -14 -10 -21.5t-20 -7.5zM1053 -710q-71 0 -117 73
q-40 62 -40 164q0 116 65 237.5t167 224.5q154 154 326 218q59 329 59 621q0 239 -42 380q-38 122 -114 127q-8 0 -10 -1q-109 -9 -204 -109t-168 -245.5t-114.5 -290.5t-41.5 -245q0 -14 -8 -24t-20 -11q-29 0 -31 33q0 109 43.5 264t121.5 309q79 158 186 268
q116 119 245 119q118 0 170 -170q46 -154 46 -437q-4 -272 -54 -570q36 8 70 8q62 0 79 -35q5 -10 5 -19q0 -31 -35 -46q-5 -2 -9 -2q-25 0 -31 34q-48 0 -92 -12q-76 -404 -201 -641q-117 -222 -251 -222zM1053 -643q105 0 207 201q109 217 180 573q-143 -63 -272 -193
q-94 -94 -153.5 -202.5t-59.5 -208.5q0 -122 62 -159q18 -11 36 -11z" />
    <glyph glyph-name="ij" unicode="&#x133;" horiz-adv-x="1119" 
d="M331 -1088q60 19 151 624q-71 -131 -137 -350q-26 -95 -26 -188q0 -69 12 -86zM117 636q-24 0 -33 23q-3 8 -3 17q0 45 54 58q71 132 74 136q9 10 21 11q12 0 21 -9.5t10 -22.5q0 -14 -8.5 -26.5t-22.5 -41.5q-75 -145 -113 -145zM632 636q-24 0 -33 23q-3 8 -3 17
q0 45 54 58l42 80.5t32 55.5q9 10 21 11q11 0 20.5 -9.5t9.5 -26.5q0 -11 -12 -28q-35 -68 -54 -100q-47 -81 -77 -81zM566 153q-178 -178 -350 -178q-88 0 -135 40t-64.5 105.5t-17.5 139.5q0 70 18 204q4 33 29 33q15 0 22.5 -11.5t7.5 -23.5q-18 -136 -18 -202
q0 -217 158 -217q174 0 362 217l11 104q9 79 9 100q0 14 8.5 23.5t21.5 9.5q29 0 29 -37q0 -39 -35 -336q-19 -158 -46 -345q103 104 216 180q77 53 158.5 122t168.5 178q9 11 22 11q11 0 20 -9.5t9 -25.5q0 -11 -7 -21q-91 -114 -176 -185.5t-163 -126.5
q-71 -50 -137.5 -106t-128.5 -139q-32 -207 -69 -391.5t-77.5 -303t-80.5 -118.5q-71 0 -71 154q0 103 29 209q101 334 216 485q37 263 61 461z" />
    <glyph glyph-name="Jcircumflex" unicode="&#x134;" horiz-adv-x="1177" 
d="M434 -710q-71 0 -117 73q-40 62 -40 164q0 116 65 237.5t167 224.5q154 154 326 218q59 329 59 621q0 239 -42 380q-38 122 -114 127q-8 0 -10 -1q-109 -9 -204 -109t-168 -245.5t-114.5 -290.5t-41.5 -245q0 -14 -8 -24t-20 -11q-29 0 -31 33q0 109 43.5 264t121.5 309
q79 158 186 268q116 119 245 119q118 0 170 -170q46 -154 46 -437q-4 -272 -54 -570q36 8 70 8q62 0 79 -35q5 -10 5 -19q0 -31 -35 -46q-5 -2 -9 -2q-25 0 -31 34q-48 0 -92 -12q-76 -404 -201 -641q-117 -222 -251 -222zM434 -643q105 0 207 201q109 217 180 573
q-143 -63 -272 -193q-94 -94 -153.5 -202.5t-59.5 -208.5q0 -122 62 -159q18 -11 36 -11zM746 1611q-42 -66 -55 -89q-20 -36 -29 -46.5t-22 -10.5q-10 0 -18 8t-8 23q0 9 6.5 17.5t22.5 36.5q22 41 50.5 83t54.5 42h7q13 0 22 -10.5t29 -46l40 -69.5q50 -10 50 -50
q0 -7 -3 -14q-8 -20 -30 -20q-26 0 -54.5 42t-50.5 83z" />
    <glyph glyph-name="jcircumflex" unicode="&#x135;" horiz-adv-x="540" 
d="M-248 -1156q-71 0 -71 154q0 103 29 209q101 334 216 485q59 417 84 672q9 79 9 100q0 14 8.5 23.5t21.5 9.5q29 0 29 -37q0 -39 -35 -336q-19 -158 -46 -345q103 104 216 180q77 53 158.5 122t168.5 178q9 11 22 11q11 0 20 -9.5t9 -25.5q0 -11 -7 -21
q-91 -114 -176 -185.5t-163 -126.5q-71 -50 -137.5 -106t-128.5 -139q-32 -207 -69 -391.5t-77.5 -303t-80.5 -118.5zM-248 -1088q60 19 151 624q-71 -131 -137 -350q-26 -95 -26 -188q0 -69 12 -86zM51 706l-55 -89q-20 -36 -29 -46.5t-22 -10.5q-10 0 -18 8t-8 23
q0 9 6.5 17.5t22.5 36.5q22 41 50.5 83t54.5 42h7q13 0 22 -10.5t29 -46l40 -69.5q50 -10 50 -50q0 -7 -3 -14q-8 -20 -30 -20q-26 0 -54.5 42t-50.5 83z" />
    <glyph glyph-name="uni0136" unicode="&#x136;" horiz-adv-x="1047" 
d="M946 -710q-141 0 -279 140q-95 96 -228 292q-85 130 -159 211q-24 -176 -48 -376q-4 -29 -31 -29q-13 0 -20.5 11.5t-7.5 23.5l8 63q19 165 39 318q-23 -2 -47 -2q-34 0 -57 11q-39 20 -39 53q0 52 55 60l35 3q34 0 68 -17q35 259 74 484q69 400 213 844q8 22 28 22
q19 0 26 -17q4 -10 4 -17q0 -5 -2 -11q-142 -439 -210 -836q-37 -216 -76 -497q213 52 361 276q117 182 182.5 406.5t87.5 430.5q2 14 10.5 21.5t17.5 7.5q16 0 23.5 -11t7.5 -24q-23 -216 -91 -449.5t-192 -422.5q-149 -225 -363 -294q73 -85 150 -201q127 -187 211 -274
q127 -133 249 -133q12 0 21 -9.5t9 -23.5q0 -15 -9 -24.5t-21 -9.5zM322 -852q-13 0 -19 12q-2 6 -2 12q0 14 10 21q34 23 59 70l3 4q-11 9 -11 26q0 24 13 56q14 36 36 36q13 0 21 -13q4 -9 4 -20q0 -56 -30 -113.5t-75 -87.5q-4 -3 -9 -3z" />
    <glyph glyph-name="uni0137" unicode="&#x137;" horiz-adv-x="969" 
d="M-2 -238q-29 0 -29 36q0 65 19 317q20 276 77 661q62 424 184 833q7 24 27 24q18 0 25 -17q4 -10 4 -17q0 -5 -2 -11q-197 -672 -258 -1492q76 248 175 365q47 56 105 56q52 0 68 -48q6 -17 6 -56q0 -40 -23 -91q-38 -85 -109 -139q28 -28 69 -61q97 -79 216 -79
q105 0 201 40q108 45 216 176q9 11 21 12q11 0 20.5 -9.5t9.5 -25.5q0 -12 -8 -22q-118 -144 -237 -195q-103 -43 -223 -43q-138 0 -246 87q-49 39 -103 93h-11v-1q-14 0 -25.5 11t-11.5 30t17 31q8 6 18 6q12 0 23 -6q32 13 62 48.5t49 76.5q17 37 17 62q0 27 -1.5 31.5
t-14.5 4.5q-71 0 -149 -174q-89 -199 -148 -485q-6 -29 -30 -29zM190 -517q-13 0 -19 12q-2 6 -2 12q0 14 10 21q34 23 59 70l3 4q-11 9 -11 26q0 24 13 56q14 36 36 36q13 0 21 -13q4 -9 4 -20q0 -56 -30 -113.5t-75 -87.5q-4 -3 -9 -3z" />
    <glyph glyph-name="kgreenlandic" unicode="&#x138;" horiz-adv-x="969" 
d="M-2 -238q-29 0 -29 36q0 65 19 317q20 276 77 661q5 28 28 28q30 0 30 -28l-1 -7q-51 -323 -77 -673q76 248 175 365q47 56 105 56q52 0 68 -48q6 -17 6 -56q0 -40 -23 -91q-38 -85 -109 -139q28 -28 69 -61q97 -79 216 -79q105 0 201 40q108 45 216 176q9 11 21 12
q11 0 20.5 -9.5t9.5 -25.5q0 -12 -8 -22q-118 -144 -237 -195q-103 -43 -223 -43q-138 0 -246 87q-49 39 -103 93h-11v-1q-14 0 -25.5 11t-11.5 30t17 31q8 6 18 6q12 0 23 -6q32 13 62 48.5t49 76.5q17 37 17 62q0 27 -1.5 31.5t-14.5 4.5q-71 0 -149 -174
q-89 -199 -148 -485q-6 -29 -30 -29z" />
    <glyph glyph-name="Lacute" unicode="&#x139;" horiz-adv-x="967" 
d="M62 -642q25 3 50 42q-46 -20 -50 -42zM59 -710q-56 0 -56 65q0 66 146 118q130 327 274 1231q56 350 84 553q11 76 18 117q6 28 29 28q16 0 22.5 -11.5t6.5 -21.5q0 -6 -17 -123q-188 -1297 -355 -1753q159 44 359 65q168 17 310 17q321 0 321 -93q0 -20 -15 -41
q-10 -12 -22 -12q-11 0 -20.5 9.5t-9.5 25.5q0 8 4 16q-46 27 -259 27q-139 0 -304 -17q-232 -23 -389 -65q-69 -135 -127 -135zM680 1675q22 0 30 -20q3 -7 3 -14q0 -40 -50 -50l-40 -69.5t-29 -46t-22 -10.5q-10 0 -18 8t-8 23q0 9 6.5 17.5t22.5 36.5q22 41 50.5 83
t54.5 42z" />
    </font>
</defs>
</svg>
