<?xml version="1.0" encoding="utf-8"?>
<!-- Generator: Adobe Illustrator 22.0.1, SVG Export Plug-In . SVG Version: 6.00 Build 0)  -->
<svg version="1.1" id="Capa_1" xmlns="http://www.w3.org/2000/svg" xmlns:xlink="http://www.w3.org/1999/xlink" x="0px" y="0px"
	 viewBox="0 0 512 512" style="enable-background:new 0 0 512 512;" xml:space="preserve">
<style type="text/css">
	.st0{fill:#F0F0F0;}
	.st1{fill:#D80027;}
	.st2{fill:#3E5EB9;}
	.st3{fill:#FFD900;}
	.st4{fill:#B10C0C;}
	.st5{fill:#FFFFFF;stroke:#000000;stroke-width:1.008;}
	.st6{fill:#FFD900;stroke:#000000;stroke-width:1.008;}
	.st7{fill:#FFD900;stroke:#000000;stroke-width:1.08;}
	.st8{stroke:#FFFFFF;stroke-width:6.927;}
	.st9{stroke:#000000;stroke-width:6.927;}
	.st10{fill:#3D5DA7;stroke:#000000;stroke-width:0.855;}
	.st11{fill:#A70000;}
	.st12{fill:#3D5DA7;stroke:#000000;stroke-width:1.067;}
	.st13{fill:#3D5DA7;stroke:#000000;stroke-width:0.826;}
</style>
<rect y="85.3" class="st0" width="512" height="341.3"/>
<circle class="st1" cx="256" cy="256" r="96"/>
<g>
	<rect y="85.3" class="st2" width="512" height="341.3"/>
	<rect y="149.3" class="st3" width="512" height="213.3"/>
	<rect y="170.7" class="st4" width="512" height="170.7"/>
	<g>
		<g id="e">
			<path class="st5" d="M420.6,217l-20.7,7.3l20.7,7.3l20.7-7.3L420.6,217z"/>
			<path class="st6" d="M107.5,221.9h299.5c1.5,0,2.7,1.1,2.7,2.4l0,0c0,1.3-1.2,2.4-2.7,2.4H107.5c-1.5,0-2.7-1.1-2.7-2.4l0,0
				C104.8,223,106,221.9,107.5,221.9z"/>
			<path class="st6" d="M402.3,226.7c1.2,0,2.4-1.2,2.4-2.4s-1.2-2.4-2.4-2.4"/>
			<path class="st6" d="M399.9,226.7c1.2,0,2.4-1.2,2.4-2.4s-1.2-2.4-2.4-2.4"/>
			<path class="st6" d="M397.4,226.7c1.2,0,2.4-1.2,2.4-2.4s-1.2-2.4-2.4-2.4"/>
		</g>
		<g>
			<g id="e_1_">
				<path class="st5" d="M400.7,231.6l-20.7,7.3l20.7,7.3l20.7-7.3L400.7,231.6z"/>
				<path class="st6" d="M87.6,236.5h299.5c1.5,0,2.7,1.1,2.7,2.4v0c0,1.3-1.2,2.4-2.7,2.4H87.6c-1.5,0-2.7-1.1-2.7-2.4v0
					C85,237.6,86.2,236.5,87.6,236.5z"/>
				<path class="st6" d="M382.4,241.4c1.2,0,2.4-1.2,2.4-2.4s-1.2-2.4-2.4-2.4"/>
				<path class="st6" d="M380,241.4c1.2,0,2.4-1.2,2.4-2.4s-1.2-2.4-2.4-2.4"/>
				<path class="st6" d="M377.6,241.4c1.2,0,2.4-1.2,2.4-2.4s-1.2-2.4-2.4-2.4"/>
			</g>
		</g>
		<path class="st7" d="M54.6,252.3h407.3c2,0,3.6,1.6,3.6,3.7v0c0,2-1.6,3.7-3.6,3.7H54.6c-2,0-3.6-1.6-3.6-3.7v0
			C51,254,52.7,252.3,54.6,252.3z"/>
	</g>
	<path class="st5" d="M377.9,256c-24.4,24.4-56.9,73.1-121.9,73.1c-56.9,0-97.5-48.8-121.9-73.1c24.4-24.4,65-73.1,121.9-73.1
		C321,182.9,353.5,231.6,377.9,256L377.9,256z"/>
	<path d="M247.5,208.3c6.5,7.3,1.1,10.2,7.9,10.7c7.2,0.5,3.1,7.7,9.2,8c4.3,0.2-0.4,17.2,3.7,22.8c4.2,5.9,7.7,1.7,7.7,5.9
		c0.1,4.4-11.4,3.9-11.6,17.4c-0.3,7.8-9.7,8.3-10.1,13.3c-0.6,4.7,18.4,7.3,18.1,11.5c-0.3,4.2-20.4,3.5-21.3,8.3
		c-0.4,4.3,27.7,7.8,30,20.2c-4.2,1.4-16.1,2.7-25.2,2.7c-56.9,0-97.5-48.8-121.9-73.1c24.4-24.4,65-73.1,121.9-73.1
		C256,182.9,239.1,198.3,247.5,208.3L247.5,208.3z"/>
	<g>
		<g>
			<g id="b">
				<path id="a" class="st8" d="M182.6,249.5V230 M194.4,230v19.5 M206.2,230v19.5"/>
				<g>
					<path id="a_1_" class="st8" d="M182.6,282v-19.5 M194.4,262.5V282 M206.2,262.5V282"/>
				</g>
			</g>
			<g id="c">
				<g id="b_1_">
					<path id="a_2_" class="st8" d="M218,249.5V230 M229.8,230v19.5 M241.7,230v19.5"/>
					<g>
						<path id="a_3_" class="st8" d="M218,282v-19.5 M229.8,262.5V282 M241.7,262.5V282"/>
					</g>
				</g>
			</g>
		</g>
		<g>
			<g>
				<g>
					<g id="b_2_">
						<path id="a_4_" class="st9" d="M272,249.5V230 M283.8,230v19.5 M295.6,230v19.5"/>
						<g>
							<path id="a_5_" class="st9" d="M272,282v-19.5 M283.8,262.5V282 M295.6,262.5V282"/>
						</g>
					</g>
					<g id="c_1_">
						<g id="b_3_">
							<path id="a_6_" class="st9" d="M307.4,249.5V230 M319.2,230v19.5 M331.1,230v19.5"/>
							<g>
								<path id="a_7_" class="st9" d="M307.4,282v-19.5 M319.2,262.5V282 M331.1,262.5V282"/>
							</g>
						</g>
					</g>
				</g>
				<g>
					<path class="st10" d="M436.4,253.1c-3.7,6.4,2.8-2.1,18.8,8.6c3,2,5.5,7.2,5.5,10.9c-0.7-0.5-1.3-1.6-2.1-2.3
						c-1.2,1.2,1.1,6.5,1.4,9c-2.5-1.4-2.3-2.1-3.1-3.8c0.2,2.1-0.4,7.8,0.6,10c-2-0.6-1.8-2.1-2.9-2.5c0.7,2.5-0.6,5.2-0.3,8
						c-1.1-1.1-2.4-2-2.9-2.5c-0.1,1.3-2.2,4.8-2.3,6.1c-1-0.6-1.2-1.5-1.4-2.1c-1.2,1.5-5.5,7.1-5.8,8.8
						c-3.3-2.9-11.8-10-12.9-13.8c-1,2.1-2.4,2.9-5.2,4.4c-1.1-6-5.2-12.7-3-17.9c-1.6,0.9-2.9,1.9-4.4,3
						C417.9,268.3,425.5,258.1,436.4,253.1L436.4,253.1z"/>
					<path class="st11" d="M422.6,284.8c1.5-3.1,2.9-4,3.9-6c1.8-3.5,2-6.2,3.5-5.8s1.5,1.8-0.5,5.2
						C427.6,281.6,426.7,282.3,422.6,284.8L422.6,284.8z"/>
					<path class="st11" d="M432.9,292.1c-0.2-2.3,0.5-3.3,0.4-4.8c-0.2-2.6-1.3-4.5,0.1-4.6c1.4-0.1,2.1,0.8,2.1,3.4
						C435.5,288.8,435.1,289.5,432.9,292.1L432.9,292.1z"/>
					<path class="st11" d="M440.8,296.7c-0.6-3.3-0.2-4.7-0.5-6.8c-0.7-3.7-2-6.1-0.7-6.5c1.3-0.3,2.1,0.9,2.6,4.6
						S442.3,292.8,440.8,296.7L440.8,296.7z"/>
					<path class="st11" d="M449,273.8c-1.9-1.5-3-1.6-4.3-2.5c-2.2-1.6-3.3-3.4-4-2.5c-0.7,0.9-0.2,1.8,2.1,3.3
						C445.1,273.7,445.9,273.8,449,273.8L449,273.8z"/>
					<path class="st11" d="M447.6,284.6c-1-2.1-2.1-2.6-2.7-4c-1.2-2.4-1.2-4.4-2.4-3.9c-1.3,0.5-1.4,1.6,0,3.9
						C443.8,282.9,444.5,283.4,447.6,284.6L447.6,284.6z"/>
					<path class="st12" d="M68.9,259.3c-0.2-1.9,0.2-2.1-1-3.5c1.7,0.7,1.7,2.6,3.8,1.2c0.7-0.4,1.1-0.4,0.2-2.5
						c2.1,0.1,9,2.5,10.2,2.5c2.9,0.1,8.2-3.1,11.9,0.9c3.5,3.6,2.4,7.3,2.4,12.3c-1.4-0.7-0.7-1-2.2-2.8c1.1,4.3-0.1,12.1-0.1,16.7
						c-0.6-1.1-0.5-0.6-1.1-1.8c-1.5,4.2-3.3,5.1-3.3,10c-0.5-1.9,0-1.5-0.6-2.6c-1.5,3.2-11.3,5.9-7.5,9.1c-3.4-2-4.9-1.8-6.5-3.6
						c-0.7,0.4-1.2,1.2-1.8,2.4c-6-2.8-3.9-8.7-8.6-12.7c-0.8,1.7-0.4,1.4-1.3,4.2c-1-3.8-1.2-6.2-2.3-9c-0.9,1.5-0.8,1-2.5,3.3
						c-0.7-4.6-1.8-5.7-1.4-8.7c-1.8,1.3-0.6,0.8-2.4,2.3C56.4,265.2,63.7,256.5,68.9,259.3L68.9,259.3z"/>
					<path class="st11" d="M61.5,278.5c1.6-3.8,2.9-5,4-7.4c1.8-4.3,2.1-7.7,3.5-7.2c1.5,0.5,1.5,2.3-0.5,6.5
						C66.5,274.6,65.6,275.5,61.5,278.5L61.5,278.5z"/>
					<path class="st11" d="M67.4,288.1c0.6-3.4,1.6-4.7,2-6.8c0.7-3.9,0.3-6.7,1.7-6.6c1.4,0.2,1.7,1.6,0.8,5.4
						C71,283.9,70.3,284.8,67.4,288.1L67.4,288.1z"/>
					<path class="st11" d="M74.4,294.7c0.2-3.3,0.9-4.6,1.1-6.7c0.2-3.7-0.5-6.4,0.8-6.4c1.3,0,1.8,1.3,1.4,5.1
						C77.3,290.3,76.8,291.3,74.4,294.7z"/>
					<path class="st11" d="M89.5,273c-2.9-2.9-4.6-3.4-6.5-5.3c-3.3-3.2-4.9-6.3-6-5.2c-1.2,1.1-0.5,2.7,3,5.8
						C83.4,271.5,84.6,271.9,89.5,273z"/>
					<path class="st11" d="M87.8,284.2c-1.9-2.9-3.3-3.6-4.5-5.5c-2.1-3.3-2.9-6.1-4.1-5.4c-1.2,0.7-0.9,2.2,1.4,5.3
						C82.9,281.8,83.8,282.4,87.8,284.2L87.8,284.2z"/>
					<path class="st13" d="M216.6,195.8c-3.4,6.5,5.9-2.2,20.5,8.8c2.7,2,6.6,10.1,6.6,13.8c-3.1-0.7-8.6-3.7-8.6-3.7
						s6.4,6.5,6.4,13.9c-2.3-1.4-3.4-1.2-4.2-3c0,2.4,2,3.9,2,7.7c-1.6-1.3-3-2.2-4.4-3c2.1,3.7-3.9,10.9-0.9,13.3
						c-5.3-0.8-10.7-4.2-12.9-7.9c-1.1,0.8-1.3,2-1.3,3.3c0.2,0.1-8.1-6.1-7.3-8.5c-1.1,1.6-1.3,2.4-1.5,4.2c-3-3-5.8-6-6.8-9.8
						c-1.3,1.7-1.4,1.7-2.8,3.5c-1-6.1-1-5.9,1-11.1c-1.4,0.9-2.6,1.9-4,3.1C199.7,211.4,206.6,201,216.6,195.8L216.6,195.8z"/>
					<path class="st11" d="M208.2,227.8c0.5-4.5,1.7-6.2,2.1-9.1c0.6-5.1-0.1-8.8,1.7-8.7c1.8,0.1,2.3,2,1.4,7.1
						C212.5,222.1,211.8,223.3,208.2,227.8L208.2,227.8z"/>
					<path class="st11" d="M217.7,236c-0.4-3.8,0.3-5.4,0.1-7.9c-0.4-4.3-1.7-7.2-0.2-7.5c1.6-0.3,2.4,1.2,2.5,5.5
						C220.3,230.5,219.9,231.7,217.7,236L217.7,236z"/>
					<path class="st11" d="M232.4,242.7c-1.6-3.3-3-4.3-4-6.4c-1.8-3.7-2.2-6.8-3.6-6.2c-1.4,0.6-1.3,2.1,0.7,5.8
						C227.5,239.5,228.4,240.3,232.4,242.7z"/>
					<path class="st11" d="M237.5,213.3c-4.1-2.1-6.2-2.2-8.8-3.6c-4.6-2.4-7.3-5.1-8.3-3.6c-1,1.5,0.3,3,5.1,5.2
						C230.3,213.5,231.7,213.6,237.5,213.3L237.5,213.3z"/>
					<path class="st11" d="M239,225.6c-3-2.5-4.7-2.8-6.6-4.4c-3.4-2.8-5.1-5.5-6.2-4.4c-1.1,1.1-0.4,2.6,3.2,5.2
						S234.1,224.9,239,225.6L239,225.6z"/>
				</g>
			</g>
		</g>
	</g>
</g>
</svg>
