<?xml version="1.0" encoding="utf-8"?>
<!-- Generator: Adobe Illustrator 22.0.1, SVG Export Plug-In . SVG Version: 6.00 Build 0)  -->
<svg version="1.1" id="Layer_1" xmlns="http://www.w3.org/2000/svg" xmlns:xlink="http://www.w3.org/1999/xlink" x="0px" y="0px"
	 viewBox="0 0 141 90" style="enable-background:new 0 0 141 90;" xml:space="preserve">
<style type="text/css">
	.st0{fill:url(#SVGID_1_);}
	.st1{fill:#B3B3B3;}
	.st2{fill:#F48120;}
	.st3{fill:url(#SVGID_2_);}
	.st4{opacity:0.65;fill:url(#SVGID_3_);enable-background:new    ;}
	.st5{fill:#231F20;}
</style>
<linearGradient id="SVGID_1_" gradientUnits="userSpaceOnUse" x1="70.5001" y1="90.97" x2="70.5001" y2="2.97" gradientTransform="matrix(1 0 0 -1 0 91.94)">
	<stop  offset="0" style="stop-color:#FFFFFF"/>
	<stop  offset="1" style="stop-color:#F2F2F2"/>
</linearGradient>
<path class="st0" d="M4.8,1h131.5c2.1,0,3.8,1.7,3.8,3.8v80.5c0,2.1-1.7,3.8-3.8,3.8H4.8C2.7,89,1,87.3,1,85.2V4.7
	C1,2.7,2.7,1,4.8,1z"/>
<path class="st1" d="M136.2,90H4.8C2.1,90,0,87.9,0,85.2c0,0,0,0,0,0V4.7C0,2.1,2.1,0,4.8,0h131.5c2.6,0,4.7,2.1,4.8,4.7v80.5
	C141,87.8,138.9,90,136.2,90C136.3,90,136.2,90,136.2,90z M4.8,1C2.7,1,1,2.7,1,4.7v80.5C1,87.3,2.7,89,4.7,89c0,0,0,0,0,0h131.5
	c2.1,0,3.8-1.7,3.8-3.8c0,0,0,0,0,0V4.7c0-2.1-1.7-3.7-3.8-3.7C136.2,1,4.8,1,4.8,1z"/>
<path class="st2" d="M32.3,89h104.4c1.8,0,3.2-1.4,3.2-3.2c0,0,0,0,0,0V50.1C139.9,50.2,101.9,77,32.3,89z"/>
<linearGradient id="SVGID_2_" gradientUnits="userSpaceOnUse" x1="79.7113" y1="45.3508" x2="72.2313" y2="57.0608" gradientTransform="matrix(1 0 0 -1 0 91.94)">
	<stop  offset="0" style="stop-color:#F89F20"/>
	<stop  offset="0.25" style="stop-color:#F79A20"/>
	<stop  offset="0.53" style="stop-color:#F68D20"/>
	<stop  offset="0.62" style="stop-color:#F58720"/>
	<stop  offset="0.72" style="stop-color:#F48120"/>
	<stop  offset="1" style="stop-color:#F37521"/>
</linearGradient>
<circle class="st3" cx="74.2" cy="37.9" r="10.8"/>
<linearGradient id="SVGID_3_" gradientUnits="userSpaceOnUse" x1="78.5281" y1="45.509" x2="67.5981" y2="66.879" gradientTransform="matrix(1 0 0 -1 0 91.94)">
	<stop  offset="0" style="stop-color:#F58720;stop-opacity:0"/>
	<stop  offset="0.11" style="stop-color:#EE7F23;stop-opacity:0.14"/>
	<stop  offset="0.31" style="stop-color:#E37227;stop-opacity:0.35"/>
	<stop  offset="0.5" style="stop-color:#DB682A;stop-opacity:0.52"/>
	<stop  offset="0.69" style="stop-color:#D5612C;stop-opacity:0.64"/>
	<stop  offset="0.85" style="stop-color:#D15D2E;stop-opacity:0.71"/>
	<stop  offset="0.98" style="stop-color:#D05B2E;stop-opacity:0.74"/>
</linearGradient>
<circle class="st4" cx="74.2" cy="37.9" r="10.8"/>
<path class="st5" d="M20.2,45.6c2.3-1.9,3.7-4.7,3.7-7.6c0-6-4.5-10-10.9-10H7v20h5.9C15.5,48.1,18.1,47.3,20.2,45.6z M11,45V31h1.1
	c2.6,0,4.1,0.5,5.4,1.7c1.4,1.3,2.2,3.2,2.2,5.1c0.2,3.8-2.8,7-6.7,7.2c-0.3,0-0.6,0-1,0H11z M26,48V28h4v20H26z M41.1,42
	c0-0.9-0.5-1.7-1.2-2.1c-0.9-0.5-1.8-0.9-2.7-1.2c-3.7-1.3-5-2.8-5-5.6c0-3.3,2.7-5.8,6.3-5.8c2.2,0,4.3,0.8,6,2.3l-2.1,2.7
	c-0.8-1-1.9-1.6-3.2-1.6c-1.7,0-3,1-3,2.3c0,1.1,0.7,1.7,3.1,2.6c4.5,1.7,5.8,3.1,5.8,6.3c0,3.9-2.9,6.7-7,6.7
	c-2.9,0.1-5.5-1.4-7-3.9l2.6-2.5c0.8,1.7,2.5,2.7,4.3,2.7c1.6,0.1,3-1.1,3.1-2.7C41.1,42.1,41.1,42.1,41.1,42L41.1,42z M50.4,37.8
	c-0.2,3.7,2.6,6.8,6.3,7c0.2,0,0.4,0,0.6,0c1.8,0,2.7-0.6,4.7-2.2v4.7c-1.5,0.8-3.2,1.2-4.9,1.2c-5.8,0.1-10.6-4.5-10.7-10.3
	c0-0.1,0-0.2,0-0.3c0-5.9,4.8-10.6,10.7-10.6c1.7,0,3.4,0.4,5,1.2v4.7c-2-1.6-3-2.3-4.9-2.3c-3.7,0.1-6.7,3.1-6.6,6.9
	C50.4,37.8,50.4,37.8,50.4,37.8L50.4,37.8z M92.4,49l-8.6-21h4.3l5.4,13.6L99,28h4.3l-8.8,21H92.4z M109,31v5h7v3h-7v6h7v3h-11V28
	h11v3H109z M132,33.9c0-3.8-2.6-5.9-7.2-5.9H119v20h4v-8h0.4l5.5,8h4.9l-6.4-8.5C130.2,39.2,132.2,36.7,132,33.9L132,33.9z M124,37
	h-1v-6h1.1c2.5,0,3.8,1,3.8,2.9S126.6,37,124,37z M134.5,28.5c0-0.3-0.2-0.6-0.6-0.6c0,0-0.1,0-0.1,0h-0.6v1.8h0.4V29l0.5,0.7h0.5
	l-0.6-0.7C134.4,28.9,134.5,28.7,134.5,28.5L134.5,28.5z M133.7,28.7L133.7,28.7l-0.1-0.5h0.1c0.2,0,0.3,0.1,0.3,0.2
	S134,28.7,133.7,28.7L133.7,28.7z M135.4,28.8c0-0.9-0.7-1.5-1.6-1.5s-1.5,0.7-1.5,1.6c0,0.9,0.7,1.5,1.6,1.5
	C134.7,30.4,135.4,29.7,135.4,28.8C135.5,28.8,135.5,28.8,135.4,28.8L135.4,28.8z M132.7,28.8c0-0.7,0.6-1.2,1.3-1.2
	c0.7,0,1.2,0.6,1.2,1.3c0,0.7-0.6,1.2-1.2,1.2C133.2,30.1,132.7,29.5,132.7,28.8C132.7,28.8,132.7,28.8,132.7,28.8L132.7,28.8z"/>
</svg>
