<?xml version="1.0" encoding="utf-8"?>
<!-- Generator: Adobe Illustrator 22.0.1, SVG Export Plug-In . SVG Version: 6.00 Build 0)  -->
<svg version="1.1" id="Layer_1" xmlns="http://www.w3.org/2000/svg" xmlns:xlink="http://www.w3.org/1999/xlink" x="0px" y="0px"
	 viewBox="0 0 667.6 100" style="enable-background:new 0 0 667.6 100;" xml:space="preserve">
<style type="text/css">
	.st0{fill:url(#SVGID_1_);}
	.st1{fill:#B4B4B4;}
	.st2{fill:#F08224;}
	.st3{fill:url(#SVGID_2_);}
	.st4{opacity:0.65;fill:url(#SVGID_3_);enable-background:new    ;}
	.st5{fill:#231F20;}
	.st6{fill:#F6F6F6;}
	.st7{fill:#275798;}
	.st8{fill:#D97B15;}
	.st9{fill:#396DB4;}
	.st10{fill:#FFFFFF;}
	.st11{fill:#E0AD14;}
	.st12{fill:#C03226;}
</style>
<g>
	
		<linearGradient id="SVGID_1_" gradientUnits="userSpaceOnUse" x1="589.3099" y1="174.9225" x2="589.3099" y2="77.1741" gradientTransform="matrix(1 0 0 -1 0 176)">
		<stop  offset="0" style="stop-color:#FFFFFF"/>
		<stop  offset="1" style="stop-color:#F2F2F2"/>
	</linearGradient>
	<path class="st0" d="M516.3,1.1h146c2.3,0,4.2,1.9,4.2,4.2v89.4c0,2.3-1.9,4.2-4.2,4.2h-146c-2.3,0-4.2-1.9-4.2-4.2V5.3
		C512.1,2.9,514,1.1,516.3,1.1z"/>
	<path class="st1" d="M662.3,100h-146c-2.9,0-5.3-2.4-5.3-5.3c0,0,0,0,0,0V5.3c0-2.9,2.4-5.2,5.3-5.3h146c2.9,0,5.3,2.3,5.3,5.3
		v89.4C667.6,97.6,665.3,100,662.3,100C662.3,100,662.3,100,662.3,100z M516.3,1.1c-2.3,0-4.2,1.9-4.2,4.1v89.4
		c0,2.3,1.8,4.2,4.2,4.2c0,0,0,0,0,0h146c2.3,0,4.2-1.9,4.2-4.2c0,0,0,0,0,0V5.3c0-2.3-1.9-4.1-4.2-4.1
		C662.3,1.1,516.3,1.1,516.3,1.1z"/>
	<path class="st2" d="M546.9,98.9h116c2,0,3.6-1.6,3.6-3.6c0,0,0,0,0,0V55.6C666.4,55.7,624.2,85.5,546.9,98.9z"/>
	
		<linearGradient id="SVGID_2_" gradientUnits="userSpaceOnUse" x1="599.5414" y1="124.2497" x2="591.2328" y2="137.2569" gradientTransform="matrix(1 0 0 -1 0 176)">
		<stop  offset="0" style="stop-color:#F69F25"/>
		<stop  offset="0.25" style="stop-color:#F59A25"/>
		<stop  offset="0.53" style="stop-color:#F28C25"/>
		<stop  offset="0.62" style="stop-color:#F18724"/>
		<stop  offset="0.72" style="stop-color:#F08224"/>
		<stop  offset="1" style="stop-color:#EE7626"/>
	</linearGradient>
	<circle class="st3" cx="593.4" cy="42.1" r="12"/>
	
		<linearGradient id="SVGID_3_" gradientUnits="userSpaceOnUse" x1="598.2271" y1="124.4254" x2="586.0864" y2="148.1628" gradientTransform="matrix(1 0 0 -1 0 176)">
		<stop  offset="0" style="stop-color:#F18724;stop-opacity:0"/>
		<stop  offset="0.11" style="stop-color:#EF8024;stop-opacity:0.14"/>
		<stop  offset="0.31" style="stop-color:#E37226;stop-opacity:0.35"/>
		<stop  offset="0.5" style="stop-color:#DA682B;stop-opacity:0.52"/>
		<stop  offset="0.69" style="stop-color:#D5622B;stop-opacity:0.64"/>
		<stop  offset="0.85" style="stop-color:#D15E2E;stop-opacity:0.71"/>
		<stop  offset="0.98" style="stop-color:#D15C2E;stop-opacity:0.74"/>
	</linearGradient>
	<circle class="st4" cx="593.4" cy="42.1" r="12"/>
	<path class="st5" d="M533.4,50.7c2.6-2.1,4.1-5.2,4.1-8.5c0-6.7-5-11.1-12.1-11.1h-6.6v22.2h6.6C528.2,53.5,531.1,52.5,533.4,50.7z
		 M523.2,50V34.4h1.3c2.8,0,4.6,0.6,6,1.9c1.6,1.5,2.4,3.5,2.4,5.7c0.2,4.2-3.1,7.8-7.4,8c-0.4,0-0.7,0-1.1,0H523.2z M539.9,53.3
		V31.1h4.4v22.2H539.9z M556.6,46.7c0-1-0.5-1.8-1.3-2.3c-1-0.5-2-1-3-1.3c-4.1-1.5-5.6-3.1-5.6-6.2c0-3.7,3-6.5,7-6.5
		c2.5,0,4.8,0.9,6.7,2.5l-2.3,3c-0.8-1.1-2.1-1.8-3.5-1.8c-1.9,0-3.3,1.1-3.3,2.5c0,1.2,0.8,1.9,3.4,2.8c5,1.8,6.5,3.5,6.5,7
		c0,4.4-3.2,7.4-7.8,7.4c-3.2,0.1-6.2-1.6-7.8-4.3l2.8-2.7c0.9,1.9,2.7,3,4.8,3c1.8,0.1,3.3-1.2,3.4-3
		C556.6,46.8,556.6,46.7,556.6,46.7L556.6,46.7z M567,42c-0.2,4.1,2.9,7.5,7,7.8c0.2,0,0.4,0,0.6,0c2,0,3-0.7,5.3-2.5v5.2
		c-1.7,0.8-3.6,1.3-5.5,1.3c-6.4,0.1-11.7-5-11.9-11.4c0-0.1,0-0.2,0-0.3c0-6.5,5.3-11.8,11.8-11.8c1.9,0,3.8,0.5,5.5,1.4v5.2
		c-2.2-1.8-3.3-2.5-5.5-2.5c-4.1,0.1-7.4,3.5-7.4,7.6C567,41.9,567,42,567,42L567,42z M613.6,54.4L604,31.1h4.8l6,15.2l6.1-15.2h4.8
		L616,54.4H613.6z M632.1,34.4V40h7.8v3.3h-7.8V50h7.8v3.3h-12.2V31.1h12.2v3.3H632.1z M657.6,37.6c0-4.2-2.9-6.5-8-6.5h-6.5v22.2
		h4.4v-8.9h0.4l6.1,8.9h5.4l-7.1-9.4C655.6,43.5,657.9,40.7,657.6,37.6L657.6,37.6z M648.7,41.1h-1.1v-6.7h1.2
		c2.7,0,4.2,1.1,4.2,3.3C653.1,39.8,651.6,41.1,648.7,41.1z M660.4,31.7c0-0.3-0.3-0.6-0.6-0.6c0,0-0.1,0-0.1,0H659V33h0.5v-0.8
		L660,33h0.6l-0.6-0.8C660.3,32.2,660.4,31.9,660.4,31.7L660.4,31.7z M659.5,31.9L659.5,31.9l-0.1-0.6h0.1c0.2,0,0.4,0.1,0.4,0.3
		C659.9,31.8,659.8,31.9,659.5,31.9L659.5,31.9z M661.4,32c0-1-0.8-1.7-1.7-1.7c-1,0-1.7,0.8-1.7,1.7c0,1,0.8,1.7,1.7,1.7
		C660.7,33.8,661.5,33,661.4,32C661.5,32,661.5,32,661.4,32L661.4,32z M658.3,32c0-0.8,0.7-1.4,1.4-1.3c0.8,0,1.4,0.7,1.3,1.4
		c0,0.7-0.6,1.3-1.4,1.3C659,33.4,658.3,32.8,658.3,32C658.4,32,658.4,32,658.3,32L658.3,32z"/>
</g>
<g id="Page-1">
	<g id="Visa">
		<rect id="Rectangle-20" y="9" class="st6" width="160" height="80"/>
		<path id="Rectangle-1" class="st7" d="M148,0C140,0,55.3,0,8,0C4,0,0,4,0,8v12h160c0,0,0,18.6,0-8C160,4,156,0,148,0z"/>
		<path id="Rectangle-1_1_" class="st8" d="M0,80c0,0,0,0,0,8c0,8,4,12,12,12c44.6,0,128,0,136,0s12-4,12-12v-8H0z"/>
		<path id="Shape" class="st7" d="M111.6,29.8c-2.2-0.9-5.8-1.8-10.1-1.8c-11.2,0-19.1,5.8-19.1,14c-0.1,6.1,5.6,9.5,9.9,11.5
			c4.4,2.1,5.9,3.4,5.9,5.3c0,2.8-3.5,4.1-6.8,4.1c-4.5,0-6.9-0.6-10.7-2.2L79.2,60l-1.6,9.5c2.6,1.2,7.5,2.2,12.6,2.3
			c11.9,0,19.6-5.7,19.7-14.5c0-4.8-3-8.5-9.5-11.5c-4-2-6.4-3.3-6.4-5.3c0-1.8,2.1-3.6,6.5-3.6c3.7-0.1,6.4,0.8,8.5,1.6l1,0.5
			L111.6,29.8"/>
		<path id="Shape_1_" class="st7" d="M140.6,28.8h-8.7c-2.7,0-4.7,0.8-5.9,3.5l-16.8,38.9H121c0,0,1.9-5.2,2.4-6.4
			c1.3,0,12.8,0,14.5,0c0.3,1.5,1.4,6.4,1.4,6.4h10.5L140.6,28.8L140.6,28.8z M126.7,56.1c0.9-2.4,4.5-11.9,4.5-11.9
			c-0.1,0.1,0.9-2.5,1.5-4l0.8,3.7c0,0,2.2,10.1,2.6,12.3L126.7,56.1L126.7,56.1L126.7,56.1L126.7,56.1z"/>
		<path id="Shape_2_" class="st7" d="M59.2,71.2l7.1-42.4h11.3l-7.1,42.4H59.2z"/>
		<path id="Shape_3_" class="st7" d="M49.8,28.8L38.7,57.7l-1.2-5.9C35.4,45,29,37.7,21.8,34L32,71.1l12,0l17.8-42.3H49.8"/>
		<path id="Shape_4_" class="st8" d="M28.4,28.7H10.1L10,29.6c14.2,3.5,23.6,12,27.5,22.2l-4-19.5C32.8,29.6,30.9,28.8,28.4,28.7"/>
	</g>
</g>
<g id="Page-1_1_">
	<g id="american-express" transform="translate(-1.000000, 0.000000)">
		<path id="Rectangle-1_2_" class="st9" d="M490,0c-8,0-92.7,0-140,0c-4,0-8,4-8,8v80c0,8,4,12,12,12c44.6,0,128,0,136,0s12-4,12-12
			V12C502,4,498,0,490,0z"/>
		<path id="Shape_5_" class="st10" d="M355.5,36.6l-3.1-7.6l-3.1,7.6H355.5z M423.8,33.6c-0.6,0.4-1.4,0.4-2.2,0.4H416v-4.2h5.6
			c0.8,0,1.6,0,2.1,0.3c0.6,0.3,1,0.9,1,1.7C424.7,32.6,424.4,33.3,423.8,33.6C423.8,33.6,424.4,33.3,423.8,33.6L423.8,33.6
			L423.8,33.6z M463,36.6l-3.1-7.6l-3.1,7.6H463L463,36.6L463,36.6L463,36.6z M389.9,44.8h-4.6l0-14.8l-6.6,14.8h-4L368.1,30v14.8
			h-9.2l-1.7-4.2h-9.4l-1.8,4.2h-4.9l8.1-18.9h6.7l7.7,17.9V25.9h7.4l5.9,12.8l5.4-12.8h7.5L389.9,44.8L389.9,44.8L389.9,44.8
			L389.9,44.8z M408.4,44.8h-15.1V25.9h15.1v3.9h-10.6v3.4h10.3v3.9h-10.3v3.8h10.6V44.8L408.4,44.8L408.4,44.8L408.4,44.8z
			 M429.7,31c0,3-2,4.6-3.2,5c1,0.4,1.8,1,2.2,1.6c0.6,0.9,0.7,1.8,0.7,3.5v3.7h-4.6l0-2.4c0-1.1,0.1-2.8-0.7-3.7
			c-0.7-0.7-1.7-0.8-3.3-0.8H416v6.9h-4.5V25.9h10.4c2.3,0,4,0.1,5.5,0.9C428.8,27.6,429.7,28.8,429.7,31
			C429.7,31,429.7,28.8,429.7,31L429.7,31L429.7,31z M437,44.8h-4.6V25.9h4.6V44.8L437,44.8L437,44.8L437,44.8z M490.5,44.8h-6.4
			l-8.6-14.2v14.2h-9.2l-1.8-4.2h-9.4l-1.7,4.2h-5.3c-2.2,0-5-0.5-6.6-2.1c-1.6-1.6-2.4-3.8-2.4-7.2c0-2.8,0.5-5.4,2.4-7.4
			c1.5-1.5,3.8-2.2,6.9-2.2h4.4v4.1h-4.3c-1.7,0-2.6,0.2-3.5,1.1c-0.8,0.8-1.3,2.3-1.3,4.3c0,2,0.4,3.5,1.2,4.4c0.7,0.7,2,1,3.2,1h2
			l6.4-14.9h6.8l7.7,17.9V25.9h6.9l8,13.2V25.9h4.6V44.8L490.5,44.8L490.5,44.8L490.5,44.8z M341,48.5h7.7l1.7-4.2h3.9l1.7,4.2h15.2
			v-3.2l1.4,3.2h7.9l1.4-3.3v3.3h37.8l0-6.9h0.7c0.5,0,0.7,0.1,0.7,0.9v6h19.6v-1.6c1.6,0.8,4,1.6,7.3,1.6h8.2l1.8-4.2h3.9l1.7,4.2
			h15.9v-4l2.4,4h12.7V22.1H482v3.1l-1.8-3.1h-12.9v3.1l-1.6-3.1h-17.4c-2.9,0-5.5,0.4-7.6,1.5v-1.5h-12v1.5
			c-1.3-1.2-3.1-1.5-5.1-1.5h-44l-2.9,6.8l-3-6.8h-13.8v3.1l-1.5-3.1h-11.8L341,34.7L341,48.5L341,48.5z M502,62.5h-8.3
			c-0.8,0-1.4,0-1.8,0.3c-0.5,0.3-0.7,0.8-0.7,1.4c0,0.7,0.4,1.2,1,1.4c0.5,0.2,1,0.2,1.7,0.2l2.5,0.1c2.5,0.1,4.1,0.5,5.1,1.5
			c0.2,0.1,0.3,0.3,0.4,0.5V62.5z M502,75c-1.1,1.6-3.2,2.4-6.1,2.4h-8.7v-4.1h8.7c0.9,0,1.5-0.1,1.8-0.5c0.3-0.3,0.5-0.7,0.5-1.2
			c0-0.6-0.2-1-0.6-1.3c-0.3-0.3-0.8-0.4-1.6-0.4c-4.3-0.1-9.6,0.1-9.6-5.9c0-2.7,1.7-5.6,6.5-5.6h9v-3.8h-8.4
			c-2.5,0-4.4,0.6-5.7,1.5v-1.5h-12.4c-2,0-4.3,0.5-5.4,1.5v-1.5h-22.1v1.5c-1.8-1.3-4.7-1.5-6.1-1.5h-14.6v1.5
			c-1.4-1.3-4.5-1.5-6.4-1.5h-16.3l-3.7,4l-3.5-4H373v26.4h23.9l3.9-4.1l3.6,4.1l14.8,0v-6.2h1.5c2,0,4.3,0,6.3-0.9v7.1h12.2v-6.9
			h0.6c0.7,0,0.8,0,0.8,0.8v6.1h37c2.3,0,4.8-0.6,6.2-1.7v1.7h11.7c2.4,0,4.8-0.3,6.6-1.2V75L502,75L502,75L502,75z M484,67.4
			c0.9,0.9,1.4,2.1,1.4,4c0,4.1-2.5,6-7.1,6h-8.8v-4.1h8.8c0.9,0,1.5-0.1,1.8-0.5c0.3-0.3,0.5-0.7,0.5-1.2c0-0.6-0.2-1-0.6-1.3
			c-0.3-0.3-0.8-0.4-1.6-0.4c-4.2-0.1-9.5,0.1-9.5-5.9c0-2.7,1.7-5.6,6.5-5.6h9.1v4h-8.3c-0.8,0-1.4,0-1.8,0.3
			c-0.5,0.3-0.7,0.8-0.7,1.4c0,0.7,0.4,1.2,1,1.4c0.5,0.2,1,0.2,1.8,0.2l2.4,0.1C481.3,65.9,483,66.3,484,67.4
			C484,67.4,483,66.3,484,67.4L484,67.4L484,67.4z M443.1,66.2c-0.6,0.4-1.4,0.4-2.2,0.4h-5.5v-4.3h5.6c0.8,0,1.6,0,2.2,0.3
			c0.6,0.3,0.9,0.9,0.9,1.7C444.1,65.2,443.7,65.9,443.1,66.2C443.1,66.2,443.7,65.9,443.1,66.2L443.1,66.2L443.1,66.2z M445.9,68.6
			c1,0.4,1.8,1,2.2,1.6c0.6,0.9,0.7,1.8,0.8,3.5v3.8h-4.5V75c0-1.1,0.1-2.8-0.7-3.7c-0.7-0.7-1.7-0.8-3.3-0.8h-4.8v6.9h-4.5V58.4
			h10.5c2.3,0,4,0.1,5.4,0.9c1.4,0.9,2.3,2,2.3,4.2C449.1,66.6,447.1,68.1,445.9,68.6C445.9,68.6,447.1,68.1,445.9,68.6L445.9,68.6
			L445.9,68.6z M451.6,58.4h15.1v3.9h-10.6v3.4h10.3v3.9h-10.3v3.8l10.6,0v3.9h-15.1V58.4L451.6,58.4L451.6,58.4L451.6,58.4z
			 M421,67.2h-5.9v-4.8h5.9c1.6,0,2.8,0.7,2.8,2.3C423.9,66.3,422.8,67.2,421,67.2L421,67.2L421,67.2L421,67.2z M410.7,75.7l-7-7.7
			l7-7.5V75.7L410.7,75.7L410.7,75.7L410.7,75.7z M392.7,73.4h-11.1v-3.8h9.9v-3.9h-9.9v-3.4h11.4l5,5.5L392.7,73.4L392.7,73.4
			L392.7,73.4L392.7,73.4z M428.7,64.7c0,5.3-3.9,6.3-7.9,6.3h-5.6v6.4h-8.8l-5.6-6.3l-5.8,6.3h-17.9V58.4h18.2l5.6,6.2l5.8-6.2
			h14.5C424.7,58.4,428.7,59.4,428.7,64.7C428.7,64.7,428.7,59.4,428.7,64.7L428.7,64.7L428.7,64.7z"/>
	</g>
</g>
<g id="Page-1_2_">
	<g id="Master" transform="translate(-1.000000, 0.000000)">
		<path id="Rectangle-1_3_" class="st7" d="M319,0c-8,0-92.7,0-140,0c-4,0-8,4-8,8v80c0,8,4,12,12,12c44.6,0,128,0,136,0s12-4,12-12
			V12C331,4,327,0,319,0z"/>
		<path id="path2268" class="st11" d="M320.5,50.5c0,23.2-18.6,42.1-41.6,42.1c-23,0-41.6-18.8-41.6-42.1v0
			c0-23.2,18.6-42.1,41.6-42.1C301.9,8.4,320.5,27.2,320.5,50.5L320.5,50.5C320.5,50.5,320.5,50.5,320.5,50.5L320.5,50.5L320.5,50.5
			z"/>
		<path id="path1350" class="st12" d="M222.8,8.4c-22.9,0.1-41.4,18.9-41.4,42.1c0,23.2,18.6,42.1,41.6,42.1c10.8,0,20.6-4.2,28-11
			c0,0,0,0,0,0h0c1.5-1.4,2.9-2.9,4.2-4.5h-8.5c-1.1-1.4-2.2-2.8-3.1-4.3h14.7c0.9-1.4,1.7-2.9,2.4-4.5h-19.6
			c-0.7-1.4-1.2-2.9-1.7-4.4h23c1.4-4.2,2.1-8.7,2.1-13.3c0-3.1-0.3-6.1-1-9h-25.4c0.3-1.5,0.7-3,1.2-4.4h23c-0.5-1.5-1.1-3-1.8-4.5
			h-19.5c0.7-1.5,1.5-3,2.4-4.4h14.7c-1-1.6-2.1-3.1-3.2-4.5h-8.2c1.3-1.5,2.7-2.9,4.2-4.3c-7.4-6.8-17.2-11-28-11
			C223,8.4,222.9,8.4,222.8,8.4C222.8,8.4,222.9,8.4,222.8,8.4L222.8,8.4L222.8,8.4z"/>
		<path id="path4157" class="st10" d="M238,61.2l0.6-3.8c-0.3,0-0.7,0.1-1.1,0.1c-1.5,0-1.7-0.8-1.6-1.4l1.2-7.8h2.3l0.6-4.2h-2.2
			l0.5-2.6h-4.4c-0.1,0.1-2.6,14.7-2.6,16.5c0,2.6,1.5,3.8,3.5,3.8C236.3,61.8,237.6,61.3,238,61.2C238,61.2,237.6,61.3,238,61.2
			L238,61.2L238,61.2z"/>
		<path id="path4155" class="st10" d="M239.5,54c0,6.3,4.1,7.8,7.7,7.8c3.3,0,4.7-0.7,4.7-0.7l0.8-4.3c0,0-2.5,1.1-4.7,1.1
			c-4.8,0-3.9-3.6-3.9-3.6h9c0,0,0.6-2.9,0.6-4.1c0-3-1.5-6.5-6.3-6.5C242.8,43.6,239.5,48.5,239.5,54C239.5,54,239.5,48.5,239.5,54
			L239.5,54L239.5,54z M247.2,47.6c2.5,0,2,2.8,2,3.1h-4.9C244.3,50.4,244.8,47.6,247.2,47.6C247.2,47.6,244.8,47.6,247.2,47.6
			L247.2,47.6L247.2,47.6z"/>
		<path id="path4151" class="st10" d="M275.3,61.2l0.8-4.9c0,0-2.2,1.1-3.7,1.1c-3.1,0-4.4-2.4-4.4-5c0-5.3,2.7-8.2,5.7-8.2
			c2.3,0,4.1,1.3,4.1,1.3l0.7-4.7c0,0-2.7-1.1-5-1.1c-5.1,0-10.1,4.5-10.1,12.9c0,5.6,2.7,9.3,8,9.3
			C272.9,61.8,275.3,61.2,275.3,61.2L275.3,61.2L275.3,61.2L275.3,61.2z"/>
		<path id="path4149" class="st10" d="M213.7,43.7c-3,0-5.4,1-5.4,1l-0.6,3.9c0,0,1.9-0.8,4.8-0.8c1.7,0,2.9,0.2,2.9,1.5
			c0,0.8-0.1,1.1-0.1,1.1s-1.3-0.1-1.9-0.1c-3.8,0-7.9,1.7-7.9,6.6c0,3.9,2.6,4.8,4.3,4.8c3.1,0,4.5-2.1,4.5-2.1l-0.1,1.7h3.9
			l1.7-12.3C219.8,43.9,215.2,43.7,213.7,43.7L213.7,43.7L213.7,43.7L213.7,43.7z M214.6,53.7c0.1,0.8-0.5,4.3-3.1,4.3
			c-1.4,0-1.7-1.1-1.7-1.7c0-1.2,0.7-2.7,3.9-2.7C214.4,53.6,214.5,53.7,214.6,53.7C214.6,53.7,214.5,53.7,214.6,53.7L214.6,53.7
			L214.6,53.7z"/>
		<path id="path4145" class="st10" d="M223.9,61.7c1,0,6.7,0.3,6.7-5.7c0-5.6-5.3-4.5-5.3-6.7c0-1.1,0.9-1.5,2.4-1.5
			c0.6,0,3,0.2,3,0.2l0.6-4c0,0-1.6-0.4-4.1-0.4c-3.3,0-6.6,1.3-6.6,5.8c0,5.1,5.5,4.6,5.5,6.8c0,1.4-1.6,1.6-2.7,1.6
			c-2.1,0-3.9-0.7-3.9-0.7l-0.6,3.9C219,61.2,220.2,61.7,223.9,61.7C223.9,61.7,220.2,61.7,223.9,61.7L223.9,61.7L223.9,61.7z"/>
		<path id="path4139" class="st10" d="M312,40.1l-1,6c0,0-1.7-2.3-4.3-2.3c-4.1,0-7.4,4.9-7.4,10.6c0,3.7,1.8,7.3,5.5,7.3
			c2.7,0,4.1-1.9,4.1-1.9l-0.2,1.6h4.3l3.4-21.3L312,40.1L312,40.1L312,40.1L312,40.1z M309.9,51.8c0,2.4-1.2,5.5-3.6,5.5
			c-1.6,0-2.3-1.4-2.3-3.5c0-3.5,1.5-5.8,3.5-5.8C309.1,48.1,309.9,49.2,309.9,51.8C309.9,51.8,309.9,49.2,309.9,51.8L309.9,51.8
			L309.9,51.8z"/>
		<path id="path4133" class="st10" d="M189.7,61.4l2.7-16.1l0.4,16.1h3.1l5.7-16.1L199,61.4h4.5l3.5-21.3h-7l-4.4,13.1l-0.2-13.1
			h-6.5l-3.5,21.3H189.7L189.7,61.4L189.7,61.4L189.7,61.4z"/>
		<path id="path4131" class="st10" d="M258,61.5c1.3-7.4,1.5-13.4,4.6-12.3c0.5-2.9,1.1-4,1.6-5.2c0,0-0.3-0.1-0.9-0.1
			c-2,0-3.5,2.7-3.5,2.7l0.4-2.5h-4.1l-2.8,17.4H258L258,61.5L258,61.5L258,61.5z"/>
		<path id="path4149_1_" class="st10" d="M285.5,43.7c-3,0-5.4,1-5.4,1l-0.6,3.9c0,0,1.9-0.8,4.8-0.8c1.7,0,2.9,0.2,2.9,1.5
			c0,0.8-0.1,1.1-0.1,1.1s-1.3-0.1-1.9-0.1c-3.8,0-7.9,1.7-7.9,6.6c0,3.9,2.6,4.8,4.3,4.8c3.1,0,4.5-2.1,4.5-2.1l-0.1,1.7h3.9
			l1.7-12.3C291.6,43.9,287.1,43.7,285.5,43.7L285.5,43.7L285.5,43.7L285.5,43.7z M286.5,53.7c0.1,0.8-0.5,4.3-3.1,4.3
			c-1.4,0-1.7-1.1-1.7-1.7c0-1.2,0.7-2.7,3.9-2.7C286.3,53.6,286.3,53.7,286.5,53.7C286.5,53.7,286.3,53.7,286.5,53.7L286.5,53.7
			L286.5,53.7z"/>
		<path id="path4131_1_" class="st10" d="M295.2,61.5c1.3-7.4,1.5-13.4,4.6-12.3c0.5-2.9,1.1-4,1.6-5.2c0,0-0.3-0.1-0.9-0.1
			c-2,0-3.5,2.7-3.5,2.7l0.4-2.5h-4.1l-2.8,17.4H295.2L295.2,61.5L295.2,61.5L295.2,61.5z"/>
	</g>
</g>
</svg>
