<?xml version="1.0" encoding="utf-8"?>
<!-- Generator: Adobe Illustrator 22.0.1, SVG Export Plug-In . SVG Version: 6.00 Build 0)  -->
<svg version="1.1" id="Layer_1" xmlns="http://www.w3.org/2000/svg" xmlns:xlink="http://www.w3.org/1999/xlink" x="0px" y="0px"
	 viewBox="0 0 188.8 18.1" style="enable-background:new 0 0 188.8 18.1;" xml:space="preserve">
<style type="text/css">
	.st0{fill:#FFFFFF;}
</style>
<g>
	<polygon class="st0" points="130.9,10 128.6,6.4 127.1,6.4 127.1,13.8 128.8,13.8 128.8,10 130.9,13 132.9,10 132.9,13.8 
		134.7,13.8 134.7,6.4 133.2,6.4 	"/>
	<polygon class="st0" points="149.8,8.7 147.7,6.4 145.3,6.4 148.9,10.3 148.9,13.8 150.6,13.8 150.6,10.3 154.2,6.4 151.8,6.4 	"/>
	<polygon class="st0" points="166.6,6.4 164.8,6.4 164.8,13.8 170.8,13.8 170.8,12.1 166.6,12.1 	"/>
	<polygon class="st0" points="188.7,11 188.7,9.2 185.2,9.2 185.2,9.2 182.7,9.2 182.7,11 185.2,11 	"/>
	<polygon class="st0" points="188.8,8.2 188.8,6.4 182.7,6.4 182.7,8.2 184.5,8.2 	"/>
	<polygon class="st0" points="184.4,12.1 184.4,12.1 182.7,12.1 182.7,13.8 188.7,13.8 188.7,12.1 	"/>
</g>
<g>
	<path class="st0" d="M4.6,6.3c1.2,0,2.2,0.4,3,1.1S8.7,9,8.7,10.1c0,1.1-0.4,2-1.1,2.7s-1.7,1-3,1H1.3V6.3H4.6z M4.6,7.4H2.5v5.3
		h2.2c0.9,0,1.6-0.2,2.1-0.7s0.8-1.1,0.8-1.9c0-0.8-0.3-1.4-0.8-1.9S5.5,7.4,4.6,7.4z"/>
	<path class="st0" d="M16,13.9V6.3h7v1.1h-5.9v1.9H21v1.1h-3.8v2.4h6.2v1.1H16z"/>
	<path class="st0" d="M29.8,12.9l0.6-1c0.5,0.3,1.1,0.6,1.7,0.8s1.2,0.3,1.7,0.3c0.7,0,1.2-0.1,1.6-0.4S36,12,36,11.5
		c0-0.4-0.2-0.7-0.6-1s-1-0.3-1.8-0.3c-1.4,0-2.3-0.2-2.8-0.5S30.1,9,30.1,8.3c0-0.6,0.3-1.2,0.8-1.6s1.3-0.6,2.3-0.6
		c0.6,0,1.3,0.1,1.9,0.3s1.2,0.5,1.8,0.8l-0.6,1c-0.5-0.3-1-0.6-1.5-0.7s-1.1-0.3-1.5-0.3c-0.6,0-1,0.1-1.4,0.3S31.3,8,31.3,8.3
		c0,0.3,0.2,0.6,0.5,0.7s1,0.2,1.8,0.2c1.2,0,2.1,0.2,2.7,0.6s0.9,1,0.9,1.8c0,0.7-0.3,1.3-0.9,1.8s-1.4,0.7-2.4,0.7
		c-0.7,0-1.4-0.1-2.2-0.3S30.4,13.3,29.8,12.9z"/>
	<path class="st0" d="M44.7,13.9V6.3h1.2v7.5H44.7z"/>
	<path class="st0" d="M59,10.9V9.9h3.1v2.3c-0.4,0.6-1,1.1-1.7,1.5s-1.5,0.5-2.4,0.5c-1.4,0-2.5-0.4-3.4-1.1s-1.3-1.7-1.3-2.8
		s0.4-2.1,1.3-2.9s2-1.1,3.4-1.1c0.9,0,1.6,0.1,2.3,0.4s1.2,0.7,1.7,1.3l-0.9,0.7c-0.3-0.4-0.7-0.7-1.3-1S58.6,7.2,58,7.2
		c-1,0-1.9,0.3-2.5,0.8s-1,1.2-1,2.1s0.3,1.5,1,2.1S56.9,13,58,13c0.6,0,1.2-0.1,1.8-0.4s0.9-0.5,1.1-0.9v-0.8H59z"/>
	<path class="st0" d="M69.7,13.9V6.3h0.6l4.8,5.3V6.3h1.2v7.5h-0.6l-4.8-5.3v5.3H69.7z"/>
	<path class="st0" d="M84.2,13.9V6.3h7v1.1h-5.9v1.9h3.8v1.1h-3.8v2.4h6.2v1.1H84.2z"/>
	<path class="st0" d="M99.8,10.6v3.3h-1.2V6.4h5.2c0.8,0,1.4,0.2,1.8,0.6s0.7,0.9,0.7,1.5c0,0.5-0.2,1-0.5,1.4
		c-0.3,0.4-0.8,0.6-1.3,0.7l2.1,3.3h-1.3l-2.1-3.3H99.8z M99.8,9.5h4c0.4,0,0.7-0.1,0.9-0.3s0.3-0.4,0.3-0.8s-0.1-0.6-0.3-0.8
		s-0.5-0.3-0.9-0.3h-4V9.5z"/>
</g>
</svg>
