<?xml version="1.0" encoding="utf-8"?>
<!-- Generator: Adobe Illustrator 22.0.1, SVG Export Plug-In . SVG Version: 6.00 Build 0)  -->
<svg version="1.1" id="ICONS" xmlns="http://www.w3.org/2000/svg" xmlns:xlink="http://www.w3.org/1999/xlink" x="0px" y="0px"
	 viewBox="0 0 46.1 43.9" style="enable-background:new 0 0 46.1 43.9;" xml:space="preserve">
<style type="text/css">
	.st0{display:none;fill:#231F20;}
	.st1{display:none;}
</style>
<path class="st0" d="M41.9,1.3C32-3.3,23.6,5.9,23.6,5.9S15.2-3.3,5.3,1.3C-4.6,5.8-6.8,24.9,9.9,29.9c8.7,3.1,13.7,9,13.7,14
	c0-5,4.9-10.9,13.6-14C54,24.9,51.8,5.8,41.9,1.3z"/>
<polygon class="st1" points="23.1,0 30.2,14.4 46.1,16.7 34.6,28 37.3,43.9 23.1,36.4 8.8,43.9 11.5,28 0,16.7 15.9,14.4 "/>
<polygon points="23.1,0 28.5,16.8 46.1,16.8 31.9,27.1 37.3,43.9 23.1,33.5 8.8,43.9 14.3,27.1 0,16.8 17.6,16.8 "/>
</svg>
