<?xml version="1.0" encoding="utf-8"?>
<!-- Generator: Adobe Illustrator 21.1.0, SVG Export Plug-In . SVG Version: 6.00 Build 0)  -->
<svg version="1.1" id="ICONS" xmlns="http://www.w3.org/2000/svg" xmlns:xlink="http://www.w3.org/1999/xlink" x="0px" y="0px"
	 viewBox="0 0 80 80" style="enable-background:new 0 0 80 80;" xml:space="preserve">
<style type="text/css">
	.st0{fill:#000000;}
</style>
<g>
	<path class="st0" d="M10.9,0C4.9,0,0,4.9,0,10.9v58.2C0,75.1,4.9,80,10.9,80h58.2c6,0,10.9-4.9,10.9-10.9V10.9
		C80,4.9,75.1,0,69.1,0H10.9z M58.2,10.9h10.9v10.9H58.2V10.9z M40,25.5c8.1,0,14.5,6.5,14.5,14.5S48.1,54.5,40,54.5
		c-8.1,0-14.5-6.5-14.5-14.5S31.9,25.5,40,25.5z M7.3,32.7h12.2c-0.8,2.3-1.3,4.7-1.3,7.3c0,12,9.8,21.8,21.8,21.8
		c12,0,21.8-9.8,21.8-21.8c0-2.5-0.4-5-1.3-7.3h12.2v36.4c0,2.1-1.6,3.6-3.6,3.6H10.9c-2.1,0-3.6-1.6-3.6-3.6V32.7z"/>
</g>
</svg>
