<?xml version="1.0" encoding="iso-8859-1"?>
<!-- Generator: Adobe Illustrator 19.1.0, SVG Export Plug-In . SVG Version: 6.00 Build 0)  -->
<svg version="1.1" id="Capa_1" xmlns="http://www.w3.org/2000/svg" xmlns:xlink="http://www.w3.org/1999/xlink" x="0px" y="0px"
	 viewBox="0 0 362.802 362.802" style="enable-background:new 0 0 362.802 362.802;" xml:space="preserve">
<g>
	<g id="Bags_2_">
		<g>
			<path d="M317.452,68.025h-68.025C247.182,30.861,218.951,0,181.401,0s-65.781,30.861-68.025,68.025H45.35L22.675,362.802h317.452
				L317.452,68.025z M181.401,22.766c25.079,0,43.173,20.634,45.35,45.26h-90.701C138.25,43.4,156.3,22.766,181.401,22.766z
				 M68.025,90.701h226.751l22.766,249.313H45.237L68.025,90.701z M124.713,113.376c-12.517,0-22.675,10.158-22.675,22.675
				s10.158,22.675,22.675,22.675s22.675-10.158,22.675-22.675S137.23,113.376,124.713,113.376z M238.089,113.376
				c-12.517,0-22.675,10.158-22.675,22.675s10.158,22.675,22.675,22.675s22.675-10.158,22.675-22.675
				S250.606,113.376,238.089,113.376z"/>
		</g>
	</g>
</g>
<g>
</g>
<g>
</g>
<g>
</g>
<g>
</g>
<g>
</g>
<g>
</g>
<g>
</g>
<g>
</g>
<g>
</g>
<g>
</g>
<g>
</g>
<g>
</g>
<g>
</g>
<g>
</g>
<g>
</g>
</svg>
