<?xml version="1.0" encoding="utf-8"?>
<!-- Generator: Adobe Illustrator 22.0.1, SVG Export Plug-In . SVG Version: 6.00 Build 0)  -->
<svg version="1.1" id="Layer_1" xmlns="http://www.w3.org/2000/svg" xmlns:xlink="http://www.w3.org/1999/xlink" x="0px" y="0px"
	 viewBox="0 0 170.4 8.4" style="enable-background:new 0 0 170.4 8.4;" xml:space="preserve">
<g id="XMLID_159_">
	<path id="XMLID_122_" d="M4.9,3.3C4.5,3.3,4.3,3.3,4,3.3c-0.3,0-0.5,0-0.7-0.1c-0.2,0-0.4-0.1-0.5-0.1C2.6,3.1,2.5,3,2.4,3
		c0,0-0.1,0-0.1-0.1C2.3,2.8,2.2,2.7,2.2,2.6c0-0.1,0-0.2,0.1-0.3c0.1-0.1,0.1-0.2,0.3-0.3C2.7,2,2.8,1.9,3,1.8
		C3.5,1.7,4.2,1.7,4.9,2c0.4,0.2,0.8,0.4,1.2,0.7l0.4,0.3l1-1.5L7.2,1.3c-0.5-0.4-1.1-0.7-1.7-1C5,0.1,4.3,0,3.7,0
		C3.2,0,2.8,0.1,2.4,0.2C2,0.3,1.6,0.5,1.4,0.7C1.1,1,0.9,1.2,0.7,1.6C0.4,2.1,0.3,2.8,0.6,3.4c0.2,0.5,0.5,0.8,1,1.1
		C1.9,4.8,2.4,5,2.9,5c0.3,0,0.6,0.1,0.8,0.1c0.2,0,0.5,0,0.7,0.1c0.2,0,0.4,0.1,0.7,0.1c0.2,0.1,0.5,0.2,0.5,0.5
		c0,0.1,0,0.2-0.1,0.3C5.5,6.1,5.4,6.2,5.3,6.3C5.1,6.4,5,6.5,4.8,6.5c-0.5,0.1-1.3,0.1-2-0.2C2.3,6.2,1.9,5.9,1.5,5.6L1,5.3L0,6.8
		l0.4,0.3c0.5,0.4,1.1,0.7,1.7,1c0.6,0.2,1.3,0.3,2,0.3c0.5,0,1-0.1,1.4-0.2C5.9,8,6.2,7.8,6.5,7.6C6.8,7.4,7,7.1,7.2,6.8
		c0.2-0.3,0.2-0.7,0.2-1c0-0.6-0.2-1.2-0.7-1.6C6.3,3.7,5.7,3.4,4.9,3.3z"/>
	<polygon id="XMLID_49_" points="19.8,2 22.9,2 22.9,8.4 24.9,8.4 24.9,2 27.9,2 27.9,0 19.8,0 	"/>
	<polygon id="XMLID_48_" points="43.1,2.6 40.8,0 38.2,0 42.1,4.4 42.1,8.4 44.1,8.4 44.1,4.4 48.1,0 45.5,0 	"/>
	<polygon id="XMLID_47_" points="62.2,0 60.1,0 60.1,8.4 66.9,8.4 66.9,6.4 62.2,6.4 	"/>
	<polygon id="XMLID_46_" points="105.3,4 102.7,0 101,0 101,8.4 103,8.4 103,4 105.3,7.4 107.6,4 107.6,8.4 109.6,8.4 109.6,0 
		107.9,0 	"/>
	<polygon id="XMLID_45_" points="126.5,2.6 124.2,0 121.6,0 125.5,4.4 125.5,8.4 127.5,8.4 127.5,4.4 131.5,0 128.9,0 	"/>
	<polygon id="XMLID_44_" points="145.5,0 143.5,0 143.5,8.4 150.3,8.4 150.3,6.4 145.5,6.4 	"/>
	<polygon id="XMLID_118_" points="87,5.1 87,3.2 83,3.2 83,3.2 80.3,3.2 80.3,5.1 83,5.1 	"/>
	<polygon id="XMLID_117_" points="87.1,2 87.1,0 80.3,0 80.3,2 82.3,2 	"/>
	<polygon id="XMLID_116_" points="82.2,6.4 82.2,6.4 80.3,6.4 80.3,8.4 87,8.4 87,6.4 	"/>
	<polygon id="XMLID_30_" points="170.4,5.1 170.4,3.2 166.4,3.2 166.4,3.2 163.6,3.2 163.6,5.1 166.4,5.1 	"/>
	<polygon id="XMLID_15_" points="170.4,2 170.4,0 163.6,0 163.6,2 165.7,2 	"/>
	<polygon id="XMLID_14_" points="165.5,6.4 165.5,6.4 163.6,6.4 163.6,8.4 170.4,8.4 170.4,6.4 	"/>
</g>
</svg>
