<?xml version="1.0" encoding="utf-8"?>
<!-- Generator: Adobe Illustrator 21.1.0, SVG Export Plug-In . SVG Version: 6.00 Build 0)  -->
<svg version="1.1" id="Layer_1" xmlns="http://www.w3.org/2000/svg" xmlns:xlink="http://www.w3.org/1999/xlink" x="0px" y="0px"
	 viewBox="0 0 69.4 8.3" style="enable-background:new 0 0 69.4 8.3;" xml:space="preserve">
<polygon points="4.3,4 1.7,0 0,0 0,8.3 2,8.3 2,4 4.3,7.4 6.6,4 6.6,8.3 8.6,8.3 8.6,0 6.9,0 "/>
<polygon points="25.5,2.6 23.2,0 20.6,0 24.5,4.4 24.5,8.3 26.5,8.3 26.5,4.4 30.5,0 27.8,0 "/>
<polygon points="44.5,0 42.5,0 42.5,8.3 49.2,8.3 49.2,6.4 44.5,6.4 "/>
<polygon points="69.3,5.1 69.3,3.2 65.3,3.2 65.3,3.2 62.6,3.2 62.6,5.1 65.3,5.1 "/>
<polygon points="69.4,1.9 69.4,0 62.6,0 62.6,1.9 64.6,1.9 "/>
<polygon points="64.5,6.4 64.5,6.4 62.6,6.4 62.6,8.3 69.3,8.3 69.3,6.4 "/>
</svg>
