<?xml version="1.0" encoding="utf-8"?>
<!-- Generator: Adobe Illustrator 21.1.0, SVG Export Plug-In . SVG Version: 6.00 Build 0)  -->
<svg version="1.1" id="Layer_1" xmlns="http://www.w3.org/2000/svg" xmlns:xlink="http://www.w3.org/1999/xlink" x="0px" y="0px"
	 viewBox="0 0 87.6 8.7" style="enable-background:new 0 0 87.6 8.7;" xml:space="preserve">
<path d="M5.4,3.1C5,3.1,4.7,3,4.4,3C4.1,3,3.9,3,3.6,3C3.4,3,3.2,2.9,3,2.9c-0.1,0-0.2-0.1-0.3-0.2C2.6,2.6,2.6,2.5,2.6,2.5
	c0,0,0-0.2,0.3-0.3C3.1,2,3.4,2,3.9,2c0.9,0,1.8,0.3,2.6,1l0.5,0.4l1.2-1.7L7.6,1.3c-0.6-0.4-1.2-0.7-1.8-1C5.2,0.1,4.5,0,3.9,0
	C3.4,0,2.9,0.1,2.5,0.2C2.1,0.3,1.8,0.5,1.5,0.7C1.2,0.9,0.9,1.2,0.8,1.5c-0.2,0.3-0.3,0.7-0.3,1c0,0.6,0.2,1.5,1.3,2
	c0.2,0.1,0.5,0.2,0.7,0.2c0.2,0.1,0.5,0.1,0.8,0.1C3.6,4.9,3.9,5,4.2,5C4.4,5,4.7,5,5,5.1c0.4,0,0.8,0.1,0.9,0.3
	c0.2,0.2,0.2,0.3,0.2,0.4c0,0.1,0,0.2-0.1,0.3C6,6.2,5.9,6.3,5.8,6.4C5.7,6.5,5.5,6.6,5.3,6.6C4.7,6.8,3.9,6.8,3.1,6.5
	C2.6,6.3,2.1,6,1.6,5.6L1.1,5.3L0,7l0.4,0.3C1,7.8,1.7,8.1,2.3,8.3C3,8.6,3.7,8.7,4.5,8.7c0.6,0,1.1-0.1,1.5-0.2
	c0.5-0.1,0.9-0.3,1.2-0.6C7.5,7.6,7.8,7.3,8,7c0.2-0.4,0.3-0.7,0.3-1.1C8.3,5.1,8,4.5,7.5,4C7,3.5,6.3,3.2,5.4,3.1"/>
<polygon points="20.5,2.1 23.5,2.1 23.5,8.5 25.5,8.5 25.5,2.1 28.6,2.1 28.6,0.2 20.5,0.2 "/>
<polygon points="43.8,2.7 41.4,0.2 38.8,0.2 42.7,4.5 42.7,8.5 44.8,8.5 44.8,4.5 48.7,0.2 46.1,0.2 "/>
<polygon points="62.7,0.2 60.7,0.2 60.7,8.5 67.4,8.5 67.4,6.5 62.7,6.5 "/>
<polygon points="87.5,5.3 87.5,3.3 83.6,3.3 83.6,3.3 80.8,3.3 80.8,5.3 83.6,5.3 "/>
<polygon points="87.6,2.1 87.6,0.2 80.8,0.2 80.8,2.1 82.8,2.1 "/>
<polygon points="82.7,6.5 82.7,6.5 80.8,6.5 80.8,8.5 87.5,8.5 87.5,6.5 "/>
</svg>
